URWGroteskGPL-Light.ufo
<glyph name="exclam" format="2">
  <advance width="237"/>
  <unicode hex="0021"/>
  <outline>
    <contour>
      <point x="79.6777" y="667" type="line"/>
      <point x="79.6777" y="497.979" type="line"/>
      <point x="99.4994" y="220.474" type="line"/>
      <point x="137.513" y="220.474" type="line"/>
      <point x="157.334" y="497.979" type="line" name="hr01"/>
      <point x="157.334" y="667" type="line"/>
    </contour>
    <contour>
      <point x="117.976" y="90.3763" type="curve" smooth="yes"/>
      <point x="88.8736" y="90.3763"/>
      <point x="65.8981" y="67.5324" name="hr02"/>
      <point x="65.8981" y="39.3583" type="curve" smooth="yes"/>
      <point x="65.8981" y="9.32384"/>
      <point x="88.8736" y="-13.7796"/>
      <point x="117.976" y="-13.7796" type="curve" smooth="yes"/>
      <point x="147.078" y="-13.7796"/>
      <point x="170.054" y="9.19596"/>
      <point x="170.054" y="38.2984" type="curve" smooth="yes"/>
      <point x="170.054" y="67.4007"/>
      <point x="147.078" y="90.3763"/>
    </contour>
  </outline>
</glyph>
<glyph name="quotedbl" format="2">
  <advance width="330"/>
  <unicode hex="0022"/>
  <outline>
    <contour>
      <point x="99.1944" y="422.928" type="line"/>
      <point x="113.766" y="667" type="line"/>
      <point x="49.1682" y="667" type="line"/>
      <point x="63.7396" y="422.928" type="line"/>
    </contour>
    <contour>
      <point x="264.55" y="422.928" type="line"/>
      <point x="279.121" y="667" type="line"/>
      <point x="215.505" y="667" type="line"/>
      <point x="229.165" y="422.928" type="line"/>
    </contour>
  </outline>
</glyph>
<glyph name="numbersign" format="2">
  <advance width="432"/>
  <unicode hex="0023"/>
  <outline>
    <contour>
      <point x="23.2376" y="188.954" type="line"/>
      <point x="15.2327" y="148.396" type="line"/>
      <point x="100.265" y="148.396" type="line"/>
      <point x="69.5255" y="0" type="line" name="hr01"/>
      <point x="79.3252" y="0" type="line"/>
      <point x="107.944" y="148.396" type="line"/>
      <point x="254.849" y="148.396" type="line"/>
      <point x="225.17" y="0" type="line"/>
      <point x="235.141" y="0" type="line"/>
      <point x="263.76" y="148.396" type="line"/>
      <point x="347.357" y="148.396" type="line"/>
      <point x="354.828" y="188.954" type="line"/>
      <point x="269.882" y="188.954" type="line"/>
      <point x="328.379" y="496.066" type="line"/>
      <point x="410.995" y="496.066" type="line"/>
      <point x="418.368" y="535.564" type="line"/>
      <point x="334.274" y="535.564" type="line"/>
      <point x="360.774" y="667" type="line" name="hr02"/>
      <point x="352.95" y="667" type="line"/>
      <point x="327.511" y="535.564" type="line"/>
      <point x="180.579" y="535.564" type="line"/>
      <point x="207.078" y="667" type="line"/>
      <point x="200.184" y="667" type="line"/>
      <point x="173.685" y="535.564" type="line"/>
      <point x="88.9133" y="535.564" type="line"/>
      <point x="81.0138" y="496.066" type="line"/>
      <point x="167.988" y="496.066" type="line"/>
      <point x="105.835" y="188.954" type="line"/>
    </contour>
    <contour>
      <point x="116.186" y="188.954" type="line"/>
      <point x="174.684" y="496.066" type="line"/>
      <point x="320.34" y="496.066" type="line"/>
      <point x="261.842" y="188.954" type="line"/>
    </contour>
  </outline>
</glyph>
<glyph name="dollar" format="2">
  <advance width="566"/>
  <unicode hex="0024"/>
  <outline>
    <contour>
      <point x="259.112" y="750.738" type="line"/>
      <point x="259.112" y="674.006" type="line"/>
      <point x="140.396" y="663.406"/>
      <point x="61.958" y="592.247"/>
      <point x="61.958" y="495.145" type="curve" smooth="yes"/>
      <point x="61.958" y="403.575"/>
      <point x="120.256" y="346.29"/>
      <point x="259.112" y="299.652" type="curve"/>
      <point x="259.112" y="43.2512" type="line"/>
      <point x="182.467" y="52.6638"/>
      <point x="134.217" y="84.1941"/>
      <point x="113.764" y="138.999" type="curve"/>
      <point x="36.9279" y="99.5241" type="line"/>
      <point x="78.3908" y="23.8492"/>
      <point x="144.786" y="-8.47976"/>
      <point x="259.112" y="-8.47976" type="curve"/>
      <point x="259.112" y="-120.837" type="line"/>
      <point x="275.291" y="-120.837" type="line"/>
      <point x="275.291" y="-9.41456" type="line"/>
      <point x="345.399" y="-2.03477"/>
      <point x="381.627" y="8.21017"/>
      <point x="412.661" y="28.5765" type="curve" smooth="yes"/>
      <point x="463.287" y="61.0538"/>
      <point x="495.765" y="120.102"/>
      <point x="495.765" y="177.154" type="curve" smooth="yes"/>
      <point x="495.765" y="263.854"/>
      <point x="422.627" y="330.083"/>
      <point x="275.291" y="377.781" type="curve"/>
      <point x="275.291" y="621.314" type="line"/>
      <point x="341.615" y="614.105"/>
      <point x="376.443" y="591.383"/>
      <point x="394.311" y="545.11" type="curve"/>
      <point x="465.699" y="578.378" type="line"/>
      <point x="436.059" y="638.752"/>
      <point x="368.589" y="673.36"/>
      <point x="275.291" y="673.36" type="curve"/>
      <point x="275.291" y="750.738" type="line"/>
    </contour>
    <contour>
      <point x="259.112" y="384.668" type="line"/>
      <point x="181.933" y="413.61"/>
      <point x="141.735" y="456.392"/>
      <point x="141.735" y="508.925" type="curve" smooth="yes"/>
      <point x="141.735" y="567.245"/>
      <point x="191.58" y="613.526"/>
      <point x="259.112" y="619.958" type="curve"/>
    </contour>
    <contour>
      <point x="275.291" y="294.106" type="line"/>
      <point x="356.12" y="266.655"/>
      <point x="406.448" y="217.964"/>
      <point x="406.448" y="164.435" type="curve" smooth="yes"/>
      <point x="406.448" y="133.379"/>
      <point x="392.173" y="96.6783"/>
      <point x="370.797" y="75.9832" type="curve" smooth="yes"/>
      <point x="352.272" y="57.9047"/>
      <point x="325.16" y="48.9434"/>
      <point x="275.291" y="43.6002" type="curve"/>
    </contour>
  </outline>
</glyph>
<glyph name="percent" format="2">
  <advance width="752"/>
  <unicode hex="0025"/>
  <outline>
    <contour>
      <point x="229" y="671" type="curve" smooth="yes"/>
      <point x="133" y="671"/>
      <point x="83" y="617"/>
      <point x="83" y="513" type="curve" smooth="yes"/>
      <point x="83" y="405"/>
      <point x="131" y="351"/>
      <point x="228" y="351" type="curve" smooth="yes"/>
      <point x="326" y="351"/>
      <point x="375" y="404"/>
      <point x="375" y="511" type="curve" smooth="yes"/>
      <point x="375" y="617"/>
      <point x="326" y="671"/>
    </contour>
    <contour>
      <point x="230" y="633" type="curve" smooth="yes"/>
      <point x="282" y="633"/>
      <point x="306" y="594"/>
      <point x="306" y="511" type="curve" smooth="yes"/>
      <point x="306" y="428"/>
      <point x="282" y="389"/>
      <point x="230" y="389" type="curve" smooth="yes"/>
      <point x="178" y="389"/>
      <point x="154" y="427"/>
      <point x="154" y="512" type="curve" smooth="yes"/>
      <point x="154" y="594"/>
      <point x="178" y="633"/>
    </contour>
    <contour>
      <point x="639" y="702" type="line"/>
      <point x="598" y="710" type="line"/>
      <point x="73" y="-97" type="line"/>
      <point x="116" y="-104" type="line"/>
    </contour>
    <contour>
      <point x="523" y="318" type="curve" smooth="yes"/>
      <point x="427" y="318"/>
      <point x="377" y="264"/>
      <point x="377" y="160" type="curve" smooth="yes"/>
      <point x="377" y="52"/>
      <point x="425" y="-2"/>
      <point x="522" y="-2" type="curve" smooth="yes"/>
      <point x="620" y="-2"/>
      <point x="669" y="51"/>
      <point x="669" y="158" type="curve" smooth="yes"/>
      <point x="669" y="264"/>
      <point x="620" y="318"/>
    </contour>
    <contour>
      <point x="524" y="280" type="curve" smooth="yes"/>
      <point x="576" y="280"/>
      <point x="600" y="241"/>
      <point x="600" y="158" type="curve" smooth="yes"/>
      <point x="600" y="75"/>
      <point x="576" y="36"/>
      <point x="524" y="36" type="curve" smooth="yes"/>
      <point x="472" y="36"/>
      <point x="448" y="74"/>
      <point x="448" y="159" type="curve" smooth="yes"/>
      <point x="448" y="241"/>
      <point x="473" y="280"/>
    </contour>
  </outline>
</glyph>
<glyph name="ampersand" format="2">
  <advance width="675"/>
  <unicode hex="0026"/>
  <outline>
    <contour>
      <point x="520.705" y="339.469" type="line"/>
      <point x="540.705" y="359.469" type="line"/>
      <point x="540.705" y="346.75" type="line" smooth="yes"/>
      <point x="540.705" y="287.526"/>
      <point x="523.745" y="237.73"/>
      <point x="481.345" y="168.478" type="curve"/>
      <point x="412.408" y="224.158"/>
      <point x="358.152" y="281.033"/>
      <point x="301.369" y="356.304" type="curve"/>
      <point x="386.815" y="397.445"/>
      <point x="471.025" y="440.302"/>
      <point x="471.025" y="549.204" type="curve" smooth="yes"/>
      <point x="471.025" y="629.253"/>
      <point x="412.025" y="680.78"/>
      <point x="319.31" y="680.78" type="curve" smooth="yes"/>
      <point x="212.509" y="680.78"/>
      <point x="140.036" y="615.712"/>
      <point x="140.036" y="519.525" type="curve" smooth="yes"/>
      <point x="140.036" y="474.98"/>
      <point x="156.567" y="431.988" name="hr01"/>
      <point x="201.073" y="362.049" type="curve"/>
      <point x="91.2676" y="321.296"/>
      <point x="41.4588" y="265.188"/>
      <point x="41.4588" y="184.574" type="curve" smooth="yes"/>
      <point x="41.4588" y="69.0283"/>
      <point x="132.777" y="-13.7796"/>
      <point x="261.012" y="-13.7796" type="curve" smooth="yes"/>
      <point x="337.483" y="-13.7796"/>
      <point x="398.744" y="12.0615"/>
      <point x="479.638" y="78.3497" type="curve"/>
      <point x="536.725" y="37.2474"/>
      <point x="564.756" y="21.9626"/>
      <point x="617.304" y="0.313107" type="curve"/>
      <point x="667.556" y="72.5062" type="line"/>
      <point x="613.235" y="89.1134"/>
      <point x="589.125" y="101.293"/>
      <point x="536.026" y="135.428" type="curve"/>
      <point x="590.392" y="214.802"/>
      <point x="613.758" y="271.14"/>
      <point x="620.881" y="339.469" type="curve"/>
    </contour>
    <contour>
      <point x="264.236" y="392.529" type="line"/>
      <point x="222.424" y="449.673"/>
      <point x="207.093" y="486.174"/>
      <point x="207.093" y="526.945" type="curve" smooth="yes"/>
      <point x="207.093" y="596.183"/>
      <point x="250.024" y="642.342"/>
      <point x="315.07" y="642.342" type="curve" smooth="yes"/>
      <point x="371.589" y="642.342"/>
      <point x="409.268" y="604.775"/>
      <point x="409.268" y="547.084" type="curve" smooth="yes"/>
      <point x="409.268" y="491.075"/>
      <point x="374.668" y="445.744"/>
      <point x="307.852" y="413.53" type="curve" smooth="yes"/>
    </contour>
    <contour>
      <point x="242.289" y="310.701" type="line" smooth="yes"/>
      <point x="286.83" y="248.551"/>
      <point x="358.01" y="175.824"/>
      <point x="429.709" y="120.195" type="curve"/>
      <point x="370.574" y="65.4949"/>
      <point x="327" y="44.7976"/>
      <point x="274.792" y="44.7976" type="curve" smooth="yes"/>
      <point x="191.657" y="44.7976"/>
      <point x="124.415" y="107.883"/>
      <point x="124.415" y="184.574" type="curve" smooth="yes"/>
      <point x="124.415" y="242.769"/>
      <point x="158.034" y="286.855"/>
      <point x="232.274" y="324.676" type="curve"/>
    </contour>
  </outline>
</glyph>
<glyph name="quotesingle" format="2">
  <advance width="187"/>
  <unicode hex="0027"/>
  <outline>
    <contour>
      <point x="121" y="399" type="line"/>
      <point x="133" y="667" type="line"/>
      <point x="53" y="667" type="line"/>
      <point x="65" y="399" type="line"/>
    </contour>
  </outline>
</glyph>
<glyph name="parenleft" format="2">
  <advance width="270"/>
  <unicode hex="0028"/>
  <outline>
    <contour>
      <point x="197" y="700" type="line"/>
      <point x="149" y="651"/>
      <point x="127" y="617"/>
      <point x="104" y="560" type="curve" smooth="yes"/>
      <point x="68" y="469"/>
      <point x="50" y="360"/>
      <point x="50" y="240" type="curve" smooth="yes"/>
      <point x="50" y="120"/>
      <point x="68" y="11"/>
      <point x="104" y="-80" type="curve" smooth="yes"/>
      <point x="127" y="-137"/>
      <point x="149" y="-171"/>
      <point x="197" y="-220" type="curve"/>
      <point x="243" y="-220" type="line"/>
      <point x="197" y="-167"/>
      <point x="181" y="-137"/>
      <point x="162" y="-72" type="curve" smooth="yes"/>
      <point x="135" y="19"/>
      <point x="122" y="118"/>
      <point x="122" y="240" type="curve" smooth="yes"/>
      <point x="122" y="362"/>
      <point x="135" y="461"/>
      <point x="162" y="552" type="curve" smooth="yes"/>
      <point x="181" y="616"/>
      <point x="197" y="647"/>
      <point x="243" y="700" type="curve"/>
    </contour>
  </outline>
</glyph>
<glyph name="parenright" format="2">
  <advance width="270"/>
  <unicode hex="0029"/>
  <outline>
    <contour>
      <point x="73" y="-220" type="line"/>
      <point x="121" y="-171"/>
      <point x="143" y="-137"/>
      <point x="166" y="-80" type="curve" smooth="yes"/>
      <point x="202" y="11"/>
      <point x="220" y="119"/>
      <point x="220" y="240" type="curve" smooth="yes"/>
      <point x="220" y="362"/>
      <point x="202" y="469"/>
      <point x="166" y="560" type="curve" smooth="yes"/>
      <point x="143" y="617"/>
      <point x="121" y="651"/>
      <point x="73" y="700" type="curve"/>
      <point x="27" y="700" type="line"/>
      <point x="73" y="647"/>
      <point x="90" y="616"/>
      <point x="109" y="552" type="curve" smooth="yes"/>
      <point x="136" y="461"/>
      <point x="149" y="363"/>
      <point x="149" y="241" type="curve" smooth="yes"/>
      <point x="149" y="118"/>
      <point x="136" y="19"/>
      <point x="109" y="-72" type="curve" smooth="yes"/>
      <point x="90" y="-136"/>
      <point x="73" y="-167"/>
      <point x="27" y="-220" type="curve"/>
    </contour>
  </outline>
</glyph>
<glyph name="asterisk" format="2">
  <advance width="419"/>
  <unicode hex="002A"/>
  <outline>
    <contour>
      <point x="211.366" y="512.417" type="line"/>
      <point x="330.717" y="387.039" type="line"/>
      <point x="302.998" y="388.246" type="line"/>
      <point x="308.363" y="392.979" type="line"/>
      <point x="228.16" y="522.621" type="line"/>
      <point x="382.83" y="596.911" type="line"/>
      <point x="372.693" y="572.048" type="line"/>
      <point x="370.179" y="578.963" type="line"/>
      <point x="223.674" y="547.256" type="line"/>
      <point x="203.09" y="722.83" type="line"/>
      <point x="222.954" y="705.159" type="line"/>
      <point x="217.426" y="705.159" type="line"/>
      <point x="198.914" y="547.256" type="line"/>
      <point x="35.3483" y="582.655" type="line"/>
      <point x="58.3746" y="595.368" type="line"/>
      <point x="56.0652" y="589.017" type="line"/>
      <point x="193.454" y="522.503" type="line"/>
      <point x="103.161" y="378.523" type="line"/>
      <point x="99.0211" y="404.513" type="line"/>
      <point x="103.791" y="400.538" type="line"/>
    </contour>
  </outline>
</glyph>
<glyph name="plus" format="2">
  <advance width="520"/>
  <unicode hex="002B"/>
  <outline>
    <contour>
      <point x="15" y="365" type="line"/>
      <point x="15" y="321" type="line"/>
      <point x="235" y="321" type="line"/>
      <point x="235" y="99" type="line"/>
      <point x="283" y="99" type="line"/>
      <point x="283" y="321" type="line"/>
      <point x="506" y="321" type="line"/>
      <point x="506" y="365" type="line"/>
      <point x="283" y="365" type="line"/>
      <point x="283" y="591" type="line"/>
      <point x="235" y="591" type="line"/>
      <point x="235" y="365" type="line"/>
    </contour>
  </outline>
</glyph>
<glyph name="comma" format="2">
  <advance width="211"/>
  <unicode hex="002C"/>
  <outline>
    <contour>
      <point x="140.735" y="104.156" type="line"/>
      <point x="72.6177" y="104.156" type="line"/>
      <point x="72.6177" y="40.4183" type="line" smooth="yes"/>
      <point x="72.6177" y="14.8291"/>
      <point x="65.9551" y="-16.8296"/>
      <point x="48.1958" y="-67.8875" type="curve" smooth="yes"/>
      <point x="20.9542" y="-146.499" type="line"/>
      <point x="46.4012" y="-144.857" type="line"/>
      <point x="140.735" y="5.88163" type="line"/>
    </contour>
  </outline>
</glyph>
<glyph name="hyphen" format="2">
  <advance width="210"/>
  <unicode hex="002D"/>
  <outline>
    <contour>
      <point x="0" y="267" type="line"/>
      <point x="0" y="211" type="line"/>
      <point x="210" y="211" type="line"/>
      <point x="210" y="267" type="line"/>
    </contour>
  </outline>
</glyph>
<glyph name="period" format="2">
  <advance width="218"/>
  <unicode hex="002E"/>
  <outline>
    <contour>
      <point x="108.436" y="90.3763" type="curve" smooth="yes"/>
      <point x="79.3339" y="90.3763"/>
      <point x="56.3583" y="67.5324"/>
      <point x="56.3583" y="39.3583" type="curve" smooth="yes"/>
      <point x="56.3583" y="9.32384"/>
      <point x="79.3339" y="-13.7796"/>
      <point x="108.436" y="-13.7796" type="curve" smooth="yes"/>
      <point x="137.539" y="-13.7796"/>
      <point x="160.514" y="9.19596"/>
      <point x="160.514" y="38.2984" type="curve" smooth="yes"/>
      <point x="160.514" y="67.4007"/>
      <point x="137.539" y="90.3763"/>
    </contour>
  </outline>
</glyph>
<glyph name="slash" format="2">
  <advance width="395"/>
  <unicode hex="002F"/>
  <outline>
    <contour>
      <point x="373" y="701" type="line"/>
      <point x="334" y="710" type="line"/>
      <point x="-36" y="-223" type="line"/>
      <point x="3" y="-230" type="line"/>
    </contour>
  </outline>
</glyph>
<glyph name="zero" format="2">
  <advance width="543"/>
  <unicode hex="0030"/>
  <outline>
    <contour>
      <point x="275" y="680" type="curve" smooth="yes"/>
      <point x="127" y="680"/>
      <point x="44" y="554"/>
      <point x="44" y="331" type="curve" smooth="yes"/>
      <point x="44" y="115"/>
      <point x="129" y="-13"/>
      <point x="272" y="-13" type="curve" smooth="yes"/>
      <point x="415" y="-13"/>
      <point x="499" y="115"/>
      <point x="499" y="333" type="curve" smooth="yes"/>
      <point x="499" y="550"/>
      <point x="415" y="680"/>
    </contour>
    <contour>
      <point x="274" y="617" type="curve" smooth="yes"/>
      <point x="365" y="617"/>
      <point x="416" y="515"/>
      <point x="416" y="333" type="curve" smooth="yes"/>
      <point x="416" y="150"/>
      <point x="365" y="50"/>
      <point x="272" y="50" type="curve" smooth="yes"/>
      <point x="228" y="50"/>
      <point x="193" y="70"/>
      <point x="172" y="109" type="curve"/>
      <point x="142" y="161"/>
      <point x="127" y="238"/>
      <point x="127" y="331" type="curve" smooth="yes"/>
      <point x="127" y="429"/>
      <point x="142" y="505"/>
      <point x="172" y="558" type="curve" smooth="yes"/>
      <point x="194" y="598"/>
      <point x="227" y="617"/>
    </contour>
  </outline>
</glyph>
<glyph name="one" format="2">
  <advance width="543"/>
  <unicode hex="0031"/>
  <outline>
    <contour>
      <point x="374" y="667" type="line"/>
      <point x="329" y="667" type="line"/>
      <point x="290" y="592"/>
      <point x="249" y="571"/>
      <point x="125" y="560" type="curve"/>
      <point x="125" y="521" type="line"/>
      <point x="294" y="528" type="line"/>
      <point x="294" y="0" type="line"/>
      <point x="374" y="0" type="line"/>
    </contour>
  </outline>
</glyph>
<glyph name="two" format="2">
  <advance width="543"/>
  <unicode hex="0032"/>
  <outline>
    <contour>
      <point x="464" y="64" type="line"/>
      <point x="176" y="64" type="line"/>
      <point x="387" y="307"/>
      <point x="442" y="400"/>
      <point x="442" y="511" type="curve" smooth="yes"/>
      <point x="442" y="619"/>
      <point x="376" y="680"/>
      <point x="259" y="680" type="curve" smooth="yes"/>
      <point x="213" y="680"/>
      <point x="174" y="668"/>
      <point x="146" y="644" type="curve" smooth="yes"/>
      <point x="119" y="620"/>
      <point x="104" y="595"/>
      <point x="83" y="535" type="curve"/>
      <point x="153" y="488" type="line"/>
      <point x="162" y="576"/>
      <point x="196" y="617"/>
      <point x="259" y="617" type="curve" smooth="yes"/>
      <point x="322" y="617"/>
      <point x="359" y="576"/>
      <point x="359" y="508" type="curve" smooth="yes"/>
      <point x="359" y="434"/>
      <point x="332" y="362"/>
      <point x="269" y="275" type="curve"/>
      <point x="230" y="219"/>
      <point x="201" y="185"/>
      <point x="80" y="56" type="curve"/>
      <point x="80" y="0" type="line"/>
      <point x="464" y="0" type="line"/>
    </contour>
  </outline>
</glyph>
<glyph name="three" format="2">
  <advance width="539"/>
  <unicode hex="0033"/>
  <outline>
    <contour>
      <point x="214.694" y="348.087" type="line"/>
      <point x="219.759" y="348.4"/>
      <point x="224.259" y="348.591"/>
      <point x="227.693" y="348.591" type="curve" smooth="yes"/>
      <point x="328.212" y="348.591"/>
      <point x="393.829" y="287.376"/>
      <point x="393.829" y="191.994" type="curve" smooth="yes"/>
      <point x="393.829" y="94.0673"/>
      <point x="330.059" y="26.9175"/>
      <point x="235.112" y="26.9175" type="curve" smooth="yes"/>
      <point x="169.818" y="26.9175"/>
      <point x="126.745" y="49.4732"/>
      <point x="94.8944" y="105.772" type="curve"/>
      <point x="62.6783" y="89.1854" type="line"/>
      <point x="103.419" y="28.2372"/>
      <point x="146.366" y="6.22039"/>
      <point x="229.813" y="6.22039" type="curve" smooth="yes"/>
      <point x="358.247" y="6.22039"/>
      <point x="442.085" y="81.67"/>
      <point x="442.085" y="198.354" type="curve" smooth="yes"/>
      <point x="442.085" y="296.349"/>
      <point x="353.648" y="322.081"/>
      <point x="239.359" y="350.018" type="curve"/>
      <point x="355.66" y="415.218"/>
      <point x="410.286" y="472.822"/>
      <point x="410.286" y="529.064" type="curve" smooth="yes"/>
      <point x="410.286" y="610.37"/>
      <point x="344.069" y="660.78"/>
      <point x="238.292" y="660.78" type="curve" smooth="yes"/>
      <point x="162.863" y="660.78"/>
      <point x="119.837" y="639.653"/>
      <point x="91.3569" y="584.715" type="curve"/>
      <point x="121.781" y="571.328" type="line"/>
      <point x="145.491" y="621.787"/>
      <point x="182.675" y="644.322"/>
      <point x="239.352" y="644.322" type="curve" smooth="yes"/>
      <point x="317.351" y="644.322"/>
      <point x="364.15" y="595.344"/>
      <point x="364.15" y="514.225" type="curve" smooth="yes"/>
      <point x="364.15" y="422.006"/>
      <point x="297.662" y="362.928"/>
      <point x="193.774" y="362.928" type="curve" smooth="yes"/>
      <point x="189.847" y="362.928"/>
      <point x="180.684" y="362.928"/>
      <point x="125.741" y="369.796" type="curve"/>
      <point x="214.694" y="448.322" type="line"/>
    </contour>
  </outline>
</glyph>
<glyph name="four" format="2">
  <advance width="553"/>
  <unicode hex="0034"/>
  <outline>
    <contour>
      <point x="422.267" y="667" type="line"/>
      <point x="318.684" y="667" type="line"/>
      <point x="38.2789" y="222.254" type="line"/>
      <point x="38.2789" y="152.636" type="line"/>
      <point x="346.73" y="152.636" type="line"/>
      <point x="346.73" y="0" type="line"/>
      <point x="422.267" y="0" type="line"/>
      <point x="422.267" y="152.636" type="line"/>
      <point x="517.664" y="152.636" type="line"/>
      <point x="517.664" y="208.033" type="line"/>
      <point x="422.267" y="208.033" type="line"/>
    </contour>
    <contour>
      <point x="346.73" y="642.007" type="line"/>
      <point x="346.73" y="208.033" type="line"/>
      <point x="92.5647" y="208.033" type="line"/>
    </contour>
  </outline>
</glyph>
<glyph name="five" format="2">
  <advance width="545"/>
  <unicode hex="0035"/>
  <outline>
    <contour>
      <point x="460.846" y="667" type="line"/>
      <point x="128.385" y="667" type="line"/>
      <point x="84.1549" y="341.04" type="line"/>
      <point x="155.605" y="315.468" type="line"/>
      <point x="186.37" y="354.969"/>
      <point x="215.904" y="368.87"/>
      <point x="262.492" y="368.87" type="curve" smooth="yes"/>
      <point x="347.951" y="368.87"/>
      <point x="401.208" y="309.214"/>
      <point x="401.208" y="214.253" type="curve" smooth="yes"/>
      <point x="401.208" y="115.787"/>
      <point x="334.449" y="43.7376"/>
      <point x="243.412" y="43.7376" type="curve" smooth="yes"/>
      <point x="186.366" y="43.7376"/>
      <point x="144.113" y="71.4809"/>
      <point x="116.897" y="124.762" type="curve"/>
      <point x="45.7269" y="90.5727" type="line"/>
      <point x="86.3932" y="15.6164"/>
      <point x="159.053" y="-13.7796"/>
      <point x="242.352" y="-13.7796" type="curve" smooth="yes"/>
      <point x="392.385" y="-13.7796"/>
      <point x="489.465" y="80.1726"/>
      <point x="489.465" y="226.973" type="curve" smooth="yes"/>
      <point x="489.465" y="345.349"/>
      <point x="413.747" y="424.267"/>
      <point x="300.651" y="424.267" type="curve" smooth="yes"/>
      <point x="254.973" y="424.267"/>
      <point x="214.643" y="405.018"/>
      <point x="149.898" y="352.522" type="curve"/>
      <point x="190.259" y="610.543" type="line"/>
      <point x="460.846" y="610.543" type="line"/>
    </contour>
  </outline>
</glyph>
<glyph name="six" format="2">
  <advance width="551"/>
  <unicode hex="0036"/>
  <outline>
    <contour>
      <point x="465.735" y="631.141" type="line"/>
      <point x="422.202" y="670.079"/>
      <point x="391.241" y="680.78"/>
      <point x="333.15" y="680.78" type="curve" smooth="yes"/>
      <point x="160.336" y="680.78"/>
      <point x="60.5982" y="536.537"/>
      <point x="60.5982" y="287.391" type="curve" smooth="yes"/>
      <point x="60.5982" y="194.135"/>
      <point x="77.2996" y="125.319"/>
      <point x="110.192" y="74.9023" type="curve"/>
      <point x="148.893" y="19.3242"/>
      <point x="212.654" y="-13.7796"/>
      <point x="286.511" y="-13.7796" type="curve" smooth="yes"/>
      <point x="411.358" y="-13.7796"/>
      <point x="496.525" y="77.719"/>
      <point x="496.525" y="211.073" type="curve" smooth="yes"/>
      <point x="496.525" y="331.375"/>
      <point x="428.984" y="408.367"/>
      <point x="321.49" y="408.367" type="curve" smooth="yes"/>
      <point x="265.037" y="408.367"/>
      <point x="213.573" y="378.41"/>
      <point x="142.621" y="304.304" type="curve"/>
      <point x="152.388" y="434.532"/>
      <point x="164.7" y="492.659"/>
      <point x="188.422" y="534.45" type="curve" smooth="yes"/>
      <point x="221.778" y="595.206"/>
      <point x="273.588" y="628.562"/>
      <point x="334.21" y="628.562" type="curve" smooth="yes"/>
      <point x="376.334" y="628.562"/>
      <point x="404.561" y="616.513"/>
      <point x="428.303" y="585.985" type="curve"/>
    </contour>
    <contour>
      <point x="285.451" y="356.15" type="curve" smooth="yes"/>
      <point x="368.35" y="356.15"/>
      <point x="413.568" y="301.365"/>
      <point x="413.568" y="201.534" type="curve" smooth="yes"/>
      <point x="413.568" y="103.403"/>
      <point x="361.343" y="41.6177"/>
      <point x="278.031" y="41.6177" type="curve" smooth="yes"/>
      <point x="198.118" y="41.6177"/>
      <point x="145.675" y="103.462"/>
      <point x="145.675" y="200.474" type="curve" smooth="yes"/>
      <point x="145.675" y="296.555"/>
      <point x="198.864" y="356.15"/>
    </contour>
  </outline>
</glyph>
<glyph name="seven" format="2">
  <advance width="543"/>
  <unicode hex="0037"/>
  <outline>
    <contour>
      <point x="468" y="667" type="line"/>
      <point x="85" y="667" type="line"/>
      <point x="85" y="604" type="line"/>
      <point x="388" y="604" type="line"/>
      <point x="118" y="0" type="line"/>
      <point x="198" y="0" type="line"/>
      <point x="468" y="607" type="line"/>
    </contour>
  </outline>
</glyph>
<glyph name="eight" format="2">
  <advance width="543"/>
  <unicode hex="0038"/>
  <outline>
    <contour>
      <point x="178" y="372" type="curve"/>
      <point x="142" y="358"/>
      <point x="126" y="347"/>
      <point x="110" y="328" type="curve" smooth="yes"/>
      <point x="83" y="296"/>
      <point x="68" y="247"/>
      <point x="68" y="194" type="curve" smooth="yes"/>
      <point x="68" y="133"/>
      <point x="89" y="78"/>
      <point x="125" y="40" type="curve" smooth="yes"/>
      <point x="160" y="4"/>
      <point x="208" y="-13"/>
      <point x="271" y="-13" type="curve" smooth="yes"/>
      <point x="335" y="-13"/>
      <point x="383" y="4"/>
      <point x="418" y="40" type="curve" smooth="yes"/>
      <point x="454" y="78"/>
      <point x="475" y="133"/>
      <point x="475" y="194" type="curve" smooth="yes"/>
      <point x="475" y="247"/>
      <point x="460" y="296"/>
      <point x="433" y="328" type="curve" smooth="yes"/>
      <point x="417" y="347"/>
      <point x="401" y="358"/>
      <point x="366" y="372" type="curve"/>
      <point x="424" y="407"/>
      <point x="451" y="452" name="hr01"/>
      <point x="451" y="512" type="curve" smooth="yes"/>
      <point x="451" y="615"/>
      <point x="381" y="680"/>
      <point x="271" y="680" type="curve" smooth="yes"/>
      <point x="162" y="680"/>
      <point x="92" y="615"/>
      <point x="92" y="512" type="curve" smooth="yes"/>
      <point x="92" y="452"/>
      <point x="120" y="407"/>
    </contour>
    <contour>
      <point x="272" y="617" type="curve" smooth="yes"/>
      <point x="337" y="617"/>
      <point x="376" y="575"/>
      <point x="376" y="507" type="curve" smooth="yes"/>
      <point x="376" y="437"/>
      <point x="337" y="396"/>
      <point x="270" y="396" type="curve" smooth="yes"/>
      <point x="206" y="396"/>
      <point x="167" y="438"/>
      <point x="167" y="507" type="curve" smooth="yes"/>
      <point x="167" y="576"/>
      <point x="206" y="617"/>
    </contour>
    <contour>
      <point x="274" y="333" type="curve" smooth="yes"/>
      <point x="350" y="333"/>
      <point x="394" y="281"/>
      <point x="394" y="192" type="curve" smooth="yes"/>
      <point x="394" y="101" name="hr02"/>
      <point x="349" y="50"/>
      <point x="272" y="50" type="curve" smooth="yes"/>
      <point x="194" y="50"/>
      <point x="149" y="101"/>
      <point x="149" y="191" type="curve" smooth="yes"/>
      <point x="149" y="283"/>
      <point x="193" y="333"/>
    </contour>
  </outline>
</glyph>
<glyph name="nine" format="2">
  <advance width="543"/>
  <unicode hex="0039"/>
  <outline>
    <contour>
      <point x="76" y="8" type="line"/>
      <point x="107" y="-7"/>
      <point x="136" y="-13"/>
      <point x="180" y="-13" type="curve" smooth="yes"/>
      <point x="359" y="-13"/>
      <point x="466" y="136"/>
      <point x="466" y="383" type="curve" smooth="yes"/>
      <point x="466" y="587"/>
      <point x="404" y="680"/>
      <point x="269" y="680" type="curve" smooth="yes"/>
      <point x="143" y="680"/>
      <point x="63" y="591"/>
      <point x="63" y="451" type="curve" smooth="yes"/>
      <point x="63" y="395"/>
      <point x="77" y="348"/>
      <point x="106" y="310" type="curve" smooth="yes"/>
      <point x="138" y="267"/>
      <point x="181" y="247"/>
      <point x="241" y="247" type="curve" smooth="yes"/>
      <point x="300" y="247"/>
      <point x="342" y="268"/>
      <point x="387" y="318" type="curve"/>
      <point x="374" y="215"/>
      <point x="359" y="171"/>
      <point x="321" y="122" type="curve" smooth="yes"/>
      <point x="286" y="77"/>
      <point x="232" y="50"/>
      <point x="176" y="50" type="curve" smooth="yes"/>
      <point x="142" y="50"/>
      <point x="122" y="57"/>
      <point x="95" y="77" type="curve"/>
    </contour>
    <contour>
      <point x="267" y="617" type="curve" smooth="yes"/>
      <point x="305" y="617"/>
      <point x="337" y="602"/>
      <point x="354" y="577" type="curve" smooth="yes"/>
      <point x="371" y="551"/>
      <point x="383" y="505"/>
      <point x="383" y="460" type="curve" smooth="yes"/>
      <point x="383" y="369"/>
      <point x="334" y="310"/>
      <point x="258" y="310" type="curve" smooth="yes"/>
      <point x="184" y="310"/>
      <point x="147" y="361"/>
      <point x="147" y="461" type="curve" smooth="yes"/>
      <point x="147" y="562"/>
      <point x="189" y="617"/>
    </contour>
  </outline>
</glyph>
<glyph name="colon" format="2">
  <advance width="218"/>
  <unicode hex="003A"/>
  <outline>
    <contour>
      <point x="108.436" y="90.3763" type="curve" smooth="yes"/>
      <point x="79.3339" y="90.3763"/>
      <point x="56.3583" y="67.5324"/>
      <point x="56.3583" y="39.3583" type="curve" smooth="yes"/>
      <point x="56.3583" y="9.32384"/>
      <point x="79.3339" y="-13.7796"/>
      <point x="108.436" y="-13.7796" type="curve" smooth="yes"/>
      <point x="137.539" y="-13.7796"/>
      <point x="160.514" y="9.19596"/>
      <point x="160.514" y="38.2984" type="curve" smooth="yes"/>
      <point x="160.514" y="67.4007"/>
      <point x="137.539" y="90.3763"/>
    </contour>
    <contour>
      <point x="108.436" y="426.387" type="curve" smooth="yes"/>
      <point x="79.3339" y="426.387"/>
      <point x="56.3583" y="403.543"/>
      <point x="56.3583" y="375.369" type="curve" smooth="yes"/>
      <point x="56.3583" y="345.334"/>
      <point x="79.3339" y="322.231"/>
      <point x="108.436" y="322.231" type="curve" smooth="yes"/>
      <point x="137.539" y="322.231"/>
      <point x="160.514" y="345.206"/>
      <point x="160.514" y="374.309" type="curve" smooth="yes"/>
      <point x="160.514" y="403.411"/>
      <point x="137.539" y="426.387"/>
    </contour>
  </outline>
</glyph>
<glyph name="semicolon" format="2">
  <advance width="212"/>
  <unicode hex="003B"/>
  <outline>
    <contour>
      <point x="136.495" y="104.156" type="line"/>
      <point x="68.3778" y="104.156" type="line"/>
      <point x="68.3778" y="40.4183" type="line" smooth="yes"/>
      <point x="68.3778" y="14.8291"/>
      <point x="61.7152" y="-16.8296"/>
      <point x="43.956" y="-67.8875" type="curve" smooth="yes"/>
      <point x="16.7143" y="-146.499" type="line"/>
      <point x="42.1613" y="-144.857" type="line"/>
      <point x="136.495" y="5.88163" type="line"/>
    </contour>
    <contour>
      <point x="100.316" y="441.226" type="curve" smooth="yes"/>
      <point x="71.214" y="441.226"/>
      <point x="48.2384" y="418.383"/>
      <point x="48.2384" y="390.208" type="curve" smooth="yes"/>
      <point x="48.2384" y="360.174"/>
      <point x="71.214" y="337.07"/>
      <point x="100.316" y="337.07" type="curve" smooth="yes"/>
      <point x="129.419" y="337.07"/>
      <point x="152.394" y="360.046"/>
      <point x="152.394" y="389.148" type="curve" smooth="yes"/>
      <point x="152.394" y="418.251"/>
      <point x="129.419" y="441.226"/>
    </contour>
  </outline>
</glyph>
<glyph name="less" format="2">
  <advance width="510"/>
  <unicode hex="003C"/>
  <outline>
    <contour>
      <point x="18.0795" y="333.68" type="line"/>
      <point x="469.438" y="149.124" type="line"/>
      <point x="486.862" y="168.979" type="line"/>
      <point x="49.5653" y="341.45" type="line"/>
      <point x="490.263" y="515.262" type="line"/>
      <point x="479.028" y="532.115" type="line"/>
      <point x="18.0795" y="351.135" type="line"/>
    </contour>
  </outline>
</glyph>
<glyph name="equal" format="2">
  <advance width="563"/>
  <unicode hex="003D"/>
  <outline>
    <contour>
      <point x="30.7991" y="424.267" type="line"/>
      <point x="30.7991" y="403.849" type="line"/>
      <point x="532.444" y="403.849" type="line"/>
      <point x="532.444" y="424.267" type="line"/>
    </contour>
    <contour>
      <point x="30.7991" y="280.111" type="line"/>
      <point x="30.7991" y="258.633" type="line"/>
      <point x="532.444" y="258.633" type="line"/>
      <point x="532.444" y="280.111" type="line"/>
    </contour>
  </outline>
</glyph>
<glyph name="greater" format="2">
  <advance width="510"/>
  <unicode hex="003E"/>
  <outline>
    <contour>
      <point x="490.645" y="348.988" type="line"/>
      <point x="29.5645" y="529.019" type="line"/>
      <point x="18.6924" y="513.051" type="line"/>
      <point x="459.159" y="339.33" type="line"/>
      <point x="21.8626" y="166.859" type="line"/>
      <point x="39.2862" y="147.005" type="line"/>
      <point x="490.645" y="331.56" type="line"/>
    </contour>
  </outline>
</glyph>
<glyph name="question" format="2">
  <advance width="337"/>
  <unicode hex="003F"/>
  <outline>
    <contour>
      <point x="87" y="537" type="line"/>
      <point x="97" y="587"/>
      <point x="123" y="611"/>
      <point x="165" y="611" type="curve" smooth="yes"/>
      <point x="209" y="611"/>
      <point x="241" y="580"/>
      <point x="241" y="536" type="curve" smooth="yes"/>
      <point x="241" y="494"/>
      <point x="222" y="461"/>
      <point x="166" y="406" type="curve" smooth="yes"/>
      <point x="104" y="347"/>
      <point x="86" y="313"/>
      <point x="86" y="262" type="curve" smooth="yes"/>
      <point x="86" y="228"/>
      <point x="95" y="204"/>
      <point x="119" y="177" type="curve"/>
      <point x="194" y="177" type="line"/>
      <point x="169" y="207"/>
      <point x="157" y="238"/>
      <point x="157" y="270" type="curve" smooth="yes"/>
      <point x="157" y="296"/>
      <point x="170" y="321"/>
      <point x="198" y="351" type="curve" smooth="yes"/>
      <point x="264" y="423"/>
      <point x="264" y="423"/>
      <point x="278" y="444" type="curve" smooth="yes"/>
      <point x="298" y="472"/>
      <point x="310" y="512"/>
      <point x="310" y="544" type="curve" smooth="yes"/>
      <point x="310" y="583"/>
      <point x="294" y="621"/>
      <point x="267" y="646" type="curve" smooth="yes"/>
      <point x="243" y="669"/>
      <point x="214" y="680"/>
      <point x="173" y="680" type="curve" smooth="yes"/>
      <point x="95" y="680"/>
      <point x="47" y="645"/>
      <point x="20" y="569" type="curve"/>
    </contour>
    <contour>
      <point x="151" y="94" type="curve" smooth="yes"/>
      <point x="122" y="94"/>
      <point x="98" y="70" name="hr01"/>
      <point x="98" y="41" type="curve" smooth="yes"/>
      <point x="98" y="11"/>
      <point x="122" y="-13"/>
      <point x="152" y="-13" type="curve" smooth="yes"/>
      <point x="181" y="-13"/>
      <point x="205" y="11"/>
      <point x="205" y="41" type="curve" smooth="yes"/>
      <point x="205" y="70"/>
      <point x="181" y="94"/>
    </contour>
  </outline>
</glyph>
<glyph name="at" format="2">
  <advance width="735"/>
  <unicode hex="0040"/>
  <outline>
    <contour>
      <point x="507.112" y="476.205" type="line"/>
      <point x="488.361" y="389.271" type="line"/>
      <point x="450.196" y="451.29"/>
      <point x="405.701" y="487.865" name="hr01"/>
      <point x="371.189" y="487.865" type="curve" smooth="yes"/>
      <point x="284.246" y="487.865"/>
      <point x="206.754" y="397.628"/>
      <point x="206.754" y="295.871" type="curve" smooth="yes"/>
      <point x="206.754" y="216.257" name="hr02"/>
      <point x="257.691" y="157.936"/>
      <point x="327.73" y="157.936" type="curve" smooth="yes"/>
      <point x="372.345" y="157.936"/>
      <point x="429.087" y="197.853"/>
      <point x="477.558" y="263.431" type="curve"/>
      <point x="490.844" y="204.381"/>
      <point x="519.536" y="167.475"/>
      <point x="549.264" y="167.475" type="curve" smooth="yes"/>
      <point x="632.002" y="167.475"/>
      <point x="706.279" y="273.656"/>
      <point x="706.279" y="394.448" type="curve" smooth="yes"/>
      <point x="706.279" y="561.847"/>
      <point x="576.711" y="679.72"/>
      <point x="391.328" y="679.72" type="curve" smooth="yes"/>
      <point x="192.485" y="679.72"/>
      <point x="30.7991" y="519.063"/>
      <point x="30.7991" y="320.25" type="curve" smooth="yes"/>
      <point x="30.7991" y="230.244"/>
      <point x="70.9762" y="136.275"/>
      <point x="132.54" y="76.2657" type="curve"/>
      <point x="196.332" y="19.558"/>
      <point x="281.353" y="-12.7196"/>
      <point x="387.088" y="-12.7196" type="curve" smooth="yes"/>
      <point x="452.039" y="-12.7196"/>
      <point x="515.466" y="-4.78632"/>
      <point x="571.765" y="10.769" type="curve"/>
      <point x="563.627" y="42.841" type="line"/>
      <point x="505.68" y="26.4144"/>
      <point x="449.505" y="17.2384"/>
      <point x="389.208" y="17.2384" type="curve" smooth="yes"/>
      <point x="285.814" y="17.2384"/>
      <point x="215.747" y="43.4819"/>
      <point x="157.555" y="102.815" type="curve" smooth="yes"/>
      <point x="105.242" y="157.403"/>
      <point x="74.5367" y="237.808"/>
      <point x="74.5367" y="320.25" type="curve" smooth="yes"/>
      <point x="74.5367" y="505.28"/>
      <point x="217.942" y="650.822"/>
      <point x="400.868" y="650.822" type="curve" smooth="yes"/>
      <point x="568.782" y="650.822"/>
      <point x="678.441" y="548.538"/>
      <point x="678.441" y="393.388" type="curve" smooth="yes"/>
      <point x="678.441" y="294.696"/>
      <point x="615.026" y="188.954"/>
      <point x="556.684" y="188.954" type="curve" smooth="yes"/>
      <point x="524.286" y="188.954"/>
      <point x="503.825" y="212.353"/>
      <point x="503.825" y="251.352" type="curve" smooth="yes"/>
      <point x="503.825" y="259.567"/>
      <point x="506.307" y="281.244"/>
      <point x="511.706" y="305.445" type="curve" smooth="yes"/>
      <point x="548.828" y="476.205" type="line"/>
    </contour>
    <contour>
      <point x="386.028" y="444.127" type="curve" smooth="yes"/>
      <point x="442.378" y="444.127"/>
      <point x="481.286" y="402.003"/>
      <point x="481.286" y="341.45" type="curve" smooth="yes"/>
      <point x="481.286" y="267.507"/>
      <point x="422.944" y="198.493"/>
      <point x="359.529" y="198.493" type="curve" smooth="yes"/>
      <point x="302.006" y="198.493"/>
      <point x="263.211" y="240.514"/>
      <point x="263.211" y="302.231" type="curve" smooth="yes"/>
      <point x="263.211" y="377.498"/>
      <point x="321.455" y="444.127"/>
    </contour>
  </outline>
</glyph>
<glyph name="A" format="2">
  <advance width="601"/>
  <unicode hex="0041"/>
  <outline>
    <contour>
      <point x="354.508" y="667" type="line"/>
      <point x="249.64" y="667" type="line"/>
      <point x="-8.35954" y="0" type="line"/>
      <point x="75.6414" y="0" type="line"/>
      <point x="144.539" y="189.735" type="line"/>
      <point x="441.802" y="189.735" type="line"/>
      <point x="510.7" y="0" type="line"/>
      <point x="601.508" y="0" type="line"/>
    </contour>
    <contour>
      <point x="424.375" y="243.012" type="line"/>
      <point x="164.84" y="243.012" type="line"/>
      <point x="296.646" y="600.382" type="line"/>
    </contour>
  </outline>
</glyph>
<glyph name="B" format="2">
  <advance width="579"/>
  <unicode hex="0042"/>
  <outline>
    <contour>
      <point x="85.0975" y="0" type="line"/>
      <point x="304.651" y="0" type="line" smooth="yes"/>
      <point x="362.754" y="0"/>
      <point x="413.598" y="11.9852"/>
      <point x="446.578" y="31.8753" type="curve"/>
      <point x="496.925" y="65.4849"/>
      <point x="528.444" y="125.428"/>
      <point x="528.444" y="190.934" type="curve" smooth="yes"/>
      <point x="528.444" y="300.219"/>
      <point x="464.056" y="327.106"/>
      <point x="373.769" y="360.702" type="curve"/>
      <point x="458.638" y="410.545"/>
      <point x="497.705" y="460.589"/>
      <point x="497.705" y="519.525" type="curve" smooth="yes"/>
      <point x="497.705" y="569.01"/>
      <point x="475.431" y="612.802"/>
      <point x="437.38" y="638.788" type="curve" smooth="yes"/>
      <point x="408.227" y="659.477"/>
      <point x="371.094" y="667"/>
      <point x="303.591" y="667" type="curve" smooth="yes"/>
      <point x="85.0975" y="667" type="line"/>
    </contour>
    <contour>
      <point x="170.174" y="375.508" type="line"/>
      <point x="170.174" y="609.483" type="line"/>
      <point x="262.252" y="609.483" type="line" smooth="yes"/>
      <point x="338.699" y="609.483"/>
      <point x="403.088" y="589.448"/>
      <point x="403.088" y="499.385" type="curve" smooth="yes"/>
      <point x="403.088" y="457.894"/>
      <point x="386.211" y="421.062"/>
      <point x="356.351" y="400.29" type="curve"/>
      <point x="356.794" y="400.607" type="line"/>
      <point x="332.95" y="383.038"/>
      <point x="297.536" y="375.508"/>
      <point x="241.052" y="375.508" type="curve" smooth="yes"/>
    </contour>
    <contour>
      <point x="170.174" y="57.5172" type="line"/>
      <point x="170.174" y="324.351" type="line"/>
      <point x="252.712" y="324.351" type="line" smooth="yes"/>
      <point x="307.485" y="324.351"/>
      <point x="331.439" y="321.929"/>
      <point x="353.238" y="313.451" type="curve"/>
      <point x="352.747" y="313.635" type="line"/>
      <point x="402.552" y="295.756"/>
      <point x="430.648" y="252.979"/>
      <point x="430.648" y="194.114" type="curve" smooth="yes"/>
      <point x="430.648" y="103.463"/>
      <point x="374.115" y="57.5172"/>
      <point x="262.252" y="57.5172" type="curve" smooth="yes"/>
    </contour>
  </outline>
</glyph>
<glyph name="C" format="2">
  <advance width="637"/>
  <unicode hex="0043"/>
  <outline>
    <contour>
      <point x="627" y="573" type="line"/>
      <point x="592" y="615"/>
      <point x="571" y="632"/>
      <point x="535" y="649" type="curve" smooth="yes"/>
      <point x="493" y="669"/>
      <point x="440" y="680"/>
      <point x="386" y="680" type="curve" smooth="yes"/>
      <point x="183" y="680"/>
      <point x="50" y="540"/>
      <point x="50" y="327" type="curve" smooth="yes"/>
      <point x="50" y="213"/>
      <point x="91" y="111"/>
      <point x="159" y="56" type="curve" smooth="yes"/>
      <point x="213" y="13"/>
      <point x="299" y="-13"/>
      <point x="385" y="-13" type="curve" smooth="yes"/>
      <point x="441" y="-13"/>
      <point x="493" y="-2"/>
      <point x="535" y="18" type="curve" smooth="yes"/>
      <point x="572" y="36"/>
      <point x="592" y="52"/>
      <point x="627" y="94" type="curve"/>
      <point x="569" y="150" type="line"/>
      <point x="549" y="115"/>
      <point x="537" y="100"/>
      <point x="515" y="85" type="curve" smooth="yes"/>
      <point x="483" y="63"/>
      <point x="435" y="50"/>
      <point x="387" y="50" type="curve" smooth="yes"/>
      <point x="315" y="50"/>
      <point x="242" y="79"/>
      <point x="201" y="124" type="curve" smooth="yes"/>
      <point x="161" y="167"/>
      <point x="137" y="244"/>
      <point x="137" y="328" type="curve" smooth="yes"/>
      <point x="137" y="504"/>
      <point x="234" y="617"/>
      <point x="387" y="617" type="curve" smooth="yes"/>
      <point x="474" y="617"/>
      <point x="530" y="586"/>
      <point x="569" y="518" type="curve"/>
    </contour>
  </outline>
</glyph>
<glyph name="D" format="2">
  <advance width="692"/>
  <unicode hex="0044"/>
  <outline>
    <contour>
      <point x="85.0975" y="667" type="line"/>
      <point x="85.0975" y="0" type="line"/>
      <point x="316.31" y="0" type="line" smooth="yes"/>
      <point x="534.64" y="0"/>
      <point x="646.1" y="126.268"/>
      <point x="646.1" y="347.81" type="curve" smooth="yes"/>
      <point x="646.1" y="467.426"/>
      <point x="608.568" y="559.404"/>
      <point x="537.453" y="612.74" type="curve" smooth="yes"/>
      <point x="488.126" y="650.229"/>
      <point x="421.857" y="667"/>
      <point x="320.55" y="667" type="curve" smooth="yes"/>
    </contour>
    <contour>
      <point x="172.294" y="607.363" type="line"/>
      <point x="302.531" y="607.363" type="line" smooth="yes"/>
      <point x="386.968" y="607.363"/>
      <point x="420.119" y="600.257"/>
      <point x="459.199" y="573.02" type="curve" smooth="yes"/>
      <point x="517.677" y="532.086"/>
      <point x="550.424" y="448.762"/>
      <point x="550.424" y="343.57" type="curve" smooth="yes"/>
      <point x="550.424" y="242.438"/>
      <point x="521.568" y="159.729"/>
      <point x="468.474" y="112.406" type="curve"/>
      <point x="468.845" y="112.745" type="line"/>
      <point x="431.08" y="77.3398"/>
      <point x="374.47" y="59.6372"/>
      <point x="303.591" y="59.6372" type="curve" smooth="yes"/>
      <point x="172.294" y="59.6372" type="line"/>
    </contour>
  </outline>
</glyph>
<glyph name="E" format="2">
  <advance width="511"/>
  <unicode hex="0045"/>
  <outline>
    <contour>
      <point x="172.294" y="367.028" type="line"/>
      <point x="172.294" y="607.363" type="line"/>
      <point x="436.226" y="607.363" type="line"/>
      <point x="436.226" y="667" type="line"/>
      <point x="85.0975" y="667" type="line"/>
      <point x="85.0975" y="0" type="line"/>
      <point x="475.445" y="0" type="line"/>
      <point x="475.445" y="59.6372" type="line"/>
      <point x="172.294" y="59.6372" type="line"/>
      <point x="172.294" y="310.571" type="line"/>
      <point x="436.226" y="310.571" type="line"/>
      <point x="436.226" y="367.028" type="line"/>
    </contour>
  </outline>
</glyph>
<glyph name="F" format="2">
  <advance width="453"/>
  <unicode hex="0046"/>
  <outline>
    <contour>
      <point x="172.294" y="359.609" type="line"/>
      <point x="172.294" y="607.363" type="line"/>
      <point x="431.987" y="607.363" type="line"/>
      <point x="431.987" y="667" type="line"/>
      <point x="85.0975" y="667" type="line"/>
      <point x="85.0975" y="0" type="line"/>
      <point x="172.294" y="0" type="line"/>
      <point x="172.294" y="303.151" type="line"/>
      <point x="415.027" y="303.151" type="line"/>
      <point x="415.027" y="359.609" type="line"/>
    </contour>
  </outline>
</glyph>
<glyph name="G" format="2">
  <advance width="682"/>
  <unicode hex="0047"/>
  <outline>
    <contour>
      <point x="373.229" y="317.21" type="line"/>
      <point x="373.229" y="258.633" type="line"/>
      <point x="540.705" y="258.633" type="line"/>
      <point x="540.705" y="68.747" type="line"/>
      <point x="487.194" y="49.538"/>
      <point x="451.204" y="42.6777"/>
      <point x="403.048" y="42.6777" type="curve" smooth="yes"/>
      <point x="225.282" y="42.6777"/>
      <point x="142.435" y="155.151"/>
      <point x="142.435" y="325.55" type="curve" smooth="yes"/>
      <point x="142.435" y="507.359"/>
      <point x="237.125" y="623.262"/>
      <point x="386.088" y="623.262" type="curve" smooth="yes"/>
      <point x="461.316" y="623.262"/>
      <point x="525.782" y="594.708"/>
      <point x="561.932" y="527.36" type="curve"/>
      <point x="631.104" y="567.479" type="line"/>
      <point x="570.502" y="655.642"/>
      <point x="499.648" y="682.9"/>
      <point x="391.388" y="682.9" type="curve" smooth="yes"/>
      <point x="176.961" y="682.9"/>
      <point x="45.6987" y="547.452"/>
      <point x="45.6987" y="328.73" type="curve" smooth="yes"/>
      <point x="45.6987" y="109.161"/>
      <point x="164.531" y="-14.8396"/>
      <point x="383.969" y="-14.8396" type="curve" smooth="yes"/>
      <point x="461.651" y="-14.8396"/>
      <point x="532.3" y="-4.20792"/>
      <point x="626.841" y="21.7175" type="curve"/>
      <point x="626.841" y="317.21" type="line"/>
    </contour>
  </outline>
</glyph>
<glyph name="H" format="2">
  <advance width="693"/>
  <unicode hex="0048"/>
  <outline>
    <contour>
      <point x="599" y="667" type="line"/>
      <point x="519" y="667" type="line"/>
      <point x="519" y="370" type="line"/>
      <point x="173" y="370" type="line"/>
      <point x="173" y="667" type="line"/>
      <point x="93" y="667" type="line"/>
      <point x="93" y="0" type="line"/>
      <point x="173" y="0" type="line"/>
      <point x="173" y="307" type="line"/>
      <point x="519" y="307" type="line"/>
      <point x="519" y="0" type="line"/>
      <point x="599" y="0" type="line"/>
    </contour>
  </outline>
</glyph>
<glyph name="I" format="2">
  <advance width="267"/>
  <unicode hex="0049"/>
  <outline>
    <contour>
      <point x="173" y="667" type="line"/>
      <point x="93" y="667" type="line"/>
      <point x="93" y="0" type="line"/>
      <point x="173" y="0" type="line"/>
    </contour>
  </outline>
</glyph>
<glyph name="J" format="2">
  <advance width="368"/>
  <unicode hex="004A"/>
  <outline>
    <contour>
      <point x="282" y="667" type="line"/>
      <point x="202" y="667" type="line"/>
      <point x="202" y="200" type="line" smooth="yes"/>
      <point x="202" y="148"/>
      <point x="199" y="125"/>
      <point x="191" y="104" type="curve" smooth="yes"/>
      <point x="178" y="72"/>
      <point x="149" y="54"/>
      <point x="109" y="54" type="curve" smooth="yes"/>
      <point x="63" y="54"/>
      <point x="36" y="72"/>
      <point x="14" y="117" type="curve"/>
      <point x="-45" y="72" type="line"/>
      <point x="-25" y="41"/>
      <point x="-13" y="28"/>
      <point x="5" y="15" type="curve" smooth="yes"/>
      <point x="31" y="-2"/>
      <point x="73" y="-13"/>
      <point x="112" y="-13" type="curve" smooth="yes"/>
      <point x="169" y="-13"/>
      <point x="219" y="11"/>
      <point x="250" y="53" type="curve" smooth="yes"/>
      <point x="275" y="86"/>
      <point x="282" y="121"/>
      <point x="282" y="201" type="curve" smooth="yes"/>
    </contour>
  </outline>
</glyph>
<glyph name="K" format="2">
  <advance width="571"/>
  <unicode hex="004B"/>
  <outline>
    <contour>
      <point x="171.234" y="667" type="line"/>
      <point x="85.0975" y="667" type="line"/>
      <point x="85.0975" y="0" type="line"/>
      <point x="171.234" y="0" type="line"/>
      <point x="171.234" y="364.842" type="line"/>
      <point x="483.454" y="0" type="line"/>
      <point x="597.362" y="0" type="line"/>
      <point x="292.036" y="358.556" type="line"/>
      <point x="560.681" y="667" type="line"/>
      <point x="468.52" y="667" type="line"/>
      <point x="171.234" y="325.062" type="line"/>
    </contour>
  </outline>
</glyph>
<glyph name="L" format="2">
  <advance width="449"/>
  <unicode hex="004C"/>
  <outline>
    <contour>
      <point x="172.294" y="667" type="line"/>
      <point x="85.0975" y="667" type="line"/>
      <point x="85.0975" y="0" type="line"/>
      <point x="446.826" y="0" type="line"/>
      <point x="446.826" y="59.6372" type="line"/>
      <point x="172.294" y="59.6372" type="line"/>
    </contour>
  </outline>
</glyph>
<glyph name="M" format="2">
  <advance width="894"/>
  <unicode hex="004D"/>
  <outline>
    <contour>
      <point x="808.276" y="667" type="line"/>
      <point x="692.824" y="667" type="line"/>
      <point x="446.645" y="118.693" type="line"/>
      <point x="201.585" y="667" type="line"/>
      <point x="85.0975" y="667" type="line"/>
      <point x="85.0975" y="0" type="line"/>
      <point x="168.054" y="0" type="line"/>
      <point x="168.054" y="477.652" type="line"/>
      <point x="203.251" y="484.943" type="line"/>
      <point x="413.184" y="0" type="line"/>
      <point x="481.224" y="0" type="line"/>
      <point x="690.081" y="484.885" type="line"/>
      <point x="725.319" y="477.618" type="line"/>
      <point x="725.319" y="0" type="line"/>
      <point x="808.276" y="0" type="line"/>
    </contour>
  </outline>
</glyph>
<glyph name="N" format="2">
  <advance width="747"/>
  <unicode hex="004E"/>
  <outline>
    <contour>
      <point x="662" y="667" type="line"/>
      <point x="576.924" y="667" type="line"/>
      <point x="576.924" y="116.698" type="line"/>
      <point x="176.808" y="667" type="line"/>
      <point x="85.0975" y="667" type="line"/>
      <point x="85.0975" y="0" type="line"/>
      <point x="170.174" y="0" type="line"/>
      <point x="170.174" y="546.076" type="line"/>
      <point x="567.111" y="0" type="line"/>
      <point x="662" y="0" type="line"/>
    </contour>
  </outline>
</glyph>
<glyph name="O" format="2">
  <advance width="734"/>
  <unicode hex="004F"/>
  <outline>
    <contour>
      <point x="367" y="680" type="curve" smooth="yes"/>
      <point x="277" y="680"/>
      <point x="202" y="653"/>
      <point x="146" y="600" type="curve" smooth="yes"/>
      <point x="83" y="541"/>
      <point x="50" y="452"/>
      <point x="50" y="339" type="curve" smooth="yes"/>
      <point x="50" y="214"/>
      <point x="80" y="130"/>
      <point x="146" y="67" type="curve" smooth="yes"/>
      <point x="201" y="14"/>
      <point x="276" y="-13"/>
      <point x="368" y="-13" type="curve" smooth="yes"/>
      <point x="457" y="-13"/>
      <point x="533" y="15"/>
      <point x="588" y="67" type="curve" smooth="yes"/>
      <point x="653" y="129"/>
      <point x="684" y="216"/>
      <point x="684" y="334" type="curve" smooth="yes"/>
      <point x="684" y="452"/>
      <point x="653" y="539"/>
      <point x="588" y="600" type="curve" smooth="yes"/>
      <point x="532" y="653"/>
      <point x="458" y="680"/>
    </contour>
    <contour>
      <point x="367" y="617" type="curve" smooth="yes"/>
      <point x="510" y="617"/>
      <point x="597" y="510"/>
      <point x="597" y="334" type="curve" smooth="yes"/>
      <point x="597" y="157"/>
      <point x="510" y="50"/>
      <point x="367" y="50" type="curve" smooth="yes"/>
      <point x="222" y="50"/>
      <point x="137" y="156"/>
      <point x="137" y="338" type="curve" smooth="yes"/>
      <point x="137" y="510"/>
      <point x="225" y="617"/>
    </contour>
  </outline>
</glyph>
<glyph name="P" format="2">
  <advance width="518"/>
  <unicode hex="0050"/>
  <outline>
    <contour>
      <point x="85.0975" y="0" type="line"/>
      <point x="172.294" y="0" type="line"/>
      <point x="172.294" y="290.432" type="line"/>
      <point x="248.472" y="290.432" type="line" smooth="yes"/>
      <point x="379.576" y="290.432"/>
      <point x="501.945" y="337.124"/>
      <point x="501.945" y="490.906" type="curve" smooth="yes"/>
      <point x="501.945" y="551.255"/>
      <point x="479.329" y="601.744"/>
      <point x="437.867" y="632.841" type="curve" smooth="yes"/>
      <point x="403.708" y="658.46"/>
      <point x="367.44" y="667"/>
      <point x="289.811" y="667" type="curve" smooth="yes"/>
      <point x="85.0975" y="667" type="line"/>
    </contour>
    <contour>
      <point x="172.294" y="351.129" type="line"/>
      <point x="172.294" y="607.363" type="line"/>
      <point x="261.192" y="607.363" type="line" smooth="yes"/>
      <point x="309.062" y="607.26"/>
      <point x="332.806" y="603.078"/>
      <point x="353.898" y="590.887" type="curve" smooth="yes"/>
      <point x="387.024" y="571.088"/>
      <point x="407.328" y="531.56"/>
      <point x="407.328" y="483.486" type="curve" smooth="yes"/>
      <point x="407.328" y="393.583"/>
      <point x="355.234" y="351.129"/>
      <point x="247.412" y="351.129" type="curve" smooth="yes"/>
    </contour>
  </outline>
</glyph>
<glyph name="Q" format="2">
  <advance width="739"/>
  <unicode hex="0051"/>
  <outline>
    <contour>
      <point x="858.523" y="-123.23" type="line"/>
      <point x="454.434" y="-16.3636" type="line"/>
      <point x="550.823" y="26.6671"/>
      <point x="588.527" y="48.6701"/>
      <point x="615.906" y="74.8659" type="curve" smooth="yes"/>
      <point x="673.037" y="132.464"/>
      <point x="704.219" y="221.238"/>
      <point x="704.219" y="334.03" type="curve" smooth="yes"/>
      <point x="704.219" y="544.459"/>
      <point x="593.645" y="682.9"/>
      <point x="376.549" y="682.9" type="curve" smooth="yes"/>
      <point x="157.292" y="682.9"/>
      <point x="45.6987" y="546.713"/>
      <point x="45.6987" y="334.03" type="curve" smooth="yes"/>
      <point x="45.6987" y="138.382"/>
      <point x="135.098" y="23.9837"/>
      <point x="313.898" y="-10.169" type="curve"/>
      <point x="797.977" y="-178.454" type="line"/>
    </contour>
    <contour>
      <point x="374.429" y="623.262" type="curve" smooth="yes"/>
      <point x="516.006" y="623.262"/>
      <point x="605.363" y="511.669"/>
      <point x="605.363" y="334.03" type="curve" smooth="yes"/>
      <point x="605.363" y="156.391"/>
      <point x="517.167" y="44.7976"/>
      <point x="374.429" y="44.7976" type="curve" smooth="yes"/>
      <point x="230.53" y="44.7976"/>
      <point x="143.495" y="155.134"/>
      <point x="143.495" y="338.27" type="curve" smooth="yes"/>
      <point x="143.495" y="511.545"/>
      <point x="234.012" y="623.262"/>
    </contour>
  </outline>
</glyph>
<glyph name="R" format="2">
  <advance width="559"/>
  <unicode hex="0052"/>
  <outline>
    <contour>
      <point x="93" y="0" type="line"/>
      <point x="173" y="0" type="line"/>
      <point x="173" y="305" type="line"/>
      <point x="249" y="305" type="line"/>
      <point x="446" y="0" type="line"/>
      <point x="543" y="0" type="line"/>
      <point x="334" y="315" type="line"/>
      <point x="372" y="329"/>
      <point x="390" y="339"/>
      <point x="412" y="359" type="curve" smooth="yes"/>
      <point x="448" y="394"/>
      <point x="470" y="447"/>
      <point x="470" y="501" type="curve" smooth="yes"/>
      <point x="470" y="570"/>
      <point x="437" y="627"/>
      <point x="383" y="650" type="curve" smooth="yes"/>
      <point x="355" y="662"/>
      <point x="317" y="667"/>
      <point x="249" y="667" type="curve" smooth="yes"/>
      <point x="93" y="667" type="line"/>
    </contour>
    <contour>
      <point x="173" y="368" type="line"/>
      <point x="173" y="604" type="line"/>
      <point x="231" y="604" type="line" smooth="yes"/>
      <point x="305" y="604"/>
      <point x="306" y="604"/>
      <point x="323" y="598" type="curve" smooth="yes"/>
      <point x="362" y="586"/>
      <point x="383" y="552"/>
      <point x="383" y="500" type="curve" smooth="yes"/>
      <point x="383" y="450"/>
      <point x="365" y="410"/>
      <point x="333" y="389" type="curve" smooth="yes"/>
      <point x="307" y="372"/>
      <point x="286" y="368"/>
      <point x="233" y="368" type="curve" smooth="yes"/>
    </contour>
  </outline>
</glyph>
<glyph name="S" format="2">
  <advance width="471"/>
  <unicode hex="0053"/>
  <outline>
    <contour>
      <point x="411" y="592" type="line"/>
      <point x="371" y="652"/>
      <point x="320" y="680"/>
      <point x="246" y="680" type="curve" smooth="yes"/>
      <point x="141" y="680"/>
      <point x="61" y="605"/>
      <point x="61" y="505" type="curve" smooth="yes"/>
      <point x="61" y="466"/>
      <point x="75" y="427"/>
      <point x="99" y="398" type="curve" smooth="yes"/>
      <point x="121" y="372"/>
      <point x="157" y="346"/>
      <point x="217" y="311" type="curve" smooth="yes"/>
      <point x="281" y="274"/>
      <point x="281" y="274"/>
      <point x="301" y="256" type="curve" smooth="yes"/>
      <point x="327" y="234"/>
      <point x="339" y="206"/>
      <point x="339" y="171" type="curve" smooth="yes"/>
      <point x="339" y="99"/>
      <point x="290" y="50"/>
      <point x="218" y="50" type="curve" smooth="yes"/>
      <point x="157" y="50"/>
      <point x="108" y="87"/>
      <point x="84" y="151" type="curve"/>
      <point x="28" y="86" type="line"/>
      <point x="71" y="19"/>
      <point x="130" y="-13"/>
      <point x="215" y="-13" type="curve" smooth="yes"/>
      <point x="339" y="-13"/>
      <point x="423" y="66"/>
      <point x="423" y="182" type="curve" smooth="yes"/>
      <point x="423" y="229"/>
      <point x="407" y="270"/>
      <point x="377" y="299" type="curve" smooth="yes"/>
      <point x="352" y="324"/>
      <point x="326" y="342"/>
      <point x="258" y="381" type="curve" smooth="yes"/>
      <point x="165" y="434"/>
      <point x="142" y="461"/>
      <point x="142" y="515" type="curve" smooth="yes"/>
      <point x="142" y="574"/>
      <point x="184" y="617"/>
      <point x="243" y="617" type="curve" smooth="yes"/>
      <point x="296" y="617"/>
      <point x="329" y="593"/>
      <point x="355" y="536" type="curve"/>
    </contour>
  </outline>
</glyph>
<glyph name="T" format="2">
  <advance width="456"/>
  <unicode hex="0054"/>
  <outline>
    <contour>
      <point x="270.511" y="608.423" type="line"/>
      <point x="470.846" y="608.423" type="line"/>
      <point x="470.846" y="667" type="line"/>
      <point x="-14.8996" y="667" type="line"/>
      <point x="-14.8996" y="608.423" type="line"/>
      <point x="183.315" y="608.423" type="line"/>
      <point x="183.315" y="0" type="line"/>
      <point x="270.511" y="0" type="line"/>
    </contour>
  </outline>
</glyph>
<glyph name="U" format="2">
  <advance width="684"/>
  <unicode hex="0055"/>
  <outline>
    <contour>
      <point x="87" y="667" type="line"/>
      <point x="87" y="272" type="line" smooth="yes"/>
      <point x="87" y="178"/>
      <point x="93" y="141"/>
      <point x="113" y="101" type="curve" smooth="yes"/>
      <point x="150" y="27"/>
      <point x="231" y="-13"/>
      <point x="342" y="-13" type="curve" smooth="yes"/>
      <point x="447" y="-13"/>
      <point x="525" y="22"/>
      <point x="565" y="88" type="curve" smooth="yes"/>
      <point x="591" y="130"/>
      <point x="598" y="171"/>
      <point x="598" y="272" type="curve" smooth="yes"/>
      <point x="598" y="667" type="line"/>
      <point x="518" y="667" type="line"/>
      <point x="518" y="269" type="line" smooth="yes"/>
      <point x="518" y="184"/>
      <point x="514" y="157"/>
      <point x="497" y="127" type="curve" smooth="yes"/>
      <point x="471" y="79"/>
      <point x="412" y="50"/>
      <point x="342" y="50" type="curve" smooth="yes"/>
      <point x="278" y="50"/>
      <point x="222" y="75"/>
      <point x="194" y="117" type="curve" smooth="yes"/>
      <point x="172" y="149"/>
      <point x="167" y="176"/>
      <point x="167" y="269" type="curve" smooth="yes"/>
      <point x="167" y="667" type="line"/>
    </contour>
  </outline>
</glyph>
<glyph name="V" format="2">
  <advance width="578"/>
  <unicode hex="0056"/>
  <outline>
    <contour>
      <point x="83" y="667" type="line"/>
      <point x="-3" y="667" type="line"/>
      <point x="253" y="0" type="line"/>
      <point x="308" y="0" type="line"/>
      <point x="595" y="667" type="line"/>
      <point x="517" y="667" type="line"/>
      <point x="288" y="134" type="line"/>
    </contour>
  </outline>
</glyph>
<glyph name="W" format="2">
  <advance width="898"/>
  <unicode hex="0057"/>
  <outline>
    <contour>
      <point x="80" y="667" type="line"/>
      <point x="3" y="667" type="line"/>
      <point x="201" y="0" type="line"/>
      <point x="264" y="0" type="line"/>
      <point x="442" y="525" type="line"/>
      <point x="596" y="0" type="line"/>
      <point x="660" y="0" type="line"/>
      <point x="891" y="667" type="line"/>
      <point x="820" y="667" type="line"/>
      <point x="634" y="129" type="line"/>
      <point x="475" y="667" type="line"/>
      <point x="421" y="667" type="line"/>
      <point x="238" y="129" type="line"/>
    </contour>
  </outline>
</glyph>
<glyph name="X" format="2">
  <advance width="527"/>
  <unicode hex="0058"/>
  <outline>
    <contour>
      <point x="415.25" y="667" type="line"/>
      <point x="268.544" y="418.286" type="line"/>
      <point x="114.96" y="667" type="line"/>
      <point x="10.5418" y="667" type="line"/>
      <point x="211.134" y="344.656" type="line"/>
      <point x="-2.27266" y="0" type="line"/>
      <point x="94.628" y="0" type="line"/>
      <point x="258.552" y="274.346" type="line"/>
      <point x="423.615" y="0" type="line"/>
      <point x="530.092" y="0" type="line"/>
      <point x="311.406" y="353.107" type="line"/>
      <point x="505.721" y="667" type="line"/>
    </contour>
  </outline>
</glyph>
<glyph name="Y" format="2">
  <advance width="479"/>
  <unicode hex="0059"/>
  <outline>
    <contour>
      <point x="417" y="667" type="line"/>
      <point x="243" y="376" type="line"/>
      <point x="66" y="667" type="line"/>
      <point x="-27" y="667" type="line"/>
      <point x="199" y="296" type="line"/>
      <point x="199" y="0" type="line"/>
      <point x="279" y="0" type="line"/>
      <point x="279" y="296" type="line"/>
      <point x="502" y="667" type="line"/>
    </contour>
  </outline>
</glyph>
<glyph name="Z" format="2">
  <advance width="491"/>
  <unicode hex="005A"/>
  <outline>
    <contour>
      <point x="37" y="667" type="line"/>
      <point x="37" y="604" type="line"/>
      <point x="377" y="604" type="line"/>
      <point x="0" y="65" type="line"/>
      <point x="0" y="0" type="line"/>
      <point x="504" y="0" type="line"/>
      <point x="504" y="65" type="line"/>
      <point x="89" y="65" type="line"/>
      <point x="466" y="601" type="line"/>
      <point x="466" y="667" type="line"/>
    </contour>
  </outline>
</glyph>
<glyph name="bracketleft" format="2">
  <advance width="259"/>
  <unicode hex="005B"/>
  <outline>
    <contour>
      <point x="124.535" y="-208.868" type="line"/>
      <point x="124.535" y="677.28" type="line"/>
      <point x="226.292" y="688.94" type="line"/>
      <point x="226.292" y="701.979" type="line"/>
      <point x="71.2579" y="701.979" type="line"/>
      <point x="71.2579" y="-231.073" type="line"/>
      <point x="226.292" y="-231.073" type="line"/>
      <point x="226.292" y="-218.408" type="line"/>
    </contour>
  </outline>
</glyph>
<glyph name="backslash" format="2">
  <advance width="395"/>
  <unicode hex="005C"/>
  <outline>
    <contour>
      <point x="-7" y="701" type="line"/>
      <point x="363" y="-230" type="line"/>
      <point x="402" y="-223" type="line"/>
      <point x="32" y="710" type="line"/>
    </contour>
  </outline>
</glyph>
<glyph name="bracketright" format="2">
  <advance width="259"/>
  <unicode hex="005D"/>
  <outline>
    <contour>
      <point x="134.676" y="-206.374" type="line"/>
      <point x="32.919" y="-218.034" type="line" name="hr01"/>
      <point x="32.919" y="-231.073" type="line"/>
      <point x="187.954" y="-231.073" type="line"/>
      <point x="187.954" y="701.979" type="line"/>
      <point x="32.919" y="701.979" type="line"/>
      <point x="32.919" y="689.313" type="line"/>
      <point x="134.676" y="679.773" type="line"/>
    </contour>
  </outline>
</glyph>
<glyph name="asciicircum" format="2">
  <advance width="400"/>
  <unicode hex="005E"/>
  <outline>
    <contour>
      <point x="70.1869" y="464.772" type="line"/>
      <point x="197.773" y="678.935" type="line"/>
      <point x="330.002" y="464.633" type="line"/>
      <point x="350.631" y="470.786" type="line"/>
      <point x="208.159" y="699.859" type="line"/>
      <point x="184.101" y="699.859" type="line"/>
      <point x="50.0651" y="470.88" type="line"/>
    </contour>
  </outline>
</glyph>
<glyph name="underscore" format="2">
  <advance width="543"/>
  <unicode hex="005F"/>
  <outline>
    <contour>
      <point x="0" y="-65" type="line"/>
      <point x="0" y="-108" type="line"/>
      <point x="543" y="-108" type="line"/>
      <point x="543" y="-65" type="line"/>
    </contour>
  </outline>
</glyph>
<glyph name="grave" format="2">
  <advance width="500"/>
  <unicode hex="0060"/>
  <outline>
    <contour>
      <point x="161" y="700" type="line"/>
      <point x="82" y="684" type="line"/>
      <point x="264" y="532" type="line"/>
      <point x="298" y="538" type="line"/>
    </contour>
  </outline>
</glyph>
<glyph name="a" format="2">
  <advance width="563"/>
  <unicode hex="0061"/>
  <outline>
    <contour>
      <point x="494.018" y="448" type="line"/>
      <point x="413.107" y="448" type="line"/>
      <point x="413.107" y="355.113" type="line"/>
      <point x="345.346" y="434.168"/>
      <point x="306.531" y="459.982"/>
      <point x="251.5" y="459.982" type="curve" smooth="yes"/>
      <point x="125.256" y="459.982"/>
      <point x="42.75" y="366.56"/>
      <point x="42.75" y="222.911" type="curve" smooth="yes"/>
      <point x="42.75" y="101.923"/>
      <point x="107.182" y="-11.9821"/>
      <point x="240.607" y="-11.9821" type="curve" smooth="yes"/>
      <point x="297.649" y="-11.9821"/>
      <point x="349.623" y="18.1726"/>
      <point x="413.107" y="86.4177" type="curve"/>
      <point x="413.107" y="0" type="line" name="hr01"/>
      <point x="494.018" y="0" type="line"/>
    </contour>
    <contour>
      <point x="274.375" y="406.304" type="curve" smooth="yes"/>
      <point x="360.589" y="406.304"/>
      <point x="416.375" y="334.116"/>
      <point x="416.375" y="224" type="curve" smooth="yes"/>
      <point x="416.375" y="112.66"/>
      <point x="360.589" y="41.6964"/>
      <point x="274.375" y="41.6964" type="curve" smooth="yes"/>
      <point x="186.893" y="41.6964"/>
      <point x="132.375" y="112.608"/>
      <point x="132.375" y="225.089" type="curve" smooth="yes"/>
      <point x="132.375" y="334.063"/>
      <point x="189.429" y="406.304"/>
    </contour>
  </outline>
</glyph>
<glyph name="b" format="2">
  <advance width="563"/>
  <unicode hex="0062"/>
  <outline>
    <contour>
      <point x="148.982" y="722.5" type="line"/>
      <point x="68.0714" y="722.5" type="line"/>
      <point x="68.0714" y="0" type="line"/>
      <point x="120.444" y="0" type="line"/>
      <point x="166.109" y="65.2364" type="line"/>
      <point x="221.808" y="10.8036"/>
      <point x="266.335" y="-11.9821" name="hr01"/>
      <point x="320.393" y="-11.9821" type="curve" smooth="yes"/>
      <point x="438.236" y="-11.9821"/>
      <point x="520.429" y="85.4929"/>
      <point x="520.429" y="226.179" type="curve" smooth="yes"/>
      <point x="520.429" y="296.505"/>
      <point x="500.65" y="355.971"/>
      <point x="464.655" y="396.784" type="curve"/>
      <point x="429.021" y="434.52"/>
      <point x="373.159" y="459.982"/>
      <point x="321.482" y="459.982" type="curve" smooth="yes"/>
      <point x="267.349" y="459.982"/>
      <point x="216.754" y="432.257"/>
      <point x="148.982" y="366.026" type="curve"/>
    </contour>
    <contour>
      <point x="288.804" y="406.304" type="curve" smooth="yes"/>
      <point x="375.018" y="406.304"/>
      <point x="430.804" y="335.34"/>
      <point x="430.804" y="224" type="curve" smooth="yes"/>
      <point x="430.804" y="113.884"/>
      <point x="375.018" y="41.6964"/>
      <point x="288.804" y="41.6964" type="curve" smooth="yes"/>
      <point x="201.43" y="41.6964"/>
      <point x="145.714" y="113.831"/>
      <point x="145.714" y="225.089" type="curve" smooth="yes"/>
      <point x="145.714" y="332.838"/>
      <point x="203.963" y="406.304"/>
    </contour>
  </outline>
</glyph>
<glyph name="c" format="2">
  <advance width="436"/>
  <unicode hex="0063"/>
  <outline>
    <contour>
      <point x="416" y="323" type="line"/>
      <point x="408" y="364"/>
      <point x="400" y="383"/>
      <point x="381" y="403" type="curve" smooth="yes"/>
      <point x="352" y="433"/>
      <point x="306" y="450"/>
      <point x="252" y="450" type="curve" smooth="yes"/>
      <point x="127" y="450"/>
      <point x="45" y="359"/>
      <point x="45" y="220" type="curve" smooth="yes"/>
      <point x="45" y="82"/>
      <point x="127" y="-10"/>
      <point x="251" y="-10" type="curve" smooth="yes"/>
      <point x="296" y="-10"/>
      <point x="335" y="2"/>
      <point x="366" y="26" type="curve" smooth="yes"/>
      <point x="391" y="45"/>
      <point x="403" y="64"/>
      <point x="419" y="109" type="curve"/>
      <point x="348" y="130" type="line" name="hr01"/>
      <point x="328" y="73"/>
      <point x="302" y="53"/>
      <point x="251" y="53" type="curve" smooth="yes"/>
      <point x="212" y="53"/>
      <point x="181" y="69"/>
      <point x="161" y="98" type="curve" smooth="yes"/>
      <point x="138" y="130"/>
      <point x="125" y="176"/>
      <point x="125" y="221" type="curve" smooth="yes"/>
      <point x="125" y="322"/>
      <point x="177" y="387"/>
      <point x="257" y="387" type="curve" smooth="yes"/>
      <point x="316" y="387"/>
      <point x="344" y="359"/>
      <point x="348" y="296" type="curve"/>
    </contour>
  </outline>
</glyph>
<glyph name="d" format="2">
  <advance width="563"/>
  <unicode hex="0064"/>
  <outline>
    <contour>
      <point x="494.018" y="722.5" type="line"/>
      <point x="413.107" y="722.5" type="line"/>
      <point x="413.107" y="363.694" type="line"/>
      <point x="350.52" y="431.096"/>
      <point x="300.894" y="459.982"/>
      <point x="246.054" y="459.982" type="curve" smooth="yes"/>
      <point x="110.287" y="459.982"/>
      <point x="42.75" y="347.032"/>
      <point x="42.75" y="222.911" type="curve" smooth="yes"/>
      <point x="42.75" y="100.71"/>
      <point x="107.478" y="-11.9821"/>
      <point x="241.696" y="-11.9821" type="curve" smooth="yes"/>
      <point x="295.819" y="-11.9821"/>
      <point x="345.569" y="15.6469"/>
      <point x="413.107" y="80.1148" type="curve"/>
      <point x="413.107" y="0" type="line" name="hr01"/>
      <point x="494.018" y="0" type="line"/>
    </contour>
    <contour>
      <point x="274.375" y="406.304" type="curve" smooth="yes"/>
      <point x="360.589" y="406.304"/>
      <point x="416.375" y="335.34"/>
      <point x="416.375" y="224" type="curve" smooth="yes"/>
      <point x="416.375" y="112.66"/>
      <point x="360.589" y="41.6964"/>
      <point x="274.375" y="41.6964" type="curve" smooth="yes"/>
      <point x="186.893" y="41.6964"/>
      <point x="132.375" y="112.608"/>
      <point x="132.375" y="225.089" type="curve" smooth="yes"/>
      <point x="132.375" y="334.063"/>
      <point x="189.429" y="406.304"/>
    </contour>
  </outline>
</glyph>
<glyph name="f" format="2">
  <advance width="290"/>
  <unicode hex="0066"/>
  <outline>
    <contour>
      <point x="291.232" y="448" type="line"/>
      <point x="164.875" y="448" type="line"/>
      <point x="164.875" y="525.732" type="line" smooth="yes"/>
      <point x="164.875" y="618.644"/>
      <point x="197.593" y="664.464"/>
      <point x="264.393" y="664.464" type="curve" smooth="yes"/>
      <point x="275.956" y="664.464"/>
      <point x="285.572" y="662.8"/>
      <point x="295.785" y="659.192" type="curve"/>
      <point x="309.828" y="711.699" type="line"/>
      <point x="283.126" y="719.593"/>
      <point x="265.234" y="722.5"/>
      <point x="240.429" y="722.5" type="curve" smooth="yes"/>
      <point x="135.153" y="722.5"/>
      <point x="83.9643" y="656.054"/>
      <point x="83.9643" y="519.196" type="curve" smooth="yes"/>
      <point x="83.9643" y="448" type="line"/>
      <point x="18.6071" y="448" type="line"/>
      <point x="18.6071" y="388.875" type="line"/>
      <point x="83.9643" y="388.875" type="line"/>
      <point x="83.9643" y="0" type="line"/>
      <point x="164.875" y="0" type="line"/>
      <point x="164.875" y="388.875" type="line"/>
      <point x="291.232" y="388.875" type="line"/>
    </contour>
  </outline>
</glyph>
<glyph name="g" format="2">
  <advance width="563"/>
  <unicode hex="0067"/>
  <outline>
    <contour>
      <point x="494.018" y="448" type="line"/>
      <point x="413.107" y="448" type="line"/>
      <point x="413.107" y="357.743" type="line"/>
      <point x="349.816" y="430.771"/>
      <point x="300.659" y="459.982"/>
      <point x="244.964" y="459.982" type="curve" smooth="yes"/>
      <point x="191.207" y="459.982"/>
      <point x="135.25" y="434.53"/>
      <point x="98.5974" y="395.773" type="curve"/>
      <point x="62.4998" y="353.906"/>
      <point x="42.75" y="295.36"/>
      <point x="42.75" y="222.911" type="curve" smooth="yes"/>
      <point x="42.75" y="101.923"/>
      <point x="107.182" y="-11.9821"/>
      <point x="240.607" y="-11.9821" type="curve" smooth="yes"/>
      <point x="295.67" y="-11.9821"/>
      <point x="346.099" y="16.0676"/>
      <point x="413.107" y="84.6337" type="curve"/>
      <point x="413.107" y="-6.92857" type="line" smooth="yes"/>
      <point x="413.107" y="-99.9935"/>
      <point x="378.809" y="-196.857"/>
      <point x="267.839" y="-196.857" type="curve" smooth="yes"/>
      <point x="205.964" y="-196.857"/>
      <point x="164.429" y="-167.109"/>
      <point x="140.458" y="-102.868" type="curve"/>
      <point x="67.8954" y="-135.592" type="line"/>
      <point x="107.334" y="-217.579"/>
      <point x="165.703" y="-248.357"/>
      <point x="258.036" y="-248.357" type="curve" smooth="yes"/>
      <point x="404.646" y="-248.357"/>
      <point x="494.018" y="-161.155"/>
      <point x="494.018" y="-17.8214" type="curve" smooth="yes"/>
    </contour>
    <contour>
      <point x="274.375" y="406.304" type="curve" smooth="yes"/>
      <point x="360.589" y="406.304"/>
      <point x="416.375" y="335.392"/>
      <point x="416.375" y="222.911" type="curve" smooth="yes"/>
      <point x="416.375" y="112.713"/>
      <point x="360.589" y="41.6964"/>
      <point x="274.375" y="41.6964" type="curve" smooth="yes"/>
      <point x="186.893" y="41.6964"/>
      <point x="132.375" y="112.608"/>
      <point x="132.375" y="225.089" type="curve" smooth="yes"/>
      <point x="132.375" y="334.063"/>
      <point x="189.429" y="406.304"/>
    </contour>
  </outline>
</glyph>
<glyph name="h" format="2">
  <advance width="545"/>
  <unicode hex="0068"/>
  <outline>
    <contour>
      <point x="148.982" y="722.5" type="line"/>
      <point x="68.0714" y="722.5" type="line"/>
      <point x="68.0714" y="0" type="line"/>
      <point x="148.982" y="0" type="line"/>
      <point x="148.982" y="254.5" type="line" smooth="yes"/>
      <point x="148.982" y="339.583"/>
      <point x="190.074" y="397.589"/>
      <point x="282.268" y="397.589" type="curve" smooth="yes"/>
      <point x="361.578" y="397.589"/>
      <point x="395.946" y="355.475"/>
      <point x="395.946" y="261.036" type="curve" smooth="yes"/>
      <point x="395.946" y="0" type="line"/>
      <point x="476.857" y="0" type="line"/>
      <point x="476.857" y="289.357" type="line" smooth="yes"/>
      <point x="476.857" y="346.662"/>
      <point x="470.249" y="379.28"/>
      <point x="451.368" y="403.825" type="curve"/>
      <point x="425.669" y="439.994"/>
      <point x="379.223" y="459.982"/>
      <point x="323.661" y="459.982" type="curve" smooth="yes"/>
      <point x="266.83" y="459.982"/>
      <point x="221.558" y="433.731"/>
      <point x="148.982" y="356.522" type="curve"/>
    </contour>
  </outline>
</glyph>
<glyph name="i" format="2">
  <advance width="221"/>
  <unicode hex="0069"/>
  <outline>
    <contour>
      <point x="150.982" y="448" type="line"/>
      <point x="70.0714" y="448" type="line"/>
      <point x="70.0714" y="0" type="line"/>
      <point x="150.982" y="0" type="line"/>
    </contour>
    <contour>
      <point x="106.714" y="696.357" type="curve" smooth="yes"/>
      <point x="77.6228" y="696.357"/>
      <point x="54.8214" y="673.556" name="hr01"/>
      <point x="54.8214" y="644.464" type="curve" smooth="yes"/>
      <point x="54.8214" y="614.415"/>
      <point x="77.754" y="591.482"/>
      <point x="107.804" y="591.482" type="curve" smooth="yes"/>
      <point x="136.895" y="591.482"/>
      <point x="159.696" y="614.415"/>
      <point x="159.696" y="644.464" type="curve" smooth="yes"/>
      <point x="159.696" y="673.556"/>
      <point x="136.764" y="696.357"/>
    </contour>
  </outline>
</glyph>
<glyph name="j" format="2">
  <advance width="227"/>
  <unicode hex="006A"/>
  <outline>
    <contour>
      <point x="150" y="440" type="line"/>
      <point x="77" y="440" type="line"/>
      <point x="77" y="-38" type="line" smooth="yes"/>
      <point x="77" y="-91"/>
      <point x="69" y="-122"/>
      <point x="52" y="-140" type="curve" smooth="yes"/>
      <point x="36" y="-157"/>
      <point x="9" y="-167"/>
      <point x="-20" y="-167" type="curve" smooth="yes"/>
      <point x="-30" y="-167"/>
      <point x="-38" y="-166"/>
      <point x="-54" y="-163" type="curve"/>
      <point x="-46" y="-216" type="line"/>
      <point x="-19" y="-219"/>
      <point x="-8" y="-220"/>
      <point x="2" y="-220" type="curve" smooth="yes"/>
      <point x="50" y="-220"/>
      <point x="91" y="-202"/>
      <point x="118" y="-170" type="curve" smooth="yes"/>
      <point x="142" y="-140"/>
      <point x="150" y="-108"/>
      <point x="150" y="-36" type="curve" smooth="yes"/>
    </contour>
    <contour>
      <point x="111" y="664" type="curve" smooth="yes"/>
      <point x="84" y="664"/>
      <point x="61" y="641" name="hr01"/>
      <point x="61" y="615" type="curve" smooth="yes"/>
      <point x="61" y="587"/>
      <point x="83" y="564"/>
      <point x="111" y="564" type="curve" smooth="yes"/>
      <point x="138" y="564"/>
      <point x="161" y="587"/>
      <point x="161" y="614" type="curve" smooth="yes"/>
      <point x="161" y="642"/>
      <point x="139" y="664"/>
    </contour>
  </outline>
</glyph>
<glyph name="k" format="2">
  <advance width="461"/>
  <unicode hex="006B"/>
  <outline>
    <contour>
      <point x="148.982" y="722.5" type="line"/>
      <point x="68.0714" y="722.5" type="line"/>
      <point x="68.0714" y="0" type="line"/>
      <point x="148.982" y="0" type="line"/>
      <point x="148.982" y="279.354" type="line"/>
      <point x="359.767" y="0" type="line"/>
      <point x="464.321" y="0" type="line"/>
      <point x="264.369" y="253.474" type="line"/>
      <point x="419.397" y="448" type="line"/>
      <point x="336.824" y="448" type="line"/>
      <point x="148.982" y="201.862" type="line"/>
    </contour>
  </outline>
</glyph>
<glyph name="l" format="2">
  <advance width="218"/>
  <unicode hex="006C"/>
  <outline>
    <contour>
      <point x="148.982" y="722.5" type="line"/>
      <point x="68.0714" y="722.5" type="line"/>
      <point x="68.0714" y="0" type="line"/>
      <point x="148.982" y="0" type="line"/>
    </contour>
  </outline>
</glyph>
<glyph name="m" format="2">
  <advance width="784"/>
  <unicode hex="006D"/>
  <outline>
    <contour>
      <point x="77" y="440" type="line"/>
      <point x="77" y="0" type="line"/>
      <point x="150" y="0" type="line"/>
      <point x="150" y="276" type="line" smooth="yes"/>
      <point x="150" y="343"/>
      <point x="194" y="387"/>
      <point x="262" y="387" type="curve" smooth="yes"/>
      <point x="328" y="387"/>
      <point x="358" y="354"/>
      <point x="358" y="281" type="curve" smooth="yes"/>
      <point x="358" y="0" type="line"/>
      <point x="431" y="0" type="line"/>
      <point x="431" y="276" type="line" smooth="yes"/>
      <point x="431" y="315"/>
      <point x="440" y="340"/>
      <point x="459" y="358" type="curve" smooth="yes"/>
      <point x="478" y="376"/>
      <point x="508" y="387"/>
      <point x="540" y="387" type="curve" smooth="yes"/>
      <point x="606" y="387"/>
      <point x="635" y="354"/>
      <point x="635" y="281" type="curve" smooth="yes"/>
      <point x="635" y="0" type="line"/>
      <point x="708" y="0" type="line"/>
      <point x="708" y="298" type="line" smooth="yes"/>
      <point x="708" y="393"/>
      <point x="650" y="450"/>
      <point x="556" y="450" type="curve" smooth="yes"/>
      <point x="496" y="450"/>
      <point x="454" y="431"/>
      <point x="410" y="383" type="curve"/>
      <point x="376" y="432"/>
      <point x="343" y="450"/>
      <point x="283" y="450" type="curve" smooth="yes"/>
      <point x="228" y="450"/>
      <point x="194" y="435"/>
      <point x="150" y="391" type="curve"/>
      <point x="150" y="440" type="line"/>
    </contour>
  </outline>
</glyph>
<glyph name="n" format="2">
  <advance width="545"/>
  <unicode hex="006E"/>
  <outline>
    <contour>
      <point x="148.982" y="448" type="line"/>
      <point x="68.0714" y="448" type="line"/>
      <point x="68.0714" y="0" type="line"/>
      <point x="148.982" y="0" type="line"/>
      <point x="148.982" y="254.5" type="line" smooth="yes"/>
      <point x="148.982" y="339.583"/>
      <point x="190.074" y="397.589"/>
      <point x="282.268" y="397.589" type="curve" smooth="yes"/>
      <point x="361.578" y="397.589"/>
      <point x="395.946" y="355.475"/>
      <point x="395.946" y="261.036" type="curve" smooth="yes"/>
      <point x="395.946" y="0" type="line"/>
      <point x="476.857" y="0" type="line"/>
      <point x="476.857" y="289.357" type="line" smooth="yes"/>
      <point x="476.857" y="346.662"/>
      <point x="470.249" y="379.28"/>
      <point x="451.368" y="403.825" type="curve"/>
      <point x="425.669" y="439.994"/>
      <point x="379.223" y="459.982"/>
      <point x="323.661" y="459.982" type="curve" smooth="yes"/>
      <point x="266.847" y="459.982"/>
      <point x="222.555" y="433.925"/>
      <point x="148.982" y="357.287" type="curve"/>
    </contour>
  </outline>
</glyph>
<glyph name="o" format="2">
  <advance width="547"/>
  <unicode hex="006F"/>
  <outline>
    <contour>
      <point x="274.375" y="459.982" type="curve" smooth="yes"/>
      <point x="128.983" y="459.982"/>
      <point x="42.75" y="372.65"/>
      <point x="42.75" y="225.089" type="curve" smooth="yes"/>
      <point x="42.75" y="72.3992"/>
      <point x="123.939" y="-11.9821"/>
      <point x="273.286" y="-11.9821" type="curve" smooth="yes"/>
      <point x="424.196" y="-11.9821"/>
      <point x="506" y="76.8773"/>
      <point x="506" y="226.179" type="curve" smooth="yes"/>
      <point x="506" y="374.689"/>
      <point x="421.773" y="459.982"/>
    </contour>
    <contour>
      <point x="274.375" y="406.304" type="curve" smooth="yes"/>
      <point x="360.589" y="406.304"/>
      <point x="416.375" y="334.116"/>
      <point x="416.375" y="224" type="curve" smooth="yes"/>
      <point x="416.375" y="113.884"/>
      <point x="360.589" y="41.6964"/>
      <point x="274.375" y="41.6964" type="curve" smooth="yes"/>
      <point x="186.893" y="41.6964"/>
      <point x="132.375" y="112.557"/>
      <point x="132.375" y="226.179" type="curve" smooth="yes"/>
      <point x="132.375" y="335.234"/>
      <point x="188.161" y="406.304"/>
    </contour>
  </outline>
</glyph>
<glyph name="p" format="2">
  <advance width="563"/>
  <unicode hex="0070"/>
  <outline>
    <contour>
      <point x="148.982" y="448" type="line"/>
      <point x="68.0714" y="448" type="line"/>
      <point x="68.0714" y="-237.464" type="line"/>
      <point x="148.982" y="-237.464" type="line"/>
      <point x="148.982" y="81.9744" type="line"/>
      <point x="216.754" y="15.7428"/>
      <point x="266.335" y="-11.9821"/>
      <point x="320.393" y="-11.9821" type="curve" smooth="yes"/>
      <point x="438.236" y="-11.9821"/>
      <point x="520.429" y="85.4929"/>
      <point x="520.429" y="226.179" type="curve" smooth="yes"/>
      <point x="520.429" y="364.655"/>
      <point x="439.226" y="459.982"/>
      <point x="320.393" y="459.982" type="curve" smooth="yes"/>
      <point x="264.545" y="459.982"/>
      <point x="215.448" y="431.497"/>
      <point x="148.982" y="358.701" type="curve"/>
    </contour>
    <contour>
      <point x="288.804" y="406.304" type="curve" smooth="yes"/>
      <point x="375.018" y="406.304"/>
      <point x="430.804" y="335.34"/>
      <point x="430.804" y="224" type="curve" smooth="yes"/>
      <point x="430.804" y="113.884"/>
      <point x="375.018" y="41.6964"/>
      <point x="288.804" y="41.6964" type="curve" smooth="yes"/>
      <point x="202.697" y="41.6964"/>
      <point x="145.714" y="113.831"/>
      <point x="145.714" y="225.089" type="curve" smooth="yes"/>
      <point x="145.714" y="332.838"/>
      <point x="203.963" y="406.304"/>
    </contour>
  </outline>
</glyph>
<glyph name="q" format="2">
  <advance width="563"/>
  <unicode hex="0071"/>
  <outline>
    <contour>
      <point x="413.107" y="-237.464" type="line"/>
      <point x="494.018" y="-237.464" type="line"/>
      <point x="494.018" y="448" type="line"/>
      <point x="444.299" y="448" type="line"/>
      <point x="394.478" y="383.757" type="line"/>
      <point x="344.931" y="437.114"/>
      <point x="301.873" y="459.982"/>
      <point x="246.054" y="459.982" type="curve" smooth="yes"/>
      <point x="110.287" y="459.982"/>
      <point x="42.75" y="347.032"/>
      <point x="42.75" y="222.911" type="curve" smooth="yes"/>
      <point x="42.75" y="100.71"/>
      <point x="107.478" y="-11.9821"/>
      <point x="241.696" y="-11.9821" type="curve" smooth="yes"/>
      <point x="295.819" y="-11.9821"/>
      <point x="345.569" y="15.6469"/>
      <point x="413.107" y="80.1148" type="curve"/>
    </contour>
    <contour>
      <point x="274.375" y="406.304" type="curve" smooth="yes"/>
      <point x="360.589" y="406.304"/>
      <point x="416.375" y="334.116"/>
      <point x="416.375" y="224" type="curve" smooth="yes"/>
      <point x="416.375" y="112.66"/>
      <point x="360.589" y="41.6964"/>
      <point x="274.375" y="41.6964" type="curve" smooth="yes"/>
      <point x="186.893" y="41.6964"/>
      <point x="132.375" y="112.608"/>
      <point x="132.375" y="225.089" type="curve" smooth="yes"/>
      <point x="132.375" y="334.063"/>
      <point x="189.429" y="406.304"/>
    </contour>
  </outline>
</glyph>
<glyph name="r" format="2">
  <advance width="356"/>
  <unicode hex="0072"/>
  <outline>
    <contour>
      <point x="68.0714" y="448" type="line"/>
      <point x="68.0714" y="0" type="line"/>
      <point x="148.982" y="0" type="line"/>
      <point x="148.982" y="219.643" type="line" smooth="yes"/>
      <point x="148.982" y="313.364"/>
      <point x="207.091" y="391.054"/>
      <point x="276.821" y="391.054" type="curve" smooth="yes"/>
      <point x="303.225" y="391.054"/>
      <point x="321.493" y="385.651"/>
      <point x="341.203" y="370.79" type="curve"/>
      <point x="369.751" y="438.082" type="line"/>
      <point x="343.89" y="455.588"/>
      <point x="328.285" y="459.982"/>
      <point x="304.054" y="459.982" type="curve" smooth="yes"/>
      <point x="256.998" y="459.982"/>
      <point x="213.291" y="424.306"/>
      <point x="146.804" y="331.873" type="curve"/>
      <point x="146.804" y="448" type="line"/>
    </contour>
  </outline>
</glyph>
<glyph name="s" format="2">
  <advance width="405"/>
  <unicode hex="0073"/>
  <outline>
    <contour>
      <point x="356" y="372" type="line"/>
      <point x="323" y="428"/>
      <point x="281" y="450"/>
      <point x="211" y="450" type="curve" smooth="yes"/>
      <point x="124" y="450"/>
      <point x="63" y="398"/>
      <point x="63" y="323" type="curve" smooth="yes"/>
      <point x="63" y="296"/>
      <point x="72" y="271"/>
      <point x="89" y="251" type="curve" smooth="yes"/>
      <point x="110" y="227"/>
      <point x="129" y="217"/>
      <point x="188" y="201" type="curve" smooth="yes"/>
      <point x="269" y="179"/>
      <point x="286" y="166"/>
      <point x="286" y="129" type="curve" smooth="yes"/>
      <point x="286" y="83"/>
      <point x="249" y="51"/>
      <point x="196" y="51" type="curve" smooth="yes"/>
      <point x="144" y="51"/>
      <point x="111" y="79"/>
      <point x="95" y="139" type="curve"/>
      <point x="25" y="109" type="line"/>
      <point x="58" y="25"/>
      <point x="106" y="-10"/>
      <point x="189" y="-10" type="curve" smooth="yes"/>
      <point x="290" y="-10"/>
      <point x="362" y="50"/>
      <point x="362" y="134" type="curve" smooth="yes"/>
      <point x="362" y="164"/>
      <point x="350" y="196"/>
      <point x="332" y="216" type="curve" smooth="yes"/>
      <point x="313" y="236"/>
      <point x="289" y="248"/>
      <point x="235" y="261" type="curve" smooth="yes"/>
      <point x="158" y="280"/>
      <point x="138" y="294"/>
      <point x="138" y="330" type="curve" smooth="yes"/>
      <point x="138" y="365"/>
      <point x="168" y="390"/>
      <point x="212" y="390" type="curve" smooth="yes"/>
      <point x="257" y="390"/>
      <point x="281" y="372"/>
      <point x="292" y="331" type="curve"/>
    </contour>
  </outline>
</glyph>
<glyph name="t" format="2">
  <advance width="317"/>
  <unicode hex="0074"/>
  <outline>
    <contour>
      <point x="169.232" y="605.953" type="line"/>
      <point x="88.3214" y="576.067" type="line"/>
      <point x="88.3214" y="448" type="line"/>
      <point x="13.1607" y="448" type="line"/>
      <point x="13.1607" y="389.964" type="line"/>
      <point x="88.3214" y="389.964" type="line"/>
      <point x="88.3214" y="178.25" type="line" smooth="yes"/>
      <point x="88.3214" y="73.2151"/>
      <point x="99.4262" y="-7.625"/>
      <point x="227.357" y="-7.625" type="curve" smooth="yes"/>
      <point x="245.852" y="-7.625"/>
      <point x="262.473" y="-5.88682"/>
      <point x="290.716" y="-0.73279" type="curve"/>
      <point x="300.344" y="52.8254" type="line"/>
      <point x="294.173" y="51.8714"/>
      <point x="288.927" y="51.5"/>
      <point x="282.911" y="51.5" type="curve" smooth="yes"/>
      <point x="187.508" y="51.5"/>
      <point x="169.232" y="103.616"/>
      <point x="169.232" y="190.232" type="curve" smooth="yes"/>
      <point x="169.232" y="389.964" type="line"/>
      <point x="294.5" y="389.964" type="line"/>
      <point x="294.5" y="448" type="line"/>
      <point x="169.232" y="448" type="line"/>
    </contour>
  </outline>
</glyph>
<glyph name="u" format="2">
  <advance width="514"/>
  <unicode hex="0075"/>
  <outline>
    <contour>
      <point x="365" y="0" type="line"/>
      <point x="438" y="0" type="line"/>
      <point x="438" y="440" type="line"/>
      <point x="365" y="440" type="line"/>
      <point x="365" y="166" type="line" smooth="yes"/>
      <point x="365" y="135"/>
      <point x="359" y="114"/>
      <point x="344" y="96" type="curve" smooth="yes"/>
      <point x="323" y="70"/>
      <point x="285" y="53"/>
      <point x="248" y="53" type="curve" smooth="yes"/>
      <point x="183" y="53"/>
      <point x="150" y="91"/>
      <point x="150" y="165" type="curve" smooth="yes"/>
      <point x="150" y="440" type="line"/>
      <point x="77" y="440" type="line"/>
      <point x="77" y="163" type="line" smooth="yes"/>
      <point x="77" y="106"/>
      <point x="84" y="75"/>
      <point x="103" y="48" type="curve" smooth="yes"/>
      <point x="130" y="11"/>
      <point x="177" y="-11"/>
      <point x="231" y="-11" type="curve" smooth="yes"/>
      <point x="285" y="-11"/>
      <point x="320" y="6"/>
      <point x="365" y="53" type="curve"/>
    </contour>
  </outline>
</glyph>
<glyph name="v" format="2">
  <advance width="432"/>
  <unicode hex="0076"/>
  <outline>
    <contour>
      <point x="187" y="0" type="line"/>
      <point x="252" y="0" type="line"/>
      <point x="429" y="440" type="line"/>
      <point x="357" y="440" type="line"/>
      <point x="223" y="104" type="line"/>
      <point x="89" y="440" type="line"/>
      <point x="10" y="440" type="line"/>
    </contour>
  </outline>
</glyph>
<glyph name="w" format="2">
  <advance width="675"/>
  <unicode hex="0077"/>
  <outline>
    <contour>
      <point x="662" y="440" type="line"/>
      <point x="590" y="440" type="line"/>
      <point x="479" y="119" type="line"/>
      <point x="377" y="440" type="line"/>
      <point x="315" y="440" type="line"/>
      <point x="203" y="113" type="line"/>
      <point x="100" y="440" type="line"/>
      <point x="23" y="440" type="line"/>
      <point x="162" y="0" type="line"/>
      <point x="232" y="0" type="line"/>
      <point x="341" y="318" type="line"/>
      <point x="441" y="0" type="line"/>
      <point x="507" y="0" type="line"/>
    </contour>
  </outline>
</glyph>
<glyph name="x" format="2">
  <advance width="408"/>
  <unicode hex="0078"/>
  <outline>
    <contour>
      <point x="386.98" y="448" type="line"/>
      <point x="307.171" y="448" type="line"/>
      <point x="208.283" y="295.958" type="line"/>
      <point x="119.283" y="448" type="line"/>
      <point x="28.7905" y="448" type="line"/>
      <point x="160.251" y="240.851" type="line"/>
      <point x="-9.34853" y="0" type="line"/>
      <point x="76.1521" y="0" type="line"/>
      <point x="197.81" y="192.725" type="line"/>
      <point x="311.035" y="0" type="line"/>
      <point x="402.791" y="0" type="line"/>
      <point x="248.442" y="245.142" type="line"/>
    </contour>
  </outline>
</glyph>
<glyph name="y" format="2">
  <advance width="444"/>
  <unicode hex="0079"/>
  <outline>
    <contour>
      <point x="453.108" y="448" type="line"/>
      <point x="378.209" y="448" type="line"/>
      <point x="230.757" y="87.83" type="line"/>
      <point x="100.225" y="448" type="line"/>
      <point x="10.5167" y="448" type="line"/>
      <point x="183.804" y="-0.876358" type="line"/>
      <point x="145.686" y="-87.8325" type="line" smooth="yes"/>
      <point x="118.358" y="-151.183"/>
      <point x="69.3024" y="-185.964"/>
      <point x="8.58929" y="-185.964" type="curve" smooth="yes"/>
      <point x="-4.55379" y="-185.964"/>
      <point x="-16.56" y="-184.444"/>
      <point x="-31.8746" y="-180.825" type="curve"/>
      <point x="-20.1793" y="-239.302" type="line"/>
      <point x="1.87724" y="-243.397"/>
      <point x="16.4166" y="-245.089"/>
      <point x="31.4643" y="-245.089" type="curve" smooth="yes"/>
      <point x="127.64" y="-245.089"/>
      <point x="176.468" y="-191.776"/>
      <point x="252.743" y="-16.4346" type="curve" smooth="yes"/>
    </contour>
  </outline>
</glyph>
<glyph name="z" format="2">
  <advance width="412"/>
  <unicode hex="007A"/>
  <outline>
    <contour>
      <point x="48" y="440" type="line"/>
      <point x="48" y="377" type="line"/>
      <point x="299" y="377" type="line"/>
      <point x="19" y="63" type="line"/>
      <point x="19" y="0" type="line"/>
      <point x="394" y="0" type="line"/>
      <point x="394" y="63" type="line"/>
      <point x="108" y="63" type="line"/>
      <point x="387" y="377" type="line"/>
      <point x="387" y="440" type="line"/>
    </contour>
  </outline>
</glyph>
<glyph name="braceleft" format="2">
  <advance width="251"/>
  <unicode hex="007B"/>
  <outline>
    <contour>
      <point x="238" y="696" type="line"/>
      <point x="221" y="696" type="line" smooth="yes"/>
      <point x="173" y="696"/>
      <point x="142" y="685"/>
      <point x="121" y="661" type="curve" smooth="yes"/>
      <point x="97" y="633"/>
      <point x="90" y="602"/>
      <point x="90" y="523" type="curve" smooth="yes"/>
      <point x="90" y="443" type="line" smooth="yes"/>
      <point x="90" y="349"/>
      <point x="70" y="315"/>
      <point x="12" y="313" type="curve"/>
      <point x="12" y="297" type="line"/>
      <point x="79" y="292"/>
      <point x="90" y="277"/>
      <point x="90" y="196" type="curve" smooth="yes"/>
      <point x="90" y="44" type="line" smooth="yes"/>
      <point x="90" y="-2"/>
      <point x="100" y="-30"/>
      <point x="124" y="-52" type="curve" smooth="yes"/>
      <point x="148" y="-75"/>
      <point x="189" y="-90"/>
      <point x="221" y="-88" type="curve" smooth="yes"/>
      <point x="233" y="-87" type="line"/>
      <point x="238" y="-87" type="line"/>
      <point x="238" y="-71" type="line"/>
      <point x="207" y="-67"/>
      <point x="191" y="-60"/>
      <point x="177" y="-44" type="curve" smooth="yes"/>
      <point x="159" y="-24"/>
      <point x="154" y="-2"/>
      <point x="154" y="53" type="curve" smooth="yes"/>
      <point x="154" y="178" type="line" smooth="yes"/>
      <point x="154" y="256"/>
      <point x="133" y="286"/>
      <point x="63" y="307" type="curve"/>
      <point x="100" y="322"/>
      <point x="115" y="331"/>
      <point x="127" y="344" type="curve" smooth="yes"/>
      <point x="150" y="370"/>
      <point x="154" y="390"/>
      <point x="154" y="468" type="curve" smooth="yes"/>
      <point x="154" y="523" type="line" smooth="yes"/>
      <point x="154" y="594"/>
      <point x="158" y="621"/>
      <point x="174" y="644" type="curve" smooth="yes"/>
      <point x="189" y="666"/>
      <point x="207" y="676"/>
      <point x="238" y="679" type="curve"/>
    </contour>
  </outline>
</glyph>
<glyph name="bar" format="2">
  <advance width="527"/>
  <unicode hex="007C"/>
  <outline>
    <contour>
      <point x="253.172" y="667" type="line"/>
      <point x="253.172" y="-177.015" type="line"/>
      <point x="274.651" y="-177.015" type="line"/>
      <point x="274.651" y="667" type="line"/>
    </contour>
  </outline>
</glyph>
<glyph name="braceright" format="2">
  <advance width="292"/>
  <unicode hex="007D"/>
  <outline>
    <contour>
      <point x="38.1994" y="709.949" type="line"/>
      <point x="121.792" y="695.112"/>
      <point x="129.357" y="609.273"/>
      <point x="129.357" y="539.664" type="curve" smooth="yes"/>
      <point x="129.357" y="469.706" type="line" smooth="yes"/>
      <point x="129.357" y="374.087"/>
      <point x="149.399" y="349.157"/>
      <point x="266.567" y="301.365" type="curve"/>
      <point x="161.732" y="273.614"/>
      <point x="129.357" y="240.67"/>
      <point x="129.357" y="162.315" type="curve" smooth="yes"/>
      <point x="129.357" y="40.4183" type="line" smooth="yes"/>
      <point x="129.357" y="-62.1687"/>
      <point x="105.387" y="-95.246"/>
      <point x="20.8621" y="-106.6" type="curve"/>
      <point x="38.1994" y="-86.7781" type="line"/>
      <point x="38.1994" y="-92.1655" type="line"/>
      <point x="40.4985" y="-92.2233"/>
      <point x="42.4273" y="-92.2174"/>
      <point x="45.7586" y="-92.2174" type="curve" smooth="yes"/>
      <point x="134.182" y="-92.2174"/>
      <point x="178.394" y="-53.3053"/>
      <point x="178.394" y="24.5187" type="curve" smooth="yes"/>
      <point x="178.394" y="182.454" type="line" smooth="yes"/>
      <point x="178.394" y="283.837"/>
      <point x="195.266" y="306.403"/>
      <point x="280.922" y="311.595" type="curve"/>
      <point x="262.132" y="291.631" type="line"/>
      <point x="262.132" y="297.845" type="line"/>
      <point x="198.229" y="306.733"/>
      <point x="178.394" y="346.9"/>
      <point x="178.394" y="451.687" type="curve" smooth="yes"/>
      <point x="178.394" y="539.664" type="line" smooth="yes"/>
      <point x="178.394" y="644.895"/>
      <point x="166.147" y="697.739"/>
      <point x="49.9985" y="697.739" type="curve" smooth="yes"/>
      <point x="38.1994" y="697.739" type="line"/>
    </contour>
  </outline>
</glyph>
<glyph name="asciitilde" format="2">
  <advance width="444"/>
  <unicode hex="007E"/>
  <outline>
    <contour>
      <point x="22" y="600" type="line"/>
      <point x="57" y="633"/>
      <point x="84" y="647"/>
      <point x="112" y="647" type="curve" smooth="yes"/>
      <point x="126" y="647"/>
      <point x="133" y="645"/>
      <point x="168" y="632" type="curve" smooth="yes"/>
      <point x="267" y="596"/>
      <point x="267" y="596"/>
      <point x="297" y="596" type="curve" smooth="yes"/>
      <point x="341" y="596"/>
      <point x="383" y="617"/>
      <point x="420" y="658" type="curve"/>
      <point x="412" y="697" type="line"/>
      <point x="371" y="657"/>
      <point x="344" y="643"/>
      <point x="309" y="643" type="curve" smooth="yes"/>
      <point x="287" y="643"/>
      <point x="261" y="650"/>
      <point x="220" y="667" type="curve" smooth="yes"/>
      <point x="172" y="687"/>
      <point x="151" y="693"/>
      <point x="127" y="693" type="curve" smooth="yes"/>
      <point x="90" y="693"/>
      <point x="54" y="676"/>
      <point x="14" y="640" type="curve"/>
    </contour>
  </outline>
</glyph>
<glyph name="exclamdown" format="2">
  <advance width="240"/>
  <unicode hex="00A1"/>
  <outline>
    <contour>
      <point x="155" y="-147" type="line"/>
      <point x="155" y="23" type="line"/>
      <point x="143" y="325" type="line"/>
      <point x="97" y="325" type="line"/>
      <point x="85" y="23" type="line"/>
      <point x="85" y="-147" type="line"/>
    </contour>
    <contour>
      <point x="120" y="534" type="curve" smooth="yes"/>
      <point x="91" y="534"/>
      <point x="67" y="510"/>
      <point x="67" y="480" type="curve" smooth="yes"/>
      <point x="67" y="451"/>
      <point x="91" y="427"/>
      <point x="121" y="427" type="curve" smooth="yes"/>
      <point x="150" y="427"/>
      <point x="174" y="451"/>
      <point x="174" y="480" type="curve" smooth="yes"/>
      <point x="174" y="510"/>
      <point x="150" y="534"/>
    </contour>
  </outline>
</glyph>
<glyph name="cent" format="2">
  <advance width="527"/>
  <unicode hex="00A2"/>
  <outline>
    <contour>
      <point x="401.851" y="217.243" type="line"/>
      <point x="375.071" y="168.239"/>
      <point x="347.649" y="154.889"/>
      <point x="286.711" y="148.638" type="curve"/>
      <point x="286.711" y="523.54" type="line"/>
      <point x="350.369" y="520.509"/>
      <point x="381.174" y="502.862"/>
      <point x="403.448" y="455.04" type="curve"/>
      <point x="462.117" y="477.605" type="line"/>
      <point x="433.234" y="534.508"/>
      <point x="382.754" y="557.022"/>
      <point x="286.711" y="558.033" type="curve"/>
      <point x="286.711" y="629.901" type="line"/>
      <point x="281.132" y="629.901" type="line"/>
      <point x="281.132" y="559.25" type="line"/>
      <point x="214.668" y="554.327"/>
      <point x="180.819" y="544.421"/>
      <point x="150.379" y="520.64" type="curve" smooth="yes"/>
      <point x="98.213" y="481.032"/>
      <point x="70.1979" y="415.544"/>
      <point x="70.1979" y="332.97" type="curve" smooth="yes"/>
      <point x="70.1979" y="260.921"/>
      <point x="90.4718" y="202.167"/>
      <point x="128.123" y="163.55" type="curve" smooth="yes"/>
      <point x="162.416" y="128.305"/>
      <point x="205.344" y="112.703"/>
      <point x="281.132" y="107.966" type="curve"/>
      <point x="281.132" y="15.8996" type="line"/>
      <point x="286.711" y="15.8996" type="line"/>
      <point x="286.711" y="108.225" type="line"/>
      <point x="371.383" y="112.355"/>
      <point x="428.355" y="138.591"/>
      <point x="460.032" y="192.678" type="curve"/>
    </contour>
    <contour>
      <point x="281.132" y="145.742" type="line"/>
      <point x="186.354" y="171.317"/>
      <point x="145.735" y="226.813"/>
      <point x="145.735" y="331.91" type="curve" smooth="yes"/>
      <point x="145.735" y="446.14"/>
      <point x="190.867" y="509.01"/>
      <point x="281.132" y="524.054" type="curve"/>
    </contour>
  </outline>
</glyph>
<glyph name="sterling" format="2">
  <advance width="550"/>
  <unicode hex="00A3"/>
  <outline>
    <contour>
      <point x="253.46" y="375.508" type="line"/>
      <point x="262.327" y="453.831" type="line" smooth="yes"/>
      <point x="275.322" y="574.338"/>
      <point x="318.472" y="627.502"/>
      <point x="404.108" y="627.502" type="curve" smooth="yes"/>
      <point x="438.31" y="627.502"/>
      <point x="465.597" y="619.194"/>
      <point x="494.468" y="598.838" type="curve"/>
      <point x="503.72" y="648.911" type="line"/>
      <point x="462.572" y="670.807"/>
      <point x="427.846" y="679.72"/>
      <point x="383.969" y="679.72" type="curve" smooth="yes"/>
      <point x="245.704" y="679.72"/>
      <point x="198.161" y="579.001"/>
      <point x="186.581" y="458.233" type="curve" smooth="yes"/>
      <point x="178.444" y="375.508" type="line"/>
      <point x="87.0375" y="375.508" type="line"/>
      <point x="87.0375" y="324.351" type="line"/>
      <point x="173.352" y="324.351" type="line"/>
      <point x="159.382" y="133.425"/>
      <point x="126.091" y="67.2608"/>
      <point x="36.1589" y="56.7855" type="curve"/>
      <point x="36.1589" y="0" type="line"/>
      <point x="495.405" y="0" type="line"/>
      <point x="495.405" y="57.5172" type="line"/>
      <point x="131.071" y="57.5172" type="line"/>
      <point x="206.988" y="121.625"/>
      <point x="232.892" y="182.261"/>
      <point x="250.793" y="324.351" type="curve"/>
      <point x="429.687" y="324.351" type="line"/>
      <point x="429.687" y="375.508" type="line"/>
    </contour>
  </outline>
</glyph>
<glyph name="currency" format="2">
  <advance width="489"/>
  <unicode hex="00A4"/>
  <outline>
    <contour>
      <point x="23.8784" y="426.462" type="line"/>
      <point x="128.592" y="324.859" type="line"/>
      <point x="101.875" y="286.693"/>
      <point x="91.6972" y="258.639"/>
      <point x="91.6972" y="228.033" type="curve" smooth="yes"/>
      <point x="91.6972" y="197.124"/>
      <point x="101.671" y="168.754"/>
      <point x="127.853" y="126.364" type="curve"/>
      <point x="23.2938" y="23.8748" type="line"/>
      <point x="38.1579" y="7.89589" type="line"/>
      <point x="140.775" y="112.566" type="line"/>
      <point x="184.301" y="85.2066"/>
      <point x="212.612" y="75.2579"/>
      <point x="245.532" y="75.2579" type="curve" smooth="yes"/>
      <point x="277.065" y="75.2579"/>
      <point x="304.191" y="85.4352"/>
      <point x="342.356" y="112.151" type="curve"/>
      <point x="445.193" y="6.19825" type="line"/>
      <point x="459.948" y="20.5938" type="line"/>
      <point x="356.358" y="126.256" type="line"/>
      <point x="382.897" y="164.17"/>
      <point x="393.007" y="193.138"/>
      <point x="393.007" y="224.853" type="curve" smooth="yes"/>
      <point x="393.007" y="256.651"/>
      <point x="382.935" y="285.727"/>
      <point x="356.493" y="324.76" type="curve"/>
      <point x="456.874" y="426.175" type="line"/>
      <point x="442.614" y="440.434" type="line"/>
      <point x="341.938" y="340.785" type="line"/>
      <point x="299.774" y="365.587"/>
      <point x="272.256" y="375.508"/>
      <point x="242.352" y="375.508" type="curve" smooth="yes"/>
      <point x="212.525" y="375.508"/>
      <point x="185.996" y="365.626"/>
      <point x="141.526" y="339.685" type="curve"/>
      <point x="39.8268" y="442.411" type="line"/>
    </contour>
    <contour>
      <point x="243.412" y="362.51" type="curve" smooth="yes"/>
      <point x="319.161" y="362.51"/>
      <point x="380.009" y="301.662"/>
      <point x="380.009" y="225.913" type="curve" smooth="yes"/>
      <point x="380.009" y="149.024"/>
      <point x="320.323" y="88.2564"/>
      <point x="244.472" y="88.2564" type="curve" smooth="yes"/>
      <point x="166.444" y="88.2564"/>
      <point x="105.756" y="150.104"/>
      <point x="105.756" y="228.033" type="curve" smooth="yes"/>
      <point x="105.756" y="301.497"/>
      <point x="167.763" y="362.51"/>
    </contour>
  </outline>
</glyph>
<glyph name="yen" format="2">
  <advance width="543"/>
  <unicode hex="00A5"/>
  <outline>
    <contour>
      <point x="436" y="667" type="line"/>
      <point x="271" y="397" type="line"/>
      <point x="111" y="667" type="line"/>
      <point x="20" y="667" type="line"/>
      <point x="161" y="430" type="line"/>
      <point x="44" y="430" type="line"/>
      <point x="44" y="380" type="line"/>
      <point x="191" y="380" type="line"/>
      <point x="228" y="319" type="line"/>
      <point x="228" y="300" type="line"/>
      <point x="44" y="300" type="line"/>
      <point x="44" y="250" type="line"/>
      <point x="228" y="250" type="line"/>
      <point x="228" y="0" type="line"/>
      <point x="302" y="0" type="line"/>
      <point x="302" y="250" type="line"/>
      <point x="497" y="250" type="line"/>
      <point x="497" y="300" type="line"/>
      <point x="302" y="300" type="line"/>
      <point x="302" y="316" type="line"/>
      <point x="342" y="380" type="line"/>
      <point x="497" y="380" type="line"/>
      <point x="497" y="430" type="line"/>
      <point x="373" y="430" type="line"/>
      <point x="520" y="667" type="line"/>
    </contour>
  </outline>
</glyph>
<glyph name="brokenbar" format="2">
  <advance width="543"/>
  <unicode hex="00A6"/>
  <outline>
    <contour>
      <point x="235" y="667" type="line"/>
      <point x="235" y="334" type="line"/>
      <point x="308" y="334" type="line"/>
      <point x="308" y="667" type="line"/>
    </contour>
    <contour>
      <point x="235" y="153" type="line"/>
      <point x="235" y="-167" type="line"/>
      <point x="308" y="-167" type="line"/>
      <point x="308" y="153" type="line"/>
    </contour>
  </outline>
</glyph>
<glyph name="section" format="2">
  <advance width="549"/>
  <unicode hex="00A7"/>
  <outline>
    <contour>
      <point x="475.612" y="585.552" type="line"/>
      <point x="442.499" y="660.947"/>
      <point x="369.867" y="682.9"/>
      <point x="291.931" y="682.9" type="curve" smooth="yes"/>
      <point x="190.615" y="682.9"/>
      <point x="96.7571" y="629.18" name="hr01"/>
      <point x="96.7571" y="518.465" type="curve" smooth="yes"/>
      <point x="96.7571" y="492.123"/>
      <point x="103.004" y="470.8"/>
      <point x="124.241" y="423.328" type="curve"/>
      <point x="73.6142" y="377.201"/>
      <point x="52.2384" y="337.301"/>
      <point x="52.2384" y="287.391" type="curve" smooth="yes"/>
      <point x="52.2384" y="235.299"/>
      <point x="78.3612" y="185.968"/>
      <point x="118.678" y="157.7" type="curve"/>
      <point x="143.192" y="141.815"/>
      <point x="211.938" y="114.509"/>
      <point x="291.602" y="89.1666" type="curve" smooth="yes"/>
      <point x="372.689" y="63.8303"/>
      <point x="392.489" y="45.5783"/>
      <point x="392.489" y="-10.4603" type="curve" smooth="yes"/>
      <point x="392.489" y="-82.7536"/>
      <point x="337.777" y="-132.217"/>
      <point x="256.952" y="-132.217" type="curve" smooth="yes"/>
      <point x="175.243" y="-132.217"/>
      <point x="127.715" y="-93.2863"/>
      <point x="106.644" y="-7.37533" type="curve"/>
      <point x="36.6791" y="-36.1842" type="line"/>
      <point x="64.6219" y="-143.577"/>
      <point x="149.264" y="-185.495"/>
      <point x="258.012" y="-185.495" type="curve" smooth="yes"/>
      <point x="384.253" y="-185.495"/>
      <point x="476.505" y="-104.899"/>
      <point x="476.505" y="5.43928" type="curve" smooth="yes"/>
      <point x="476.505" y="44.5706"/>
      <point x="464.349" y="71.4347"/>
      <point x="426.666" y="118.843" type="curve"/>
      <point x="475.651" y="171.327"/>
      <point x="496.645" y="212.352"/>
      <point x="496.645" y="255.592" type="curve" smooth="yes"/>
      <point x="496.645" y="287.123"/>
      <point x="483.22" y="318.575"/>
      <point x="460.846" y="338.265" type="curve" smooth="yes"/>
      <point x="434.892" y="362.296"/>
      <point x="401.421" y="378.044"/>
      <point x="328.203" y="401.909" type="curve" smooth="yes"/>
      <point x="261.842" y="423.01"/>
      <point x="246.086" y="429.415"/>
      <point x="222.37" y="442.967" type="curve"/>
      <point x="188.279" y="463.946"/>
      <point x="171.234" y="494.059"/>
      <point x="171.234" y="533.304" type="curve" smooth="yes"/>
      <point x="171.234" y="598.803"/>
      <point x="214.745" y="638.102"/>
      <point x="287.691" y="638.102" type="curve" smooth="yes"/>
      <point x="353.402" y="638.102"/>
      <point x="390.811" y="612.528"/>
      <point x="412.916" y="550.203" type="curve"/>
    </contour>
    <contour>
      <point x="167.975" y="387.094" type="line" smooth="yes"/>
      <point x="204.759" y="369.724"/>
      <point x="221.339" y="363.758"/>
      <point x="273.026" y="345.513" type="curve" smooth="yes"/>
      <point x="347.737" y="320.231"/>
      <point x="363.723" y="313.674"/>
      <point x="385.595" y="299.859" type="curve"/>
      <point x="411.087" y="282.418"/>
      <point x="428.528" y="252.421"/>
      <point x="428.528" y="224.853" type="curve" smooth="yes"/>
      <point x="428.528" y="197.339"/>
      <point x="413.266" y="167.469"/>
      <point x="379.691" y="130.841" type="curve"/>
      <point x="366.971" y="136.406"/>
      <point x="343.229" y="146.147"/>
      <point x="336.025" y="148.88" type="curve" smooth="yes"/>
      <point x="329.433" y="151.413" type="line"/>
      <point x="325.456" y="153.401"/>
      <point x="298.482" y="162.724"/>
      <point x="257.881" y="176.257" type="curve" smooth="yes"/>
      <point x="202.036" y="195.967"/>
      <point x="176.823" y="206.534"/>
      <point x="157.67" y="221.853" type="curve" smooth="yes"/>
      <point x="133.319" y="240.391"/>
      <point x="115.055" y="277.858"/>
      <point x="115.055" y="308.591" type="curve" smooth="yes"/>
      <point x="115.055" y="334.744"/>
      <point x="125.156" y="358.451"/>
      <point x="153.772" y="393.801" type="curve"/>
    </contour>
  </outline>
</glyph>
<glyph name="dieresis" format="2">
  <advance width="481"/>
  <unicode hex="00A8"/>
  <outline>
    <contour>
      <point x="130.756" y="672.3" type="curve" smooth="yes"/>
      <point x="104.025" y="672.3"/>
      <point x="83.9775" y="652.533"/>
      <point x="83.9775" y="627.642" type="curve" smooth="yes"/>
      <point x="83.9775" y="600.911"/>
      <point x="103.887" y="580.864"/>
      <point x="129.696" y="580.864" type="curve" smooth="yes"/>
      <point x="155.504" y="580.864"/>
      <point x="175.414" y="600.773"/>
      <point x="175.414" y="626.582" type="curve" smooth="yes"/>
      <point x="175.414" y="652.39"/>
      <point x="155.647" y="672.3"/>
    </contour>
    <contour>
      <point x="337.45" y="672.3" type="curve" smooth="yes"/>
      <point x="311.641" y="672.3"/>
      <point x="291.732" y="652.533"/>
      <point x="291.732" y="627.642" type="curve" smooth="yes"/>
      <point x="291.732" y="600.911"/>
      <point x="310.766" y="580.864"/>
      <point x="336.39" y="580.864" type="curve" smooth="yes"/>
      <point x="362.378" y="580.864"/>
      <point x="383.168" y="600.773"/>
      <point x="383.168" y="626.582" type="curve" smooth="yes"/>
      <point x="383.168" y="652.39"/>
      <point x="363.258" y="672.3"/>
    </contour>
  </outline>
</glyph>
<glyph name="copyright" format="2">
  <advance width="757"/>
  <unicode hex="00A9"/>
  <outline>
    <contour>
      <point x="547" y="473" type="line"/>
      <point x="504" y="524"/>
      <point x="461" y="543"/>
      <point x="390" y="543" type="curve" smooth="yes"/>
      <point x="262" y="543"/>
      <point x="177" y="458"/>
      <point x="177" y="330" type="curve" smooth="yes"/>
      <point x="177" y="201"/>
      <point x="256" y="124"/>
      <point x="387" y="124" type="curve" smooth="yes"/>
      <point x="461" y="124"/>
      <point x="503" y="143"/>
      <point x="547" y="194" type="curve"/>
      <point x="501" y="236" type="line"/>
      <point x="475" y="191"/>
      <point x="446" y="174"/>
      <point x="390" y="174" type="curve" smooth="yes"/>
      <point x="349" y="174"/>
      <point x="305" y="191"/>
      <point x="281" y="215" type="curve" smooth="yes"/>
      <point x="258" y="239"/>
      <point x="244" y="283"/>
      <point x="244" y="330" type="curve" smooth="yes"/>
      <point x="244" y="430"/>
      <point x="301" y="493"/>
      <point x="391" y="493" type="curve" smooth="yes"/>
      <point x="445" y="493"/>
      <point x="476" y="475"/>
      <point x="501" y="431" type="curve"/>
    </contour>
    <contour>
      <point x="383" y="680" type="curve" smooth="yes"/>
      <point x="188" y="680"/>
      <point x="33" y="527"/>
      <point x="33" y="333" type="curve" smooth="yes"/>
      <point x="33" y="143"/>
      <point x="189" y="-13"/>
      <point x="379" y="-13" type="curve" smooth="yes"/>
      <point x="569" y="-13"/>
      <point x="724" y="142"/>
      <point x="724" y="333" type="curve" smooth="yes"/>
      <point x="724" y="523"/>
      <point x="570" y="680"/>
    </contour>
    <contour>
      <point x="382" y="622" type="curve" smooth="yes"/>
      <point x="535" y="622"/>
      <point x="661" y="491"/>
      <point x="661" y="334" type="curve" smooth="yes"/>
      <point x="661" y="175"/>
      <point x="534" y="46"/>
      <point x="379" y="46" type="curve" smooth="yes"/>
      <point x="224" y="46"/>
      <point x="96" y="176"/>
      <point x="96" y="333" type="curve" smooth="yes"/>
      <point x="96" y="495"/>
      <point x="222" y="622"/>
    </contour>
  </outline>
</glyph>
<glyph name="ordfeminine" format="2">
  <advance width="353"/>
  <unicode hex="00AA"/>
  <outline>
    <contour>
      <point x="296" y="667" type="line"/>
      <point x="237" y="667" type="line"/>
      <point x="237" y="640" type="line"/>
      <point x="214" y="662"/>
      <point x="187" y="673" name="hr01"/>
      <point x="156" y="673" type="curve" smooth="yes"/>
      <point x="84" y="673"/>
      <point x="31" y="614"/>
      <point x="31" y="533" type="curve" smooth="yes"/>
      <point x="31" y="453"/>
      <point x="84" y="394"/>
      <point x="156" y="394" type="curve" smooth="yes"/>
      <point x="187" y="394"/>
      <point x="214" y="405"/>
      <point x="237" y="427" type="curve"/>
      <point x="244" y="400" type="line"/>
      <point x="296" y="400" type="line"/>
    </contour>
    <contour>
      <point x="164" y="629" type="curve" smooth="yes"/>
      <point x="209" y="629"/>
      <point x="240" y="591"/>
      <point x="240" y="534" type="curve" smooth="yes"/>
      <point x="240" y="476"/>
      <point x="209" y="438"/>
      <point x="164" y="438" type="curve" smooth="yes"/>
      <point x="117" y="438"/>
      <point x="87" y="476"/>
      <point x="87" y="535" type="curve" smooth="yes"/>
      <point x="87" y="591"/>
      <point x="118" y="629"/>
    </contour>
  </outline>
</glyph>
<glyph name="guillemotleft" format="2">
  <advance width="398"/>
  <unicode hex="00AB"/>
  <outline>
    <contour>
      <point x="348" y="0" type="line"/>
      <point x="281" y="223" type="line"/>
      <point x="343" y="440" type="line"/>
      <point x="312" y="440" type="line"/>
      <point x="196" y="223" type="line"/>
      <point x="312" y="0" type="line"/>
    </contour>
    <contour>
      <point x="195" y="0" type="line"/>
      <point x="127" y="223" type="line"/>
      <point x="189" y="440" type="line"/>
      <point x="159" y="440" type="line"/>
      <point x="43" y="223" type="line"/>
      <point x="159" y="0" type="line"/>
    </contour>
  </outline>
</glyph>
<glyph name="logicalnot" format="2">
  <advance width="566"/>
  <unicode hex="00AC"/>
  <outline>
    <contour>
      <point x="27.6192" y="309.79" type="line"/>
      <point x="27.6192" y="289.372" type="line"/>
      <point x="499.306" y="289.372" type="line"/>
      <point x="499.306" y="52.9985" type="line"/>
      <point x="522.904" y="52.9985" type="line"/>
      <point x="522.904" y="309.79" type="line"/>
    </contour>
  </outline>
</glyph>
<glyph name="registered" format="2">
  <advance width="762"/>
  <unicode hex="00AE"/>
  <outline>
    <contour>
      <point x="265.052" y="147.336" type="line"/>
      <point x="309.85" y="147.336" type="line"/>
      <point x="309.85" y="319.051" type="line"/>
      <point x="376.597" y="319.051" type="line"/>
      <point x="471.994" y="147.336" type="line"/>
      <point x="521.806" y="147.336" type="line"/>
      <point x="419.695" y="321.817" type="line"/>
      <point x="481.394" y="354.413"/>
      <point x="507.004" y="385.897"/>
      <point x="507.004" y="427.307" type="curve" smooth="yes"/>
      <point x="507.004" y="463.488"/>
      <point x="487.842" y="494.781"/>
      <point x="459.393" y="508.719" type="curve"/>
      <point x="440.421" y="516.706"/>
      <point x="419.945" y="519.596"/>
      <point x="372.249" y="519.664" type="curve" smooth="yes"/>
      <point x="265.052" y="519.664" type="line"/>
    </contour>
    <contour>
      <point x="309.85" y="344.769" type="line"/>
      <point x="309.85" y="491.826" type="line"/>
      <point x="354.229" y="491.826" type="line" smooth="yes"/>
      <point x="403.563" y="491.826"/>
      <point x="457.967" y="491.348"/>
      <point x="457.967" y="424.127" type="curve" smooth="yes"/>
      <point x="457.967" y="368.86"/>
      <point x="427.535" y="344.769"/>
      <point x="357.409" y="344.769" type="curve" smooth="yes"/>
    </contour>
    <contour>
      <point x="387.088" y="681.84" type="curve" smooth="yes"/>
      <point x="189.468" y="681.84"/>
      <point x="33.979" y="527.455"/>
      <point x="33.979" y="332.97" type="curve" smooth="yes"/>
      <point x="33.979" y="141.524"/>
      <point x="190.343" y="-14.8396"/>
      <point x="381.789" y="-14.8396" type="curve" smooth="yes"/>
      <point x="573.202" y="-14.8396"/>
      <point x="728.538" y="141.524"/>
      <point x="728.538" y="332.97" type="curve" smooth="yes"/>
      <point x="728.538" y="523.445"/>
      <point x="573.334" y="681.84"/>
    </contour>
    <contour>
      <point x="386.028" y="658.241" type="curve" smooth="yes"/>
      <point x="556.986" y="658.241"/>
      <point x="699.64" y="510.288"/>
      <point x="699.64" y="332.97" type="curve" smooth="yes"/>
      <point x="699.64" y="154.484"/>
      <point x="557.116" y="8.75862"/>
      <point x="381.789" y="8.75862" type="curve" smooth="yes"/>
      <point x="206.5" y="8.75862"/>
      <point x="62.8771" y="154.484"/>
      <point x="62.8771" y="332.97" type="curve" smooth="yes"/>
      <point x="62.8771" y="514.806"/>
      <point x="205.244" y="658.241"/>
    </contour>
  </outline>
</glyph>
<glyph name="macron" format="2">
  <advance width="500"/>
  <unicode hex="00AF"/>
  <outline>
    <contour>
      <point x="124" y="636" type="line"/>
      <point x="124" y="589" type="line"/>
      <point x="376" y="589" type="line"/>
      <point x="376" y="636" type="line"/>
    </contour>
  </outline>
</glyph>
<glyph name="degree" format="2">
  <advance width="360"/>
  <unicode hex="00B0"/>
  <outline>
    <contour>
      <point x="180" y="680" type="curve" smooth="yes"/>
      <point x="100" y="680"/>
      <point x="33" y="616"/>
      <point x="33" y="538" type="curve" smooth="yes"/>
      <point x="33" y="457"/>
      <point x="98" y="393"/>
      <point x="180" y="393" type="curve" smooth="yes"/>
      <point x="260" y="393"/>
      <point x="326" y="458"/>
      <point x="326" y="537" type="curve" smooth="yes"/>
      <point x="326" y="616"/>
      <point x="260" y="680"/>
    </contour>
    <contour>
      <point x="179" y="622" type="curve" smooth="yes"/>
      <point x="228" y="622"/>
      <point x="267" y="584"/>
      <point x="267" y="537" type="curve" smooth="yes"/>
      <point x="267" y="490"/>
      <point x="227" y="451"/>
      <point x="180" y="451" type="curve" smooth="yes"/>
      <point x="131" y="451"/>
      <point x="92" y="489"/>
      <point x="92" y="538" type="curve" smooth="yes"/>
      <point x="92" y="584"/>
      <point x="132" y="622"/>
    </contour>
  </outline>
</glyph>
<glyph name="plusminus" format="2">
  <advance width="553"/>
  <unicode hex="00B1"/>
  <outline>
    <contour>
      <point x="27.6192" y="353.249" type="line"/>
      <point x="27.6192" y="336.01" type="line"/>
      <point x="267.172" y="336.01" type="line"/>
      <point x="267.172" y="96.4573" type="line"/>
      <point x="285.471" y="96.4573" type="line"/>
      <point x="285.471" y="336.01" type="line"/>
      <point x="526.084" y="336.01" type="line"/>
      <point x="526.084" y="353.249" type="line"/>
      <point x="285.471" y="353.249" type="line"/>
      <point x="285.471" y="589.622" type="line"/>
      <point x="267.172" y="589.622" type="line"/>
      <point x="267.172" y="353.249" type="line"/>
    </contour>
    <contour>
      <point x="27.6192" y="17.2384" type="line"/>
      <point x="27.6192" y="0" type="line"/>
      <point x="526.084" y="0" type="line"/>
      <point x="526.084" y="17.2384" type="line"/>
    </contour>
  </outline>
</glyph>
<glyph name="twosuperior" format="2">
  <advance width="353"/>
  <unicode hex="00B2"/>
  <outline>
    <contour>
      <point x="299" y="311" type="line"/>
      <point x="124" y="311" type="line"/>
      <point x="251" y="451"/>
      <point x="285" y="506"/>
      <point x="285" y="571" type="curve" smooth="yes"/>
      <point x="285" y="637"/>
      <point x="242" y="675"/>
      <point x="168" y="675" type="curve" smooth="yes"/>
      <point x="109" y="675"/>
      <point x="80" y="652"/>
      <point x="55" y="585" type="curve"/>
      <point x="105" y="552" type="line"/>
      <point x="111" y="607"/>
      <point x="130" y="631"/>
      <point x="169" y="631" type="curve" smooth="yes"/>
      <point x="205" y="631"/>
      <point x="227" y="608"/>
      <point x="227" y="570" type="curve" smooth="yes"/>
      <point x="227" y="527"/>
      <point x="210" y="485"/>
      <point x="172" y="434" type="curve" smooth="yes"/>
      <point x="148" y="402"/>
      <point x="124" y="375"/>
      <point x="54" y="304" type="curve"/>
      <point x="54" y="267" type="line"/>
      <point x="299" y="267" type="line"/>
    </contour>
  </outline>
</glyph>
<glyph name="threesuperior" format="2">
  <advance width="353"/>
  <unicode hex="00B3"/>
  <outline>
    <contour>
      <point x="119" y="456" type="line"/>
      <point x="134" y="459"/>
      <point x="151" y="461"/>
      <point x="159" y="461" type="curve" smooth="yes"/>
      <point x="204" y="461"/>
      <point x="232" y="433"/>
      <point x="232" y="387" type="curve" smooth="yes"/>
      <point x="232" y="337"/>
      <point x="203" y="305"/>
      <point x="157" y="305" type="curve" smooth="yes"/>
      <point x="121" y="305"/>
      <point x="100" y="319"/>
      <point x="76" y="359" type="curve"/>
      <point x="30" y="326" type="line"/>
      <point x="71" y="276"/>
      <point x="102" y="259"/>
      <point x="154" y="259" type="curve" smooth="yes"/>
      <point x="234" y="259"/>
      <point x="290" y="314"/>
      <point x="290" y="393" type="curve" smooth="yes"/>
      <point x="290" y="444"/>
      <point x="262" y="479"/>
      <point x="212" y="492" type="curve"/>
      <point x="248" y="512"/>
      <point x="267" y="543" name="hr01"/>
      <point x="267" y="581" type="curve" smooth="yes"/>
      <point x="267" y="637"/>
      <point x="224" y="675"/>
      <point x="160" y="675" type="curve" smooth="yes"/>
      <point x="111" y="675"/>
      <point x="81" y="656"/>
      <point x="56" y="609" type="curve"/>
      <point x="103" y="582" type="line"/>
      <point x="117" y="620"/>
      <point x="132" y="632"/>
      <point x="160" y="632" type="curve" smooth="yes"/>
      <point x="191" y="632"/>
      <point x="209" y="613"/>
      <point x="209" y="579" type="curve" smooth="yes"/>
      <point x="209" y="537"/>
      <point x="179" y="510"/>
      <point x="133" y="510" type="curve" smooth="yes"/>
      <point x="119" y="510" type="line"/>
    </contour>
  </outline>
</glyph>
<glyph name="acute" format="2">
  <advance width="433"/>
  <unicode hex="00B4"/>
  <outline>
    <contour>
      <point x="310.03" y="703.671" type="line"/>
      <point x="189.049" y="560.693" type="line"/>
      <point x="193.859" y="559.838" type="line"/>
      <point x="363.268" y="689.689" type="line"/>
    </contour>
  </outline>
</glyph>
<glyph name="micro" format="2">
  <advance width="495"/>
  <unicode hex="00B5"/>
  <outline>
    <contour>
      <point x="64.0671" y="445.821" type="line"/>
      <point x="65.8145" y="312.311"/>
      <point x="67.5017" y="183.346"/>
      <point x="69.2491" y="49.8452" type="curve" smooth="yes"/>
      <point x="69.2491" y="-23.8348"/>
      <point x="64.6346" y="-119.445"/>
      <point x="58.0757" y="-196.071" type="curve"/>
      <point x="112.74" y="-196.071" type="line"/>
      <point x="107.931" y="56.4278" type="line"/>
      <point x="163.328" y="9.68656"/>
      <point x="196.251" y="-7.625"/>
      <point x="231.161" y="-7.625" type="curve" smooth="yes"/>
      <point x="272.955" y="-7.625"/>
      <point x="307.505" y="13.1926"/>
      <point x="373.161" y="75.6453" type="curve"/>
      <point x="373.161" y="0" type="line" name="hr01"/>
      <point x="427.929" y="0" type="line"/>
      <point x="427.929" y="445.821" type="line"/>
      <point x="370.982" y="445.821" type="line"/>
      <point x="370.982" y="212.018" type="line" smooth="yes"/>
      <point x="370.982" y="137.443"/>
      <point x="365.745" y="113.182"/>
      <point x="342.179" y="85.688" type="curve" smooth="yes"/>
      <point x="317.595" y="57.2229"/>
      <point x="279.382" y="41.6964"/>
      <point x="237.696" y="41.6964" type="curve" smooth="yes"/>
      <point x="200.055" y="41.6964"/>
      <point x="168.563" y="55.0811"/>
      <point x="147.147" y="80.512" type="curve" smooth="yes"/>
      <point x="123.587" y="109.307"/>
      <point x="119.661" y="128.665" name="hr02"/>
      <point x="119.661" y="206.571" type="curve" smooth="yes"/>
      <point x="119.661" y="445.821" type="line"/>
    </contour>
  </outline>
</glyph>
<glyph name="paragraph" format="2">
  <advance width="514"/>
  <unicode hex="00B6"/>
  <outline>
    <contour>
      <point x="380.589" y="659.917" type="line"/>
      <point x="380.589" y="-91.1574" type="line"/>
      <point x="391.468" y="-91.1574" type="line"/>
      <point x="391.468" y="661.706" type="line"/>
      <point x="497.526" y="671.929" type="line"/>
      <point x="479.445" y="652.021" type="line"/>
      <point x="479.445" y="667" type="line"/>
      <point x="220.673" y="667" type="line" smooth="yes"/>
      <point x="152.669" y="667"/>
      <point x="115.449" y="659.961"/>
      <point x="86.4419" y="641.664" type="curve"/>
      <point x="48.28" y="615.391"/>
      <point x="23.3793" y="565.154"/>
      <point x="23.3793" y="509.985" type="curve" smooth="yes"/>
      <point x="23.3793" y="448.887"/>
      <point x="53.0509" y="395.874"/>
      <point x="103.218" y="362.523" type="curve"/>
      <point x="140.069" y="339.521"/>
      <point x="175.089" y="328.528"/>
      <point x="255.513" y="318.925" type="curve"/>
      <point x="255.513" y="-91.1574" type="line"/>
      <point x="266.391" y="-91.1574" type="line"/>
      <point x="266.391" y="645.235" type="line"/>
    </contour>
  </outline>
</glyph>
<glyph name="periodcentered" format="2">
  <advance width="237"/>
  <unicode hex="00B7"/>
  <outline>
    <contour>
      <point x="119" y="297" type="curve" smooth="yes"/>
      <point x="87" y="297"/>
      <point x="60" y="270"/>
      <point x="60" y="239" type="curve" smooth="yes"/>
      <point x="60" y="206"/>
      <point x="87" y="179"/>
      <point x="119" y="179" type="curve" smooth="yes"/>
      <point x="151" y="179"/>
      <point x="178" y="206"/>
      <point x="178" y="238" type="curve" smooth="yes"/>
      <point x="178" y="271"/>
      <point x="152" y="297"/>
    </contour>
  </outline>
</glyph>
<glyph name="cedilla" format="2">
  <advance width="482"/>
  <unicode hex="00B8"/>
  <outline>
    <contour>
      <point x="233.803" y="-86.0581" type="line"/>
      <point x="251.255" y="-103.287"/>
      <point x="259.513" y="-120.032"/>
      <point x="259.513" y="-139.777" type="curve" smooth="yes"/>
      <point x="259.513" y="-180.789"/>
      <point x="240.266" y="-202.701"/>
      <point x="183.809" y="-223.231" type="curve"/>
      <point x="188.444" y="-188.05" type="line"/>
      <point x="210.927" y="-203.788" type="line"/>
      <point x="248.533" y="-186.64"/>
      <point x="297.951" y="-160.926"/>
      <point x="297.951" y="-112.217" type="curve" smooth="yes"/>
      <point x="297.951" y="-93.3323"/>
      <point x="291.856" y="-78.9416"/>
      <point x="273.063" y="-58.0153" type="curve"/>
    </contour>
  </outline>
</glyph>
<glyph name="onesuperior" format="2">
  <advance width="353"/>
  <unicode hex="00B9"/>
  <outline>
    <contour>
      <point x="243" y="667" type="line"/>
      <point x="210" y="667" type="line"/>
      <point x="186" y="622"/>
      <point x="162" y="610"/>
      <point x="82" y="604" type="curve"/>
      <point x="82" y="574" type="line"/>
      <point x="187" y="578" type="line"/>
      <point x="187" y="267" type="line"/>
      <point x="243" y="267" type="line"/>
    </contour>
  </outline>
</glyph>
<glyph name="ordmasculine" format="2">
  <advance width="353"/>
  <unicode hex="00BA"/>
  <outline>
    <contour>
      <point x="177" y="673" type="curve" smooth="yes"/>
      <point x="97" y="673"/>
      <point x="44" y="618"/>
      <point x="44" y="535" type="curve" smooth="yes"/>
      <point x="44" y="449"/>
      <point x="95" y="394"/>
      <point x="177" y="394" type="curve" smooth="yes"/>
      <point x="257" y="394"/>
      <point x="309" y="449"/>
      <point x="309" y="533" type="curve" smooth="yes"/>
      <point x="309" y="618"/>
      <point x="257" y="673"/>
    </contour>
    <contour>
      <point x="177" y="629" type="curve" smooth="yes"/>
      <point x="222" y="629"/>
      <point x="253" y="591"/>
      <point x="253" y="534" type="curve" smooth="yes"/>
      <point x="253" y="476"/>
      <point x="222" y="438"/>
      <point x="177" y="438" type="curve" smooth="yes"/>
      <point x="130" y="438"/>
      <point x="100" y="476"/>
      <point x="100" y="535" type="curve" smooth="yes"/>
      <point x="100" y="591"/>
      <point x="131" y="629"/>
    </contour>
  </outline>
</glyph>
<glyph name="guillemotright" format="2">
  <advance width="398"/>
  <unicode hex="00BB"/>
  <outline>
    <contour>
      <point x="50" y="440" type="line"/>
      <point x="117" y="218" type="line"/>
      <point x="55" y="0" type="line"/>
      <point x="86" y="0" type="line"/>
      <point x="202" y="218" type="line"/>
      <point x="86" y="440" type="line"/>
    </contour>
    <contour>
      <point x="203" y="440" type="line"/>
      <point x="270" y="218" type="line"/>
      <point x="208" y="0" type="line"/>
      <point x="239" y="0" type="line"/>
      <point x="355" y="218" type="line"/>
      <point x="239" y="440" type="line"/>
    </contour>
  </outline>
</glyph>
<glyph name="onequarter" format="2">
  <advance width="871"/>
  <unicode hex="00BC"/>
  <outline>
    <contour>
      <point x="228.412" y="667" type="line"/>
      <point x="200.12" y="667" type="line"/>
      <point x="175.876" y="624.55"/>
      <point x="144.123" y="606.972"/>
      <point x="70.1979" y="599.769" type="curve" name="hr01"/>
      <point x="70.1979" y="588.355" type="line"/>
      <point x="185.735" y="594.714" type="line"/>
      <point x="185.735" y="283.012" type="line"/>
      <point x="228.412" y="283.012" type="line"/>
    </contour>
    <contour>
      <point x="669.808" y="681.819" type="line"/>
      <point x="655.539" y="684.197" type="line"/>
      <point x="202.418" y="-13.6077" type="line"/>
      <point x="218.562" y="-16.2021" type="line"/>
    </contour>
    <contour>
      <point x="785.957" y="383.988" type="line"/>
      <point x="728.729" y="383.988" type="line"/>
      <point x="557.784" y="125.559" type="line"/>
      <point x="557.784" y="90.0975" type="line"/>
      <point x="748.579" y="90.0975" type="line"/>
      <point x="748.579" y="0" type="line"/>
      <point x="785.957" y="0" type="line"/>
      <point x="785.957" y="90.0975" type="line"/>
      <point x="844.255" y="90.0975" type="line"/>
      <point x="844.255" y="113.696" type="line"/>
      <point x="785.957" y="113.696" type="line"/>
    </contour>
    <contour>
      <point x="748.579" y="388.835" type="line"/>
      <point x="748.579" y="113.696" type="line"/>
      <point x="579.384" y="113.696" type="line"/>
    </contour>
  </outline>
</glyph>
<glyph name="onehalf" format="2">
  <advance width="869"/>
  <unicode hex="00BD"/>
  <outline>
    <contour>
      <point x="228.412" y="667" type="line"/>
      <point x="200.12" y="667" type="line"/>
      <point x="175.876" y="624.55"/>
      <point x="144.123" y="606.972"/>
      <point x="70.1979" y="599.769" type="curve" name="hr01"/>
      <point x="70.1979" y="588.355" type="line"/>
      <point x="185.735" y="594.714" type="line"/>
      <point x="185.735" y="283.012" type="line"/>
      <point x="228.412" y="283.012" type="line"/>
    </contour>
    <contour>
      <point x="669.808" y="681.819" type="line"/>
      <point x="655.539" y="684.197" type="line"/>
      <point x="202.418" y="-13.6077" type="line"/>
      <point x="218.562" y="-16.2021" type="line"/>
    </contour>
    <contour>
      <point x="818.816" y="26.7781" type="line"/>
      <point x="614.001" y="26.7781" type="line"/>
      <point x="764.787" y="175.071"/>
      <point x="807.156" y="234.575"/>
      <point x="807.156" y="297.991" type="curve" smooth="yes"/>
      <point x="807.156" y="359.226"/>
      <point x="765.474" y="392.468"/>
      <point x="689.36" y="392.468" type="curve" smooth="yes"/>
      <point x="632.35" y="392.468"/>
      <point x="602.655" y="372.85"/>
      <point x="580.48" y="317.833" type="curve"/>
      <point x="614.141" y="299.295" type="line"/>
      <point x="625.412" y="345.448"/>
      <point x="647.468" y="364.63"/>
      <point x="689.36" y="364.63" type="curve" smooth="yes"/>
      <point x="735.828" y="364.63"/>
      <point x="763.418" y="335.738"/>
      <point x="763.418" y="289.511" type="curve" smooth="yes"/>
      <point x="763.418" y="219.289"/>
      <point x="718.474" y="157.047"/>
      <point x="573.684" y="29.2612" type="curve"/>
      <point x="573.684" y="0" type="line"/>
      <point x="818.816" y="0" type="line"/>
    </contour>
  </outline>
</glyph>
<glyph name="threequarters" format="2">
  <advance width="865"/>
  <unicode hex="00BE"/>
  <outline>
    <contour>
      <point x="122.496" y="475.69" type="line"/>
      <point x="129.511" y="476.529"/>
      <point x="134.782" y="476.987"/>
      <point x="138.535" y="476.987" type="curve" smooth="yes"/>
      <point x="197.568" y="476.987"/>
      <point x="233.793" y="443.805"/>
      <point x="233.793" y="391.268" type="curve" smooth="yes"/>
      <point x="233.793" y="336.929"/>
      <point x="196.992" y="300.25"/>
      <point x="143.835" y="300.25" type="curve" smooth="yes"/>
      <point x="104.531" y="300.25"/>
      <point x="79.6612" y="314.206"/>
      <point x="60.2573" y="350.438" type="curve"/>
      <point x="26.0513" y="333.335" type="line"/>
      <point x="56.1706" y="288.134"/>
      <point x="85.5121" y="273.472"/>
      <point x="140.655" y="273.472" type="curve" smooth="yes"/>
      <point x="224.052" y="273.472"/>
      <point x="279.651" y="321.681"/>
      <point x="279.651" y="394.448" type="curve" smooth="yes"/>
      <point x="279.651" y="435.429"/>
      <point x="241.307" y="468.07"/>
      <point x="171.993" y="487.242" type="curve"/>
      <point x="228.718" y="521.276"/>
      <point x="259.511" y="556.674"/>
      <point x="259.511" y="589.483" type="curve" smooth="yes"/>
      <point x="259.511" y="642.801"/>
      <point x="215.289" y="675.48"/>
      <point x="144.895" y="675.48" type="curve" smooth="yes"/>
      <point x="92.6697" y="675.48"/>
      <point x="63.6292" y="660.542"/>
      <point x="43.8516" y="619.944" type="curve"/>
      <point x="77.7379" y="604.994" type="line"/>
      <point x="91.4379" y="638.64"/>
      <point x="111.943" y="651.882"/>
      <point x="145.955" y="651.882" type="curve" smooth="yes"/>
      <point x="189.303" y="651.882"/>
      <point x="214.714" y="626.628"/>
      <point x="214.714" y="582.063" type="curve" smooth="yes"/>
      <point x="214.714" y="531.701"/>
      <point x="177.363" y="499.525"/>
      <point x="117.336" y="499.525" type="curve" smooth="yes"/>
      <point x="102.496" y="499.525" type="line"/>
      <point x="122.496" y="519.525" type="line"/>
    </contour>
    <contour>
      <point x="663.755" y="681.737" type="line"/>
      <point x="648.501" y="684.233" type="line"/>
      <point x="195.409" y="-13.53" type="line"/>
      <point x="212.54" y="-16.235" type="line" name="hr01"/>
    </contour>
    <contour>
      <point x="779.957" y="383.988" type="line"/>
      <point x="722.694" y="383.988" type="line"/>
      <point x="550.724" y="125.53" type="line"/>
      <point x="550.724" y="90.0975" type="line"/>
      <point x="742.579" y="90.0975" type="line"/>
      <point x="742.579" y="0" type="line"/>
      <point x="779.957" y="0" type="line"/>
      <point x="779.957" y="90.0975" type="line"/>
      <point x="838.255" y="90.0975" type="line"/>
      <point x="838.255" y="113.696" type="line"/>
      <point x="779.957" y="113.696" type="line"/>
    </contour>
    <contour>
      <point x="742.579" y="388.277" type="line"/>
      <point x="742.579" y="113.696" type="line"/>
      <point x="572.149" y="113.696" type="line"/>
    </contour>
  </outline>
</glyph>
<glyph name="questiondown" format="2">
  <advance width="338"/>
  <unicode hex="00BF"/>
  <outline>
    <contour>
      <point x="251" y="-17" type="line"/>
      <point x="241" y="-66"/>
      <point x="215" y="-91"/>
      <point x="173" y="-91" type="curve" smooth="yes"/>
      <point x="128" y="-91"/>
      <point x="97" y="-60"/>
      <point x="97" y="-16" type="curve" smooth="yes"/>
      <point x="97" y="26"/>
      <point x="116" y="59"/>
      <point x="172" y="114" type="curve" smooth="yes"/>
      <point x="233" y="173"/>
      <point x="252" y="207"/>
      <point x="252" y="258" type="curve" smooth="yes"/>
      <point x="252" y="292"/>
      <point x="243" y="316"/>
      <point x="219" y="343" type="curve"/>
      <point x="143" y="343" type="line"/>
      <point x="169" y="313"/>
      <point x="181" y="282"/>
      <point x="181" y="251" type="curve" smooth="yes"/>
      <point x="181" y="224"/>
      <point x="168" y="199"/>
      <point x="140" y="169" type="curve" smooth="yes"/>
      <point x="74" y="97"/>
      <point x="74" y="97"/>
      <point x="60" y="76" type="curve" smooth="yes"/>
      <point x="40" y="48"/>
      <point x="28" y="9"/>
      <point x="28" y="-24" type="curve" smooth="yes"/>
      <point x="28" y="-63"/>
      <point x="44" y="-101"/>
      <point x="71" y="-126" type="curve" smooth="yes"/>
      <point x="95" y="-149"/>
      <point x="125" y="-160"/>
      <point x="165" y="-160" type="curve" smooth="yes"/>
      <point x="243" y="-160"/>
      <point x="291" y="-125"/>
      <point x="318" y="-49" type="curve"/>
    </contour>
    <contour>
      <point x="186" y="534" type="curve" smooth="yes"/>
      <point x="157" y="534"/>
      <point x="133" y="510" name="hr01"/>
      <point x="133" y="480" type="curve" smooth="yes"/>
      <point x="133" y="451"/>
      <point x="157" y="427"/>
      <point x="187" y="427" type="curve" smooth="yes"/>
      <point x="216" y="427"/>
      <point x="240" y="451"/>
      <point x="240" y="480" type="curve" smooth="yes"/>
      <point x="240" y="510"/>
      <point x="216" y="534"/>
    </contour>
  </outline>
</glyph>
<glyph name="Agrave" format="2">
  <advance width="601"/>
  <unicode hex="00C0"/>
  <outline>
    <contour>
      <point x="354.508" y="667" type="line"/>
      <point x="249.64" y="667" type="line"/>
      <point x="-8.35954" y="0" type="line"/>
      <point x="75.6414" y="0" type="line"/>
      <point x="144.539" y="189.735" type="line"/>
      <point x="441.802" y="189.735" type="line"/>
      <point x="510.7" y="0" type="line"/>
      <point x="601.508" y="0" type="line"/>
    </contour>
    <contour>
      <point x="424.375" y="243.012" type="line"/>
      <point x="164.84" y="243.012" type="line"/>
      <point x="296.646" y="600.382" type="line"/>
    </contour>
    <contour>
      <point x="207.057" y="904.502" type="line"/>
      <point x="153.787" y="887.478" type="line"/>
      <point x="325.8" y="758.034" type="line"/>
      <point x="330.653" y="758.896" type="line"/>
    </contour>
  </outline>
</glyph>
<glyph name="Aacute" format="2">
  <advance width="601"/>
  <unicode hex="00C1"/>
  <outline>
    <contour>
      <point x="354.508" y="667" type="line"/>
      <point x="249.64" y="667" type="line"/>
      <point x="-8.35954" y="0" type="line"/>
      <point x="75.6414" y="0" type="line"/>
      <point x="144.539" y="189.735" type="line"/>
      <point x="441.802" y="189.735" type="line"/>
      <point x="510.7" y="0" type="line"/>
      <point x="601.508" y="0" type="line"/>
    </contour>
    <contour>
      <point x="424.375" y="243.012" type="line"/>
      <point x="164.84" y="243.012" type="line"/>
      <point x="296.646" y="600.382" type="line"/>
    </contour>
    <contour>
      <point x="422.233" y="903.056" type="line"/>
      <point x="301.322" y="761.006" type="line"/>
      <point x="306.016" y="760.172" type="line"/>
      <point x="475.033" y="889.723" type="line"/>
    </contour>
  </outline>
</glyph>
<glyph name="Acircumflex" format="2">
  <advance width="601"/>
  <unicode hex="00C2"/>
  <outline>
    <contour>
      <point x="354.508" y="667" type="line"/>
      <point x="249.64" y="667" type="line"/>
      <point x="-8.35954" y="0" type="line"/>
      <point x="75.6414" y="0" type="line"/>
      <point x="144.539" y="189.735" type="line"/>
      <point x="441.802" y="189.735" type="line"/>
      <point x="510.7" y="0" type="line"/>
      <point x="601.508" y="0" type="line"/>
    </contour>
    <contour>
      <point x="424.375" y="243.012" type="line"/>
      <point x="164.84" y="243.012" type="line"/>
      <point x="296.646" y="600.382" type="line"/>
    </contour>
    <contour>
      <point x="326.658" y="904.433" type="line"/>
      <point x="274.593" y="904.433" type="line"/>
      <point x="127.924" y="739.431" type="line"/>
      <point x="117.366" y="772.23" type="line"/>
      <point x="150.312" y="764.817" type="line"/>
      <point x="300.432" y="886.447" type="line"/>
      <point x="459.263" y="760.993" type="line"/>
      <point x="441.777" y="764.64" type="line"/>
      <point x="450.354" y="766.897" type="line"/>
    </contour>
  </outline>
</glyph>
<glyph name="Atilde" format="2">
  <advance width="599"/>
  <unicode hex="00C3"/>
  <outline>
    <contour>
      <point x="337" y="667" type="line"/>
      <point x="263" y="667" type="line"/>
      <point x="-3" y="0" type="line"/>
      <point x="83" y="0" type="line"/>
      <point x="163" y="216" type="line"/>
      <point x="434" y="216" type="line"/>
      <point x="517" y="0" type="line"/>
      <point x="603" y="0" type="line"/>
    </contour>
    <contour>
      <point x="408" y="281" type="line"/>
      <point x="189" y="281" type="line"/>
      <point x="297" y="569" type="line"/>
    </contour>
    <contour>
      <point x="441" y="835" type="line"/>
      <point x="421" y="803"/>
      <point x="409" y="794"/>
      <point x="389" y="794" type="curve" smooth="yes"/>
      <point x="376" y="794"/>
      <point x="353" y="801"/>
      <point x="321" y="815" type="curve" smooth="yes"/>
      <point x="277" y="835"/>
      <point x="269" y="837" name="hr01"/>
      <point x="250" y="837" type="curve" smooth="yes"/>
      <point x="221" y="837"/>
      <point x="200" y="822"/>
      <point x="144" y="761" type="curve"/>
      <point x="162" y="744" type="line" name="hr02"/>
      <point x="199" y="779"/>
      <point x="216" y="789" name="hr03"/>
      <point x="238" y="789" type="curve" smooth="yes"/>
      <point x="252" y="789"/>
      <point x="261" y="786"/>
      <point x="287" y="776" type="curve" smooth="yes"/>
      <point x="312" y="766"/>
      <point x="312" y="766"/>
      <point x="324" y="760" type="curve" smooth="yes"/>
      <point x="358" y="745"/>
      <point x="362" y="744" name="hr04"/>
      <point x="373" y="744" type="curve" smooth="yes"/>
      <point x="403" y="744"/>
      <point x="440" y="777"/>
      <point x="463" y="822" type="curve"/>
    </contour>
  </outline>
</glyph>
<glyph name="Adieresis" format="2">
  <advance width="599"/>
  <unicode hex="00C4"/>
  <outline>
    <contour>
      <point x="337" y="667" type="line"/>
      <point x="263" y="667" type="line"/>
      <point x="-3" y="0" type="line"/>
      <point x="83" y="0" type="line"/>
      <point x="163" y="216" type="line"/>
      <point x="434" y="216" type="line"/>
      <point x="517" y="0" type="line"/>
      <point x="603" y="0" type="line"/>
    </contour>
    <contour>
      <point x="408" y="281" type="line"/>
      <point x="189" y="281" type="line"/>
      <point x="297" y="569" type="line"/>
    </contour>
    <contour>
      <point x="200" y="848" type="curve" smooth="yes"/>
      <point x="170" y="848"/>
      <point x="145" y="823"/>
      <point x="145" y="793" type="curve" smooth="yes"/>
      <point x="145" y="762"/>
      <point x="170" y="737"/>
      <point x="201" y="737" type="curve" smooth="yes"/>
      <point x="231" y="737"/>
      <point x="256" y="762"/>
      <point x="256" y="793" type="curve" smooth="yes"/>
      <point x="256" y="823"/>
      <point x="231" y="848"/>
    </contour>
    <contour>
      <point x="400" y="848" type="curve" smooth="yes"/>
      <point x="370" y="848"/>
      <point x="345" y="823"/>
      <point x="345" y="793" type="curve" smooth="yes"/>
      <point x="345" y="762"/>
      <point x="370" y="737"/>
      <point x="401" y="737" type="curve" smooth="yes"/>
      <point x="431" y="737"/>
      <point x="456" y="762"/>
      <point x="456" y="793" type="curve" smooth="yes"/>
      <point x="456" y="823"/>
      <point x="431" y="848"/>
    </contour>
  </outline>
</glyph>
<glyph name="Aring" format="2">
  <advance width="601"/>
  <unicode hex="00C5"/>
  <outline>
    <contour>
      <point x="354.508" y="667" type="line"/>
      <point x="249.64" y="667" type="line"/>
      <point x="-8.35954" y="0" type="line"/>
      <point x="75.6414" y="0" type="line"/>
      <point x="144.539" y="189.735" type="line"/>
      <point x="441.802" y="189.735" type="line"/>
      <point x="510.7" y="0" type="line"/>
      <point x="601.508" y="0" type="line"/>
    </contour>
    <contour>
      <point x="424.375" y="243.012" type="line"/>
      <point x="164.84" y="243.012" type="line"/>
      <point x="296.646" y="600.382" type="line"/>
    </contour>
    <contour>
      <point x="300.591" y="917.153" type="curve" smooth="yes"/>
      <point x="245.267" y="917.153"/>
      <point x="203.994" y="881.206"/>
      <point x="203.994" y="833.276" type="curve" smooth="yes"/>
      <point x="203.994" y="783.398"/>
      <point x="244.389" y="747.279"/>
      <point x="300.591" y="747.279" type="curve" smooth="yes"/>
      <point x="355.809" y="747.279"/>
      <point x="396.127" y="783.313"/>
      <point x="396.127" y="832.216" type="curve" smooth="yes"/>
      <point x="396.127" y="881.119"/>
      <point x="355.809" y="917.153"/>
    </contour>
    <contour>
      <point x="300.591" y="911.574" type="curve" smooth="yes"/>
      <point x="346.949" y="911.574"/>
      <point x="382.069" y="876.146"/>
      <point x="382.069" y="832.216" type="curve" smooth="yes"/>
      <point x="382.069" y="788.285"/>
      <point x="346.798" y="752.858"/>
      <point x="301.651" y="752.858" type="curve" smooth="yes"/>
      <point x="255.292" y="752.858"/>
      <point x="220.172" y="786.718"/>
      <point x="220.172" y="833.276" type="curve" smooth="yes"/>
      <point x="220.172" y="875.984"/>
      <point x="255.444" y="911.574"/>
    </contour>
  </outline>
</glyph>
<glyph name="AE" format="2">
  <advance width="794"/>
  <unicode hex="00C6"/>
  <outline>
    <contour>
      <point x="467.325" y="607.363" type="line"/>
      <point x="720.658" y="607.363" type="line"/>
      <point x="720.658" y="667" type="line"/>
      <point x="326.436" y="667" type="line"/>
      <point x="-36.5643" y="0" type="line"/>
      <point x="57.5316" y="0" type="line"/>
      <point x="149.749" y="178.075" type="line"/>
      <point x="389.669" y="178.075" type="line"/>
      <point x="389.669" y="0" type="line"/>
      <point x="759.877" y="0" type="line"/>
      <point x="759.877" y="59.6372" type="line"/>
      <point x="467.325" y="59.6372" type="line"/>
      <point x="467.325" y="309.511" type="line"/>
      <point x="720.658" y="309.511" type="line"/>
      <point x="720.658" y="365.969" type="line"/>
      <point x="467.325" y="365.969" type="line"/>
    </contour>
    <contour>
      <point x="356.014" y="585.504" type="line"/>
      <point x="389.669" y="577.394" type="line"/>
      <point x="389.669" y="231.352" type="line"/>
      <point x="174.793" y="231.352" type="line"/>
    </contour>
  </outline>
</glyph>
<glyph name="Ccedilla" format="2">
  <advance width="637"/>
  <unicode hex="00C7"/>
  <outline>
    <contour>
      <point x="627" y="573" type="line"/>
      <point x="592" y="615"/>
      <point x="571" y="632"/>
      <point x="535" y="649" type="curve" smooth="yes"/>
      <point x="493" y="669"/>
      <point x="440" y="680"/>
      <point x="386" y="680" type="curve" smooth="yes"/>
      <point x="183" y="680"/>
      <point x="50" y="540"/>
      <point x="50" y="327" type="curve" smooth="yes"/>
      <point x="50" y="213"/>
      <point x="91" y="111"/>
      <point x="159" y="56" type="curve" smooth="yes"/>
      <point x="213" y="13"/>
      <point x="299" y="-13"/>
      <point x="385" y="-13" type="curve" smooth="yes"/>
      <point x="441" y="-13"/>
      <point x="493" y="-2"/>
      <point x="535" y="18" type="curve" smooth="yes"/>
      <point x="572" y="36"/>
      <point x="592" y="52"/>
      <point x="627" y="94" type="curve"/>
      <point x="569" y="150" type="line"/>
      <point x="549" y="115"/>
      <point x="537" y="100"/>
      <point x="515" y="85" type="curve" smooth="yes"/>
      <point x="483" y="63"/>
      <point x="435" y="50"/>
      <point x="387" y="50" type="curve" smooth="yes"/>
      <point x="315" y="50"/>
      <point x="242" y="79"/>
      <point x="201" y="124" type="curve" smooth="yes"/>
      <point x="161" y="167"/>
      <point x="137" y="244"/>
      <point x="137" y="328" type="curve" smooth="yes"/>
      <point x="137" y="504"/>
      <point x="234" y="617"/>
      <point x="387" y="617" type="curve" smooth="yes"/>
      <point x="474" y="617"/>
      <point x="530" y="586"/>
      <point x="569" y="518" type="curve"/>
    </contour>
    <contour>
      <point x="307" y="-59" type="line"/>
      <point x="335" y="-75"/>
      <point x="347" y="-90"/>
      <point x="347" y="-111" type="curve" smooth="yes"/>
      <point x="347" y="-136"/>
      <point x="332" y="-153"/>
      <point x="296" y="-171" type="curve"/>
      <point x="333" y="-187" type="line"/>
      <point x="385" y="-155"/>
      <point x="407" y="-125"/>
      <point x="407" y="-87" type="curve" smooth="yes"/>
      <point x="407" y="-57"/>
      <point x="395" y="-36"/>
      <point x="363" y="-13" type="curve"/>
    </contour>
  </outline>
</glyph>
<glyph name="Egrave" format="2">
  <advance width="511"/>
  <unicode hex="00C8"/>
  <outline>
    <contour>
      <point x="172.294" y="367.028" type="line"/>
      <point x="172.294" y="607.363" type="line"/>
      <point x="436.226" y="607.363" type="line"/>
      <point x="436.226" y="667" type="line"/>
      <point x="85.0975" y="667" type="line"/>
      <point x="85.0975" y="0" type="line"/>
      <point x="475.445" y="0" type="line"/>
      <point x="475.445" y="59.6372" type="line"/>
      <point x="172.294" y="59.6372" type="line"/>
      <point x="172.294" y="310.571" type="line"/>
      <point x="436.226" y="310.571" type="line"/>
      <point x="436.226" y="367.028" type="line"/>
    </contour>
    <contour>
      <point x="196.277" y="904.502" type="line"/>
      <point x="143.007" y="887.478" type="line"/>
      <point x="315.021" y="758.034" type="line"/>
      <point x="319.873" y="758.896" type="line"/>
    </contour>
  </outline>
</glyph>
<glyph name="Eacute" format="2">
  <advance width="489"/>
  <unicode hex="00C9"/>
  <outline>
    <contour>
      <point x="173" y="372" type="line"/>
      <point x="173" y="604" type="line"/>
      <point x="419" y="604" type="line"/>
      <point x="419" y="667" type="line"/>
      <point x="93" y="667" type="line"/>
      <point x="93" y="0" type="line"/>
      <point x="455" y="0" type="line"/>
      <point x="455" y="63" type="line"/>
      <point x="173" y="63" type="line"/>
      <point x="173" y="309" type="line"/>
      <point x="419" y="309" type="line"/>
      <point x="419" y="372" type="line"/>
    </contour>
    <contour>
      <point x="326" y="880" type="line"/>
      <point x="189" y="718" type="line"/>
      <point x="224" y="712" type="line"/>
      <point x="405" y="864" type="line"/>
    </contour>
  </outline>
</glyph>
<glyph name="Ecircumflex" format="2">
  <advance width="489"/>
  <unicode hex="00CA"/>
  <outline>
    <contour>
      <point x="173" y="372" type="line"/>
      <point x="173" y="604" type="line"/>
      <point x="419" y="604" type="line"/>
      <point x="419" y="667" type="line"/>
      <point x="93" y="667" type="line"/>
      <point x="93" y="0" type="line"/>
      <point x="455" y="0" type="line"/>
      <point x="455" y="63" type="line"/>
      <point x="173" y="63" type="line"/>
      <point x="173" y="309" type="line"/>
      <point x="419" y="309" type="line"/>
      <point x="419" y="372" type="line"/>
    </contour>
    <contour>
      <point x="282" y="878" type="line"/>
      <point x="226" y="878" type="line"/>
      <point x="94" y="719" type="line"/>
      <point x="126" y="713" type="line"/>
      <point x="254" y="829" type="line"/>
      <point x="384" y="713" type="line"/>
      <point x="414" y="719" type="line"/>
    </contour>
  </outline>
</glyph>
<glyph name="Edieresis" format="2">
  <advance width="511"/>
  <unicode hex="00CB"/>
  <outline>
    <contour>
      <point x="172.294" y="367.028" type="line"/>
      <point x="172.294" y="607.363" type="line"/>
      <point x="436.226" y="607.363" type="line"/>
      <point x="436.226" y="667" type="line"/>
      <point x="85.0975" y="667" type="line" name="hr01"/>
      <point x="85.0975" y="0" type="line"/>
      <point x="475.445" y="0" type="line"/>
      <point x="475.445" y="59.6372" type="line"/>
      <point x="172.294" y="59.6372" type="line"/>
      <point x="172.294" y="310.571" type="line"/>
      <point x="436.226" y="310.571" type="line"/>
      <point x="436.226" y="367.028" type="line"/>
    </contour>
    <contour>
      <point x="148.835" y="876.874" type="curve" smooth="yes"/>
      <point x="122.105" y="876.874"/>
      <point x="102.057" y="857.107"/>
      <point x="102.057" y="832.216" type="curve" smooth="yes"/>
      <point x="102.057" y="805.486"/>
      <point x="121.966" y="785.438"/>
      <point x="147.775" y="785.438" type="curve" smooth="yes"/>
      <point x="173.584" y="785.438"/>
      <point x="193.493" y="805.347"/>
      <point x="193.493" y="831.156" type="curve" smooth="yes"/>
      <point x="193.493" y="856.965"/>
      <point x="173.727" y="876.874"/>
    </contour>
    <contour>
      <point x="376.729" y="876.874" type="curve" smooth="yes"/>
      <point x="350.92" y="876.874"/>
      <point x="331.01" y="857.107"/>
      <point x="331.01" y="832.216" type="curve" smooth="yes"/>
      <point x="331.01" y="805.486"/>
      <point x="350.045" y="785.438"/>
      <point x="375.669" y="785.438" type="curve" smooth="yes"/>
      <point x="401.657" y="785.438"/>
      <point x="422.447" y="805.347"/>
      <point x="422.447" y="831.156" type="curve" smooth="yes"/>
      <point x="422.447" y="856.965"/>
      <point x="402.537" y="876.874"/>
    </contour>
  </outline>
</glyph>
<glyph name="Igrave" format="2">
  <advance width="240"/>
  <unicode hex="00CC"/>
  <outline>
    <contour>
      <point x="158.294" y="667" type="line"/>
      <point x="71.0975" y="667" type="line"/>
      <point x="71.0975" y="0" type="line"/>
      <point x="158.294" y="0" type="line"/>
    </contour>
    <contour>
      <point x="41.3517" y="904.18" type="line"/>
      <point x="-13.1375" y="886.765" type="line"/>
      <point x="140.519" y="758.143" type="line"/>
      <point x="147.432" y="759.372" type="line"/>
    </contour>
  </outline>
</glyph>
<glyph name="Iacute" format="2">
  <advance width="243"/>
  <unicode hex="00CD"/>
  <outline>
    <contour>
      <point x="169.054" y="667" type="line"/>
      <point x="81.8576" y="667" type="line"/>
      <point x="81.8576" y="0" type="line"/>
      <point x="169.054" y="0" type="line"/>
    </contour>
    <contour>
      <point x="222.667" y="902.801" type="line"/>
      <point x="119.209" y="761.493" type="line"/>
      <point x="126.019" y="760.283" type="line"/>
      <point x="276.996" y="889.082" type="line"/>
    </contour>
  </outline>
</glyph>
<glyph name="Icircumflex" format="2">
  <advance width="240"/>
  <unicode hex="00CE"/>
  <outline>
    <contour>
      <point x="163.294" y="667" type="line"/>
      <point x="76.0975" y="667" type="line"/>
      <point x="76.0975" y="0" type="line"/>
      <point x="163.294" y="0" type="line"/>
    </contour>
    <contour>
      <point x="145.92" y="904.433" type="line"/>
      <point x="95.6544" y="904.433" type="line"/>
      <point x="-10.7877" y="765.372" type="line"/>
      <point x="-9.28325" y="765.033" type="line"/>
      <point x="120.573" y="888.231" type="line"/>
      <point x="251.81" y="767.552" type="line"/>
    </contour>
  </outline>
</glyph>
<glyph name="Idieresis" format="2">
  <advance width="269"/>
  <unicode hex="00CF"/>
  <outline>
    <contour>
      <point x="178.294" y="667" type="line"/>
      <point x="91.0975" y="667" type="line"/>
      <point x="91.0975" y="0" type="line"/>
      <point x="178.294" y="0" type="line"/>
    </contour>
    <contour>
      <point x="45.6582" y="876.874" type="curve" smooth="yes"/>
      <point x="18.9278" y="876.874"/>
      <point x="-1.11994" y="857.107" name="hr01"/>
      <point x="-1.11994" y="832.216" type="curve" smooth="yes"/>
      <point x="-1.11994" y="805.486"/>
      <point x="18.7896" y="785.438"/>
      <point x="44.5982" y="785.438" type="curve" smooth="yes"/>
      <point x="70.4068" y="785.438"/>
      <point x="90.3163" y="805.347"/>
      <point x="90.3163" y="831.156" type="curve" smooth="yes"/>
      <point x="90.3163" y="856.965"/>
      <point x="70.5496" y="876.874"/>
    </contour>
    <contour>
      <point x="224.793" y="876.874" type="curve" smooth="yes"/>
      <point x="198.984" y="876.874"/>
      <point x="179.075" y="857.107"/>
      <point x="179.075" y="832.216" type="curve" smooth="yes"/>
      <point x="179.075" y="805.486"/>
      <point x="198.11" y="785.438"/>
      <point x="223.733" y="785.438" type="curve" smooth="yes"/>
      <point x="249.721" y="785.438"/>
      <point x="270.511" y="805.347"/>
      <point x="270.511" y="831.156" type="curve" smooth="yes"/>
      <point x="270.511" y="856.965"/>
      <point x="250.602" y="876.874"/>
    </contour>
  </outline>
</glyph>
<glyph name="Eth" format="2">
  <advance width="682"/>
  <unicode hex="00D0"/>
  <outline>
    <contour>
      <point x="93" y="370" type="line"/>
      <point x="20" y="370" type="line"/>
      <point x="20" y="313" type="line"/>
      <point x="93" y="313" type="line"/>
      <point x="93" y="0" type="line"/>
      <point x="301" y="0" type="line" smooth="yes"/>
      <point x="377" y="0"/>
      <point x="446" y="16"/>
      <point x="491" y="44" type="curve" smooth="yes"/>
      <point x="579" y="98"/>
      <point x="631" y="209"/>
      <point x="631" y="344" type="curve" smooth="yes"/>
      <point x="631" y="461"/>
      <point x="593" y="559"/>
      <point x="526" y="613" type="curve" smooth="yes"/>
      <point x="476" y="652"/>
      <point x="413" y="667"/>
      <point x="301" y="667" type="curve" smooth="yes"/>
      <point x="93" y="667" type="line"/>
    </contour>
    <contour>
      <point x="173" y="370" type="line"/>
      <point x="173" y="604" type="line"/>
      <point x="305" y="604" type="line" smooth="yes"/>
      <point x="392" y="604"/>
      <point x="422" y="597"/>
      <point x="458" y="569" type="curve" smooth="yes"/>
      <point x="514" y="527"/>
      <point x="544" y="446"/>
      <point x="544" y="341" type="curve" smooth="yes"/>
      <point x="544" y="241"/>
      <point x="516" y="161"/>
      <point x="465" y="114" type="curve" smooth="yes"/>
      <point x="430" y="81"/>
      <point x="372" y="63"/>
      <point x="305" y="63" type="curve" smooth="yes"/>
      <point x="173" y="63" type="line"/>
      <point x="173" y="313" type="line"/>
      <point x="359" y="313" type="line"/>
      <point x="359" y="370" type="line"/>
    </contour>
  </outline>
</glyph>
<glyph name="Ntilde" format="2">
  <advance width="747"/>
  <unicode hex="00D1"/>
  <outline>
    <contour>
      <point x="662" y="667" type="line"/>
      <point x="576.924" y="667" type="line"/>
      <point x="576.924" y="116.698" type="line"/>
      <point x="176.808" y="667" type="line"/>
      <point x="85.0975" y="667" type="line"/>
      <point x="85.0975" y="0" type="line"/>
      <point x="170.174" y="0" type="line"/>
      <point x="170.174" y="546.076" type="line"/>
      <point x="567.111" y="0" type="line"/>
      <point x="662" y="0" type="line"/>
    </contour>
    <contour>
      <point x="544.883" y="849.25" type="line"/>
      <point x="522.878" y="826.845"/>
      <point x="498.473" y="814.336"/>
      <point x="474.246" y="814.336" type="curve" smooth="yes"/>
      <point x="457.329" y="814.336"/>
      <point x="442.077" y="818.867"/>
      <point x="394.5" y="838.124" type="curve" smooth="yes"/>
      <point x="347.676" y="858.049"/>
      <point x="334.23" y="862.034"/>
      <point x="317.37" y="862.034" type="curve" smooth="yes"/>
      <point x="291.162" y="862.034"/>
      <point x="274.14" y="848.751"/>
      <point x="235.239" y="800.363" type="curve"/>
      <point x="228.88" y="792.943"/>
      <point x="223.558" y="786.553"/>
      <point x="218.258" y="780.193" type="curve"/>
      <point x="215.909" y="808.182" type="line"/>
      <point x="223.631" y="801.564" type="line"/>
      <point x="256.683" y="836.257"/>
      <point x="267.592" y="841.616"/>
      <point x="297.231" y="841.616" type="curve" smooth="yes"/>
      <point x="315.898" y="841.616"/>
      <point x="340.328" y="834.848"/>
      <point x="384.313" y="816.803" type="curve" smooth="yes"/>
      <point x="445.466" y="791.74"/>
      <point x="447.565" y="790.738"/>
      <point x="459.406" y="790.738" type="curve" smooth="yes"/>
      <point x="482.19" y="790.738"/>
      <point x="501.148" y="805.803" name="hr01"/>
      <point x="538.5" y="855.025" type="curve"/>
    </contour>
  </outline>
</glyph>
<glyph name="Ograve" format="2">
  <advance width="750"/>
  <unicode hex="00D2"/>
  <outline>
    <contour>
      <point x="374.429" y="682.9" type="curve" smooth="yes"/>
      <point x="162.389" y="682.9"/>
      <point x="45.6987" y="549.641"/>
      <point x="45.6987" y="340.39" type="curve" smooth="yes"/>
      <point x="45.6987" y="126.252"/>
      <point x="154.14" y="-14.8396"/>
      <point x="375.489" y="-14.8396" type="curve" smooth="yes"/>
      <point x="590.321" y="-14.8396"/>
      <point x="703.159" y="124.807"/>
      <point x="703.159" y="334.03" type="curve" smooth="yes"/>
      <point x="703.159" y="545.948"/>
      <point x="591.455" y="682.9"/>
    </contour>
    <contour>
      <point x="374.429" y="623.262" type="curve" smooth="yes"/>
      <point x="516.006" y="623.262"/>
      <point x="605.363" y="511.669"/>
      <point x="605.363" y="334.03" type="curve" smooth="yes"/>
      <point x="605.363" y="156.391"/>
      <point x="516.006" y="44.7976"/>
      <point x="374.429" y="44.7976" type="curve" smooth="yes"/>
      <point x="231.691" y="44.7976"/>
      <point x="143.495" y="156.272"/>
      <point x="143.495" y="338.27" type="curve" smooth="yes"/>
      <point x="143.495" y="511.545"/>
      <point x="234.012" y="623.262"/>
    </contour>
    <contour>
      <point x="285.135" y="904.502" type="line"/>
      <point x="231.865" y="887.478" type="line"/>
      <point x="403.878" y="758.034" type="line"/>
      <point x="408.731" y="758.896" type="line"/>
    </contour>
  </outline>
</glyph>
<glyph name="Oacute" format="2">
  <advance width="750"/>
  <unicode hex="00D3"/>
  <outline>
    <contour>
      <point x="374.429" y="682.9" type="curve" smooth="yes"/>
      <point x="162.389" y="682.9"/>
      <point x="45.6987" y="549.641"/>
      <point x="45.6987" y="340.39" type="curve" smooth="yes"/>
      <point x="45.6987" y="126.252"/>
      <point x="154.14" y="-14.8396"/>
      <point x="375.489" y="-14.8396" type="curve" smooth="yes"/>
      <point x="590.321" y="-14.8396"/>
      <point x="703.159" y="124.807"/>
      <point x="703.159" y="334.03" type="curve" smooth="yes"/>
      <point x="703.159" y="545.948"/>
      <point x="591.455" y="682.9"/>
    </contour>
    <contour>
      <point x="374.429" y="623.262" type="curve" smooth="yes"/>
      <point x="516.006" y="623.262"/>
      <point x="605.363" y="511.669"/>
      <point x="605.363" y="334.03" type="curve" smooth="yes"/>
      <point x="605.363" y="156.391"/>
      <point x="516.006" y="44.7976"/>
      <point x="374.429" y="44.7976" type="curve" smooth="yes"/>
      <point x="231.691" y="44.7976"/>
      <point x="143.495" y="156.272"/>
      <point x="143.495" y="338.27" type="curve" smooth="yes"/>
      <point x="143.495" y="511.545"/>
      <point x="234.012" y="623.262"/>
    </contour>
    <contour>
      <point x="454.732" y="903.056" type="line"/>
      <point x="333.821" y="761.006" type="line"/>
      <point x="338.516" y="760.172" type="line"/>
      <point x="507.532" y="889.723" type="line"/>
    </contour>
  </outline>
</glyph>
<glyph name="Ocircumflex" format="2">
  <advance width="734"/>
  <unicode hex="00D4"/>
  <outline>
    <contour>
      <point x="367" y="680" type="curve" smooth="yes"/>
      <point x="277" y="680"/>
      <point x="202" y="653"/>
      <point x="146" y="600" type="curve" smooth="yes"/>
      <point x="83" y="541"/>
      <point x="50" y="452"/>
      <point x="50" y="339" type="curve" smooth="yes"/>
      <point x="50" y="214"/>
      <point x="80" y="130"/>
      <point x="146" y="67" type="curve" smooth="yes"/>
      <point x="201" y="14"/>
      <point x="276" y="-13"/>
      <point x="368" y="-13" type="curve" smooth="yes"/>
      <point x="457" y="-13"/>
      <point x="533" y="15"/>
      <point x="588" y="67" type="curve" smooth="yes"/>
      <point x="653" y="129"/>
      <point x="684" y="216"/>
      <point x="684" y="334" type="curve" smooth="yes"/>
      <point x="684" y="452"/>
      <point x="653" y="539"/>
      <point x="588" y="600" type="curve" smooth="yes"/>
      <point x="532" y="653"/>
      <point x="458" y="680"/>
    </contour>
    <contour>
      <point x="367" y="617" type="curve" smooth="yes"/>
      <point x="510" y="617"/>
      <point x="597" y="510"/>
      <point x="597" y="334" type="curve" smooth="yes"/>
      <point x="597" y="157"/>
      <point x="510" y="50"/>
      <point x="367" y="50" type="curve" smooth="yes"/>
      <point x="222" y="50"/>
      <point x="137" y="156"/>
      <point x="137" y="338" type="curve" smooth="yes"/>
      <point x="137" y="510"/>
      <point x="225" y="617"/>
    </contour>
    <contour>
      <point x="395" y="878" type="line"/>
      <point x="339" y="878" type="line"/>
      <point x="207" y="719" type="line"/>
      <point x="239" y="713" type="line"/>
      <point x="367" y="829" type="line"/>
      <point x="497" y="713" type="line"/>
      <point x="527" y="719" type="line"/>
    </contour>
  </outline>
</glyph>
<glyph name="Otilde" format="2">
  <advance width="734"/>
  <unicode hex="00D5"/>
  <outline>
    <contour>
      <point x="367" y="680" type="curve" smooth="yes"/>
      <point x="277" y="680"/>
      <point x="202" y="653"/>
      <point x="146" y="600" type="curve" smooth="yes"/>
      <point x="83" y="541"/>
      <point x="50" y="452"/>
      <point x="50" y="339" type="curve" smooth="yes"/>
      <point x="50" y="214"/>
      <point x="80" y="130"/>
      <point x="146" y="67" type="curve" smooth="yes"/>
      <point x="201" y="14"/>
      <point x="276" y="-13"/>
      <point x="368" y="-13" type="curve" smooth="yes"/>
      <point x="457" y="-13"/>
      <point x="533" y="15"/>
      <point x="588" y="67" type="curve" smooth="yes"/>
      <point x="653" y="129"/>
      <point x="684" y="216"/>
      <point x="684" y="334" type="curve" smooth="yes"/>
      <point x="684" y="452"/>
      <point x="653" y="539"/>
      <point x="588" y="600" type="curve" smooth="yes"/>
      <point x="532" y="653"/>
      <point x="458" y="680"/>
    </contour>
    <contour>
      <point x="367" y="617" type="curve" smooth="yes"/>
      <point x="510" y="617"/>
      <point x="597" y="510"/>
      <point x="597" y="334" type="curve" smooth="yes"/>
      <point x="597" y="157"/>
      <point x="510" y="50"/>
      <point x="367" y="50" type="curve" smooth="yes"/>
      <point x="222" y="50"/>
      <point x="137" y="156"/>
      <point x="137" y="338" type="curve" smooth="yes"/>
      <point x="137" y="510"/>
      <point x="225" y="617"/>
    </contour>
    <contour>
      <point x="511" y="835" type="line"/>
      <point x="491" y="803"/>
      <point x="479" y="794"/>
      <point x="459" y="794" type="curve" smooth="yes"/>
      <point x="446" y="794"/>
      <point x="423" y="801"/>
      <point x="391" y="815" type="curve" smooth="yes"/>
      <point x="347" y="835"/>
      <point x="339" y="837"/>
      <point x="320" y="837" type="curve" smooth="yes"/>
      <point x="291" y="837" name="hr01"/>
      <point x="270" y="822"/>
      <point x="214" y="761" type="curve"/>
      <point x="232" y="744" type="line"/>
      <point x="269" y="779"/>
      <point x="286" y="789" name="hr02"/>
      <point x="308" y="789" type="curve" smooth="yes"/>
      <point x="322" y="789" name="hr03"/>
      <point x="331" y="786"/>
      <point x="357" y="776" type="curve" smooth="yes"/>
      <point x="382" y="766"/>
      <point x="382" y="766"/>
      <point x="394" y="760" type="curve" smooth="yes"/>
      <point x="428" y="745"/>
      <point x="432" y="744"/>
      <point x="443" y="744" type="curve" smooth="yes"/>
      <point x="473" y="744" name="hr04"/>
      <point x="510" y="777"/>
      <point x="533" y="822" type="curve"/>
    </contour>
  </outline>
</glyph>
<glyph name="Odieresis" format="2">
  <advance width="750"/>
  <unicode hex="00D6"/>
  <outline>
    <contour>
      <point x="374.429" y="682.9" type="curve" smooth="yes"/>
      <point x="162.389" y="682.9"/>
      <point x="45.6987" y="549.641"/>
      <point x="45.6987" y="340.39" type="curve" smooth="yes"/>
      <point x="45.6987" y="126.252"/>
      <point x="154.14" y="-14.8396"/>
      <point x="375.489" y="-14.8396" type="curve" smooth="yes"/>
      <point x="590.321" y="-14.8396"/>
      <point x="703.159" y="124.807"/>
      <point x="703.159" y="334.03" type="curve" smooth="yes"/>
      <point x="703.159" y="545.948"/>
      <point x="591.455" y="682.9"/>
    </contour>
    <contour>
      <point x="374.429" y="623.262" type="curve" smooth="yes"/>
      <point x="516.006" y="623.262"/>
      <point x="605.363" y="511.669"/>
      <point x="605.363" y="334.03" type="curve" smooth="yes"/>
      <point x="605.363" y="156.391"/>
      <point x="516.006" y="44.7976"/>
      <point x="374.429" y="44.7976" type="curve" smooth="yes"/>
      <point x="231.691" y="44.7976"/>
      <point x="143.495" y="156.272"/>
      <point x="143.495" y="338.27" type="curve" smooth="yes"/>
      <point x="143.495" y="511.545"/>
      <point x="234.012" y="623.262"/>
    </contour>
    <contour>
      <point x="261.012" y="876.874" type="curve" smooth="yes"/>
      <point x="234.282" y="876.874"/>
      <point x="214.234" y="857.107"/>
      <point x="214.234" y="832.216" type="curve" smooth="yes"/>
      <point x="214.234" y="805.486"/>
      <point x="234.143" y="785.438"/>
      <point x="259.952" y="785.438" type="curve" smooth="yes"/>
      <point x="285.761" y="785.438"/>
      <point x="305.67" y="805.347"/>
      <point x="305.67" y="831.156" type="curve" smooth="yes"/>
      <point x="305.67" y="856.965"/>
      <point x="285.903" y="876.874"/>
    </contour>
    <contour>
      <point x="488.906" y="876.874" type="curve" smooth="yes"/>
      <point x="463.097" y="876.874"/>
      <point x="443.187" y="857.107"/>
      <point x="443.187" y="832.216" type="curve" smooth="yes"/>
      <point x="443.187" y="805.486"/>
      <point x="462.222" y="785.438"/>
      <point x="487.846" y="785.438" type="curve" smooth="yes"/>
      <point x="513.833" y="785.438"/>
      <point x="534.624" y="805.347"/>
      <point x="534.624" y="831.156" type="curve" smooth="yes"/>
      <point x="534.624" y="856.965"/>
      <point x="514.714" y="876.874"/>
    </contour>
  </outline>
</glyph>
<glyph name="multiply" format="2">
  <advance width="516"/>
  <unicode hex="00D7"/>
  <outline>
    <contour>
      <point x="43.8126" y="177.012" type="line"/>
      <point x="93.0069" y="127.144" type="line"/>
      <point x="255.132" y="290.329" type="line"/>
      <point x="416.294" y="128.107" type="line"/>
      <point x="470.594" y="182.408" type="line"/>
      <point x="308.372" y="343.569" type="line"/>
      <point x="471.751" y="505.887" type="line"/>
      <point x="422.557" y="555.755" type="line"/>
      <point x="260.431" y="392.57" type="line"/>
      <point x="99.3603" y="554.701" type="line"/>
      <point x="44.9253" y="499.568" type="line"/>
      <point x="207.238" y="339.377" type="line"/>
    </contour>
  </outline>
</glyph>
<glyph name="Oslash" format="2">
  <advance width="734"/>
  <unicode hex="00D8"/>
  <outline>
    <contour>
      <point x="608" y="701" type="line"/>
      <point x="552" y="630" type="line"/>
      <point x="500" y="664"/>
      <point x="439" y="680"/>
      <point x="366" y="680" type="curve" smooth="yes"/>
      <point x="276" y="680"/>
      <point x="201" y="653"/>
      <point x="146" y="600" type="curve" smooth="yes"/>
      <point x="82" y="539"/>
      <point x="50" y="452"/>
      <point x="50" y="336" type="curve" smooth="yes"/>
      <point x="50" y="221"/>
      <point x="71" y="155"/>
      <point x="133" y="78" type="curve"/>
      <point x="79" y="7" type="line"/>
      <point x="118" y="-26" type="line"/>
      <point x="172" y="43" type="line"/>
      <point x="249" y="-1"/>
      <point x="291" y="-13"/>
      <point x="370" y="-13" type="curve" smooth="yes"/>
      <point x="458" y="-13"/>
      <point x="533" y="15"/>
      <point x="588" y="67" type="curve" smooth="yes"/>
      <point x="652" y="128"/>
      <point x="684" y="215"/>
      <point x="684" y="331" type="curve" smooth="yes"/>
      <point x="684" y="450"/>
      <point x="660" y="521"/>
      <point x="594" y="596" type="curve"/>
      <point x="649" y="669" type="line"/>
    </contour>
    <contour>
      <point x="543" y="533" type="line"/>
      <point x="581" y="479"/>
      <point x="597" y="417"/>
      <point x="597" y="331" type="curve" smooth="yes"/>
      <point x="597" y="157"/>
      <point x="509" y="50"/>
      <point x="367" y="50" type="curve" smooth="yes"/>
      <point x="309" y="50"/>
      <point x="265" y="66"/>
      <point x="218" y="103" type="curve"/>
    </contour>
    <contour>
      <point x="183" y="145" type="line"/>
      <point x="150" y="203"/>
      <point x="137" y="258"/>
      <point x="137" y="334" type="curve" smooth="yes"/>
      <point x="137" y="510"/>
      <point x="224" y="617"/>
      <point x="367" y="617" type="curve" smooth="yes"/>
      <point x="419" y="617"/>
      <point x="458" y="605"/>
      <point x="508" y="572" type="curve"/>
    </contour>
  </outline>
</glyph>
<glyph name="Ugrave" format="2">
  <advance width="684"/>
  <unicode hex="00D9"/>
  <outline>
    <contour>
      <point x="87" y="667" type="line"/>
      <point x="87" y="272" type="line" smooth="yes"/>
      <point x="87" y="178"/>
      <point x="93" y="141"/>
      <point x="113" y="101" type="curve" smooth="yes"/>
      <point x="150" y="27"/>
      <point x="231" y="-13"/>
      <point x="342" y="-13" type="curve" smooth="yes"/>
      <point x="447" y="-13"/>
      <point x="525" y="22"/>
      <point x="565" y="88" type="curve" smooth="yes"/>
      <point x="591" y="130"/>
      <point x="598" y="171"/>
      <point x="598" y="272" type="curve" smooth="yes"/>
      <point x="598" y="667" type="line"/>
      <point x="518" y="667" type="line"/>
      <point x="518" y="269" type="line" smooth="yes"/>
      <point x="518" y="184"/>
      <point x="514" y="157"/>
      <point x="497" y="127" type="curve" smooth="yes"/>
      <point x="471" y="79"/>
      <point x="412" y="50"/>
      <point x="342" y="50" type="curve" smooth="yes"/>
      <point x="278" y="50"/>
      <point x="222" y="75"/>
      <point x="194" y="117" type="curve" smooth="yes"/>
      <point x="172" y="149"/>
      <point x="167" y="176"/>
      <point x="167" y="269" type="curve" smooth="yes"/>
      <point x="167" y="667" type="line"/>
    </contour>
    <contour>
      <point x="263" y="880" type="line"/>
      <point x="184" y="864" type="line"/>
      <point x="366" y="712" type="line"/>
      <point x="400" y="718" type="line"/>
    </contour>
  </outline>
</glyph>
<glyph name="Uacute" format="2">
  <advance width="684"/>
  <unicode hex="00DA"/>
  <outline>
    <contour>
      <point x="87" y="667" type="line"/>
      <point x="87" y="272" type="line" smooth="yes"/>
      <point x="87" y="178"/>
      <point x="93" y="141"/>
      <point x="113" y="101" type="curve" smooth="yes"/>
      <point x="150" y="27"/>
      <point x="231" y="-13"/>
      <point x="342" y="-13" type="curve" smooth="yes"/>
      <point x="447" y="-13"/>
      <point x="525" y="22"/>
      <point x="565" y="88" type="curve" smooth="yes"/>
      <point x="591" y="130"/>
      <point x="598" y="171"/>
      <point x="598" y="272" type="curve" smooth="yes"/>
      <point x="598" y="667" type="line"/>
      <point x="518" y="667" type="line"/>
      <point x="518" y="269" type="line" smooth="yes"/>
      <point x="518" y="184"/>
      <point x="514" y="157"/>
      <point x="497" y="127" type="curve" smooth="yes"/>
      <point x="471" y="79"/>
      <point x="412" y="50"/>
      <point x="342" y="50" type="curve" smooth="yes"/>
      <point x="278" y="50"/>
      <point x="222" y="75"/>
      <point x="194" y="117" type="curve" smooth="yes"/>
      <point x="172" y="149"/>
      <point x="167" y="176"/>
      <point x="167" y="269" type="curve" smooth="yes"/>
      <point x="167" y="667" type="line"/>
    </contour>
    <contour>
      <point x="418" y="880" type="line"/>
      <point x="281" y="718" type="line"/>
      <point x="316" y="712" type="line"/>
      <point x="497" y="864" type="line"/>
    </contour>
  </outline>
</glyph>
<glyph name="Ucircumflex" format="2">
  <advance width="684"/>
  <unicode hex="00DB"/>
  <outline>
    <contour>
      <point x="87" y="667" type="line"/>
      <point x="87" y="272" type="line" smooth="yes"/>
      <point x="87" y="178"/>
      <point x="93" y="141"/>
      <point x="113" y="101" type="curve" smooth="yes"/>
      <point x="150" y="27"/>
      <point x="231" y="-13"/>
      <point x="342" y="-13" type="curve" smooth="yes"/>
      <point x="447" y="-13"/>
      <point x="525" y="22"/>
      <point x="565" y="88" type="curve" smooth="yes"/>
      <point x="591" y="130"/>
      <point x="598" y="171"/>
      <point x="598" y="272" type="curve" smooth="yes"/>
      <point x="598" y="667" type="line"/>
      <point x="518" y="667" type="line"/>
      <point x="518" y="269" type="line" smooth="yes"/>
      <point x="518" y="184"/>
      <point x="514" y="157"/>
      <point x="497" y="127" type="curve" smooth="yes"/>
      <point x="471" y="79"/>
      <point x="412" y="50"/>
      <point x="342" y="50" type="curve" smooth="yes"/>
      <point x="278" y="50"/>
      <point x="222" y="75"/>
      <point x="194" y="117" type="curve" smooth="yes"/>
      <point x="172" y="149"/>
      <point x="167" y="176"/>
      <point x="167" y="269" type="curve" smooth="yes"/>
      <point x="167" y="667" type="line"/>
    </contour>
    <contour>
      <point x="371" y="878" type="line"/>
      <point x="315" y="878" type="line"/>
      <point x="183" y="719" type="line"/>
      <point x="215" y="713" type="line"/>
      <point x="343" y="829" type="line"/>
      <point x="473" y="713" type="line"/>
      <point x="503" y="719" type="line"/>
    </contour>
  </outline>
</glyph>
<glyph name="Udieresis" format="2">
  <advance width="692"/>
  <unicode hex="00DC"/>
  <outline>
    <contour>
      <point x="78.6777" y="667" type="line"/>
      <point x="78.6777" y="270.432" type="line" smooth="yes"/>
      <point x="78.6777" y="176.864"/>
      <point x="85.53" y="136.669"/>
      <point x="108.045" y="95.5553" type="curve" smooth="yes"/>
      <point x="146.78" y="23.8955"/>
      <point x="230.66" y="-14.8396"/>
      <point x="344.87" y="-14.8396" type="curve" smooth="yes"/>
      <point x="451.403" y="-14.8396"/>
      <point x="531.494" y="18.1906"/>
      <point x="574.239" y="81.3365" type="curve" smooth="yes"/>
      <point x="603.379" y="124.075"/>
      <point x="612.121" y="167.089"/>
      <point x="612.121" y="270.432" type="curve" smooth="yes"/>
      <point x="612.121" y="667" type="line"/>
      <point x="524.925" y="667" type="line"/>
      <point x="524.925" y="269.372" type="line" smooth="yes"/>
      <point x="524.925" y="190.473"/>
      <point x="520.168" y="157.623"/>
      <point x="504.708" y="126.703" type="curve" smooth="yes"/>
      <point x="477.814" y="75.3595"/>
      <point x="418.126" y="44.7976"/>
      <point x="345.93" y="44.7976" type="curve" smooth="yes"/>
      <point x="279.533" y="44.7976"/>
      <point x="221.877" y="71.4472"/>
      <point x="193.409" y="114.433" type="curve" smooth="yes"/>
      <point x="172.496" y="147.557"/>
      <point x="165.874" y="182.109"/>
      <point x="165.874" y="269.372" type="curve" smooth="yes"/>
      <point x="165.874" y="667" type="line"/>
    </contour>
    <contour>
      <point x="232.513" y="876.874" type="curve" smooth="yes"/>
      <point x="205.782" y="876.874"/>
      <point x="185.735" y="857.107"/>
      <point x="185.735" y="832.216" type="curve" smooth="yes"/>
      <point x="185.735" y="805.486"/>
      <point x="205.644" y="785.438"/>
      <point x="231.453" y="785.438" type="curve" smooth="yes"/>
      <point x="257.261" y="785.438"/>
      <point x="277.171" y="805.347"/>
      <point x="277.171" y="831.156" type="curve" smooth="yes"/>
      <point x="277.171" y="856.965"/>
      <point x="257.404" y="876.874"/>
    </contour>
    <contour>
      <point x="460.406" y="876.874" type="curve" smooth="yes"/>
      <point x="434.598" y="876.874"/>
      <point x="414.688" y="857.107"/>
      <point x="414.688" y="832.216" type="curve" smooth="yes"/>
      <point x="414.688" y="805.486"/>
      <point x="433.723" y="785.438"/>
      <point x="459.346" y="785.438" type="curve" smooth="yes"/>
      <point x="485.334" y="785.438"/>
      <point x="506.124" y="805.347"/>
      <point x="506.124" y="831.156" type="curve" smooth="yes"/>
      <point x="506.124" y="856.965"/>
      <point x="486.215" y="876.874"/>
    </contour>
  </outline>
</glyph>
<glyph name="Yacute" format="2">
  <advance width="488"/>
  <unicode hex="00DD"/>
  <outline>
    <contour>
      <point x="431.076" y="667" type="line"/>
      <point x="252.4" y="361.667" type="line"/>
      <point x="68.0689" y="667" type="line"/>
      <point x="-30.2817" y="667" type="line"/>
      <point x="201.114" y="286.637" type="line"/>
      <point x="201.114" y="0" type="line"/>
      <point x="288.31" y="0" type="line"/>
      <point x="288.31" y="289.772" type="line"/>
      <point x="515.64" y="667" type="line"/>
    </contour>
    <contour>
      <point x="341.975" y="903.056" type="line"/>
      <point x="221.064" y="761.006" type="line"/>
      <point x="225.758" y="760.172" type="line"/>
      <point x="394.775" y="889.723" type="line"/>
    </contour>
  </outline>
</glyph>
<glyph name="Thorn" format="2">
  <advance width="493"/>
  <unicode hex="00DE"/>
  <outline>
    <contour>
      <point x="93" y="0" type="line"/>
      <point x="173" y="0" type="line"/>
      <point x="173" y="206" type="line"/>
      <point x="249" y="206" type="line" smooth="yes"/>
      <point x="302" y="206"/>
      <point x="361" y="219"/>
      <point x="393" y="238" type="curve" smooth="yes"/>
      <point x="446" y="270"/>
      <point x="479" y="332"/>
      <point x="479" y="401" type="curve" smooth="yes"/>
      <point x="479" y="458"/>
      <point x="457" y="508"/>
      <point x="418" y="538" type="curve" smooth="yes"/>
      <point x="385" y="564"/>
      <point x="347" y="573"/>
      <point x="270" y="573" type="curve" smooth="yes"/>
      <point x="173" y="573" type="line"/>
      <point x="173" y="667" type="line"/>
      <point x="93" y="667" type="line"/>
    </contour>
    <contour>
      <point x="173" y="269" type="line"/>
      <point x="173" y="510" type="line"/>
      <point x="272" y="510" type="line" smooth="yes"/>
      <point x="311" y="510"/>
      <point x="334" y="505"/>
      <point x="351" y="493" type="curve" smooth="yes"/>
      <point x="377" y="475"/>
      <point x="392" y="441"/>
      <point x="392" y="396" type="curve" smooth="yes"/>
      <point x="392" y="313"/>
      <point x="343" y="269"/>
      <point x="249" y="269" type="curve" smooth="yes"/>
    </contour>
  </outline>
</glyph>
